<svg width="95" height="98" viewBox="0 0 95 98" fill="none" xmlns="http://www.w3.org/2000/svg">
<g clip-path="url(#clip0_460_168106)">
<path d="M92.1663 57.038C92.1663 56.1734 92.1663 55.3034 92.1663 54.4389V51.6373V46.2476C92.1663 42.8934 92.1663 39.5337 92.1663 36.174C92.1663 35.5283 91.9875 35.2711 91.3264 35.3094C90.6654 35.3477 90.053 35.2766 89.4191 35.2547C89.4191 34.3957 89.4191 33.5311 89.4191 32.672C89.4191 29.2795 89.9609 29.9361 86.8452 29.9361L86.8073 29.9088H84.0979H86.8073C86.8615 27.2385 86.8615 27.2385 84.2984 27.1729L84.0871 27.14C84.0871 26.3247 84.3472 25.2742 83.9516 24.7543C83.4694 24.1306 82.3694 24.6394 81.5457 24.5191H81.3344C81.2423 21.6245 81.2423 21.6245 78.5221 21.8543L75.9699 21.7394C75.8941 20.9022 76.3438 19.8024 75.7749 19.3099C75.298 18.8995 74.2414 19.1731 73.4449 19.1457H73.2335C73.1631 16.2402 73.1631 16.2402 70.6271 16.4098L67.8419 16.3168C67.8419 13.373 67.8419 13.373 65.2897 13.663C65.2226 13.685 65.1588 13.7163 65.1001 13.756L62.5425 13.6903C62.2499 12.8586 62.8026 11.7588 62.2824 11.2062C61.7622 10.6535 60.6189 11.0201 59.7519 11.0201C58.511 11.0201 57.2701 10.9654 56.0347 10.9544C54.2628 10.9544 54.2086 10.9545 54.2574 9.17066C54.2574 8.31159 53.9648 8.18024 53.217 8.18571C50.8382 8.21307 48.4648 8.18573 46.0914 8.14196C46.0914 7.53459 46.0914 6.92173 46.0914 6.31436C46.0914 5.70699 46.0047 5.5483 45.4033 5.55377C41.9895 5.59208 38.5758 5.59209 35.162 5.59756L32.5719 5.54285C32.5719 5.14888 32.5719 4.75489 32.5719 4.36092C32.5394 2.57712 32.8103 2.88354 31.0655 2.79052C30.1226 2.74127 29.6675 2.97658 29.8246 4.00528C29.8671 4.50381 29.8798 5.00447 29.8626 5.50455C26.8426 5.52643 23.8207 5.54466 20.7971 5.55925C19.0252 5.55925 18.9927 5.55924 19.0144 7.33211C19.0144 8.03797 18.8247 8.24044 18.1257 8.22949C16.3538 8.22949 16.3538 8.22948 16.3159 10.1008C16.3105 10.1719 16.3105 10.2432 16.3159 10.3142C16.3972 10.8614 16.1208 10.949 15.6386 10.9654C13.6228 11.042 13.6228 11.0584 13.6228 13.1541C13.6228 13.2964 13.6228 13.4386 13.6228 13.5864C13.5606 13.6173 13.4952 13.6411 13.4277 13.6575C12.5987 13.7724 11.4608 13.2909 11.011 13.8764C10.5613 14.4619 10.8647 15.5179 10.8376 16.3551C10.347 16.3907 9.85441 16.3907 9.36375 16.3551C8.43716 16.2457 8.06327 16.5193 8.12287 17.548C8.20415 18.9542 8.12287 20.3769 8.07411 21.7886C5.42438 21.7886 5.42438 21.7886 5.54901 24.5245C5.52733 27.2495 5.50385 29.9726 5.47856 32.6939C2.61751 32.7541 2.61751 32.7541 2.76923 35.5119V43.4898V51.6975C2.76923 52.3432 2.76924 52.9943 2.72589 53.6345C2.65545 54.3841 2.99681 54.5647 3.66331 54.5209C4.3298 54.4772 4.87167 54.5209 5.47856 54.5209C5.47856 56.3157 5.5165 58.1104 5.53275 59.8997V62.6958C5.53275 63.6151 5.50566 64.5398 5.53275 65.4317C5.57068 68.0089 5.57611 68.0089 8.09579 68.0472C8.16623 69.8694 7.97656 71.6915 8.19873 73.5191C8.19873 74.1976 8.19873 74.8815 8.1337 75.56C8.09577 76.1072 8.33962 76.2057 8.82188 76.2276C10.881 76.3315 10.8756 76.3479 10.8701 78.4163C10.8701 78.5586 10.8701 78.7008 10.8701 78.8431C10.8701 81.6392 10.8701 81.6392 13.612 81.6392V85.0864C13.612 86.9688 13.612 86.9797 15.4543 87.0289C15.9149 87.0289 16.2671 87.0289 16.278 87.6746C16.2888 88.3203 15.9095 89.3161 16.473 89.6937C17.0366 90.0712 17.8494 89.7867 18.5592 89.7977H18.9873C18.9873 90.3722 19.0361 90.9467 18.9873 91.5158C18.9331 92.1943 19.1282 92.4405 19.8597 92.435C21.702 92.435 21.7508 92.4351 21.7021 94.3229C21.7021 95.1382 21.9947 95.2257 22.6774 95.2148C26.0478 95.1819 29.4182 95.2148 32.7886 95.2148C33.5635 95.2148 34.5443 95.4555 35.0645 95.078C35.5847 94.7004 35.1837 93.617 35.2704 92.8509L35.3191 92.4242C35.5305 92.4242 35.7418 92.4569 35.9531 92.4569C37.8876 92.4569 37.9093 92.457 37.9797 90.4981C37.9797 89.9509 38.1693 89.7813 38.7112 89.7594C40.7595 89.6718 40.7595 89.65 40.7378 87.5707C40.7378 87.3901 40.7378 87.215 40.7053 87.0235C40.7053 86.3778 40.7649 85.7321 40.7053 85.0919C40.6457 84.4517 40.9275 84.2438 41.5669 84.2383C43.5013 84.2383 43.5067 84.189 43.4525 82.1864C43.4525 82.0113 43.4146 81.8307 43.3984 81.6392C41.8703 81.6392 40.3477 81.6392 38.825 81.5954C40.3477 81.6502 41.8703 81.6282 43.3984 81.6392C43.458 80.6871 43.6259 79.7296 43.2954 78.7939C43.2954 77.9293 43.2954 77.0703 43.2954 76.2057H49.5919C51.716 76.2057 51.6564 76.4574 51.5805 74.3015C51.5805 73.5464 51.884 73.4096 52.5342 73.4205C54.3441 73.4534 56.1593 73.4205 57.9529 73.4205C60.0391 73.4205 59.7681 73.6504 59.7194 71.6915C59.7194 70.7722 60.0499 70.6354 60.8356 70.6464C63.572 70.6792 66.3085 70.6464 69.0449 70.6464C70.7843 70.6464 70.6217 70.7722 70.5676 69.0814C70.535 68.2114 70.8276 67.9871 71.6513 67.9871C74.2468 68.0363 76.8424 67.9871 79.4379 67.9871C81.2586 67.9871 81.2857 67.987 81.2857 66.1157C81.2857 65.4262 81.4699 65.1581 82.1852 65.1855C83.464 65.2347 84.7482 65.1855 86.027 65.1855C86.6284 65.1855 86.8723 64.9831 86.8235 64.3757C86.791 63.9817 86.8235 63.5877 86.8235 63.1938C86.8235 62.7998 87.0186 62.5754 87.4629 62.5481C88.0861 62.5043 88.8935 62.8599 89.289 62.3401C89.6846 61.8203 89.3757 61.016 89.4191 60.343C89.4191 60.1624 89.4191 59.9818 89.4191 59.7958C90.2915 59.6535 91.4185 60.1679 91.9767 59.566C92.5348 58.9641 92.1501 57.9244 92.1663 57.038ZM5.50567 46.253H8.05785C8.22278 45.996 8.31806 45.6998 8.33419 45.394C8.31806 45.6998 8.22278 45.996 8.05785 46.253H5.50567ZM38.0176 70.6026C38.0176 69.7435 37.9905 68.8899 37.9743 68.0308C37.9743 68.8899 38.0068 69.7435 38.0176 70.6026H38.7654H38.0176ZM13.6337 40.152C13.6337 40.3654 13.6337 40.6007 13.6337 40.8579C13.6174 40.6007 13.6174 40.3654 13.612 40.152H13.6337ZM43.4363 40.8907C51.2771 40.8907 59.1125 40.8907 66.9479 40.8524C59.1125 40.8852 51.2717 40.8797 43.4363 40.8907C43.4363 42.669 43.4796 44.4528 43.4959 46.2312H43.4363H43.4959C43.458 44.4528 43.4363 42.669 43.4146 40.8907H43.4363ZM40.7649 57.0489H43.523H40.7649C40.7649 57.2295 40.7649 57.4101 40.7649 57.5961C40.7378 57.4101 40.7378 57.2295 40.7432 57.0489H40.7649ZM43.5338 49.0601C43.5393 49.0037 43.5393 48.9469 43.5338 48.8905L51.6618 48.8248L43.5338 48.8905C43.5393 48.9469 43.5393 49.0037 43.5338 49.0601H43.3225C42.9811 49.0601 42.6289 49.0874 42.2875 49.0601C42.6289 49.0601 42.9811 49.0601 43.3225 49.0601H43.5338ZM67.9178 43.4679C67.9178 43.063 67.8853 42.6581 67.8907 42.2586C67.8365 42.669 67.8636 43.063 67.869 43.4679H67.9178ZM70.47 43.4679H73.4611H70.47C70.47 43.5391 70.47 43.6102 70.47 43.6813C70.4158 43.6211 70.4212 43.55 70.4212 43.4788L70.47 43.4679ZM53.4012 46.2421H54.2519L62.342 46.2093L54.2519 46.2421C54.2519 46.2804 54.2519 46.3132 54.2519 46.3515C54.2519 46.3898 54.2519 46.2804 54.2519 46.2421H53.4012ZM35.3842 48.8576H29.868H35.3842ZM49.9278 27.348C49.8457 27.3545 49.7642 27.3673 49.684 27.3863C49.7642 27.3673 49.8457 27.3545 49.9278 27.348ZM43.4255 38.0891C43.4255 37.2301 43.4796 36.3655 43.5013 35.501C43.5013 36.3655 43.4525 37.2301 43.4255 38.0891H40.7595H43.4255ZM40.7161 46.2585H37.958H40.7161V41.0439V46.2585ZM32.4093 46.2585C30.632 46.2585 28.8547 46.2585 27.0774 46.2585C27.0774 45.7551 27.0286 45.2517 27.0774 44.7483C27.0448 45.2517 27.0774 45.7551 27.0774 46.2585C28.8547 46.2476 30.6266 46.2312 32.4093 46.2476V46.2585ZM13.612 51.6537C13.612 51.993 13.5849 52.3322 13.5849 52.6715C13.5849 52.3322 13.5849 51.993 13.612 51.6537ZM20.9272 54.3349C20.8005 54.3653 20.672 54.3872 20.5425 54.4006C20.6756 54.3877 20.8078 54.3658 20.938 54.3349H20.9272ZM21.2198 54.2145C21.2731 54.1824 21.3222 54.1439 21.3661 54.0996C21.7129 53.7494 21.7129 53.049 21.7183 51.6482C21.7183 53.049 21.7183 53.7494 21.3661 54.0996C21.3222 54.1439 21.2731 54.1824 21.2198 54.2145C21.161 54.249 21.0994 54.2784 21.0355 54.3021C21.1031 54.279 21.1684 54.2496 21.2306 54.2145H21.2198ZM35.1783 59.8286H18.0932H35.1783ZM77.8069 59.8286H77.4384H77.8069ZM37.9363 21.6737C37.9363 23.5396 37.9363 25.4055 37.9363 27.2659H40.6782C40.6782 28.1304 40.727 28.995 40.7486 29.8595H48.8225C48.8225 28.6503 48.8225 28.0046 49.0934 27.6708C49.1289 27.6267 49.1689 27.5863 49.2126 27.5504C49.1689 27.5863 49.1289 27.6267 49.0934 27.6708C48.8279 28.0101 48.8279 28.6557 48.8225 29.8595H40.7486C40.7486 31.6434 40.7486 33.4271 40.7215 35.2164C41.1828 35.263 41.6475 35.263 42.1087 35.2164C41.6475 35.263 41.1828 35.263 40.7215 35.2164C40.7215 33.4271 40.7215 31.6434 40.7486 29.8595C40.7486 28.995 40.6999 28.1304 40.6782 27.2659H37.9363V21.6737H35.1783H37.9363ZM35.1674 19.9446C35.1674 19.6601 35.1674 19.3975 35.1674 19.0856C35.1783 19.3865 35.1783 19.6875 35.1783 19.961L35.1674 19.9446ZM13.5361 39.0959C13.5529 39.1937 13.5637 39.2923 13.5686 39.3914C13.5686 39.5501 13.5686 39.7252 13.5686 39.9386C13.5686 39.7361 13.5686 39.561 13.5686 39.3914C13.5637 39.2923 13.5529 39.1937 13.5361 39.0959C13.5361 39.0084 13.5036 38.9263 13.4819 38.8497C13.5144 38.9482 13.5307 39.0303 13.547 39.1178L13.5361 39.0959ZM13.4115 38.6473C13.3816 38.5898 13.3472 38.5349 13.3085 38.4831C13.352 38.5415 13.3901 38.6038 13.4223 38.6691L13.4115 38.6473ZM28.9901 73.3932H37.9309H37.9689H37.9309H28.9901ZM75.9483 62.5974C75.9483 60.8573 75.9483 60.2061 76.6364 59.9544C76.7092 59.9298 76.7834 59.9097 76.8586 59.8942C76.7834 59.9097 76.7092 59.9298 76.6364 59.9544C75.9645 60.2061 75.9591 60.8573 75.9483 62.5974ZM77.2759 59.8615L76.9887 59.8997L77.2759 59.8615ZM13.6228 15.8572C13.6228 16.6287 13.6228 17.4002 13.6228 18.1718C13.6228 17.3729 13.6228 16.6014 13.6228 15.8572ZM8.74602 24.5136C8.52927 24.5136 8.31795 24.5136 8.10662 24.5136C8.31795 24.4753 8.52927 24.4862 8.74602 24.4862V24.5136ZM5.49482 35.0304C5.49482 35.1179 5.49482 35.2055 5.49482 35.2876H8.047V38.0782H8.08494L10.7943 38.1055L8.08494 38.0782H8.047V35.2876H5.49482C5.49482 35.3642 5.49482 35.4408 5.49482 35.5119C5.49482 35.4408 5.49482 35.3642 5.49482 35.2876C5.49482 35.211 5.49482 35.0906 5.49482 35.0085V35.0304ZM5.49482 43.4843C5.49482 41.6841 5.49482 39.8894 5.49482 38.0946C5.49482 39.8894 5.49482 41.6841 5.49482 43.4843V46.2914V43.4843ZM8.20415 54.5209L5.49482 54.4881L8.20415 54.5209C8.20415 53.5798 8.20416 52.6386 8.23125 51.6975H8.05243H8.23125C8.23125 52.6386 8.23124 53.5798 8.20415 54.5209C8.20415 55.38 8.20416 56.2391 8.23125 57.0982C8.25835 57.9572 8.23125 58.964 8.23125 59.8997C8.23125 58.964 8.23125 58.0338 8.23125 57.0982C8.23125 56.1625 8.2475 55.3308 8.23666 54.4717L8.20415 54.5209Z" fill="#F5E468"/>
<path d="M38.0176 70.6026C38.0176 69.7435 37.9905 68.8899 37.9743 68.0308C37.9743 68.8899 38.0068 69.7435 38.0176 70.6026ZM38.0176 70.6026H38.7654H38.0176ZM43.4363 40.8907C51.2771 40.8907 59.1125 40.8907 66.9479 40.8524C59.1125 40.8852 51.2717 40.8797 43.4363 40.8907ZM43.4363 40.8907C43.4363 42.669 43.4796 44.4528 43.4959 46.2312H43.4363H43.4959C43.458 44.4528 43.4363 42.669 43.4146 40.8907H43.4363ZM40.7649 57.0489H43.523H40.7649ZM40.7649 57.0489C40.7649 57.2295 40.7649 57.4101 40.7649 57.5961C40.7378 57.4101 40.7378 57.2295 40.7432 57.0489H40.7649ZM70.47 43.4679H73.4611H70.47ZM70.47 43.4679C70.47 43.5391 70.47 43.6102 70.47 43.6813C70.4158 43.6211 70.4212 43.55 70.4212 43.4788L70.47 43.4679ZM43.4255 38.0891C43.4255 37.2301 43.4796 36.3655 43.5013 35.501C43.5013 36.3655 43.4525 37.2301 43.4255 38.0891ZM43.4255 38.0891H40.7595H43.4255ZM40.7161 46.2585H37.958H40.7161ZM40.7161 46.2585V41.0439V46.2585ZM21.2198 54.2145C21.2731 54.1824 21.3222 54.1439 21.3661 54.0996C21.7129 53.7494 21.7129 53.049 21.7183 51.6482C21.7183 53.049 21.7183 53.7494 21.3661 54.0996C21.3222 54.1439 21.2731 54.1824 21.2198 54.2145ZM21.2198 54.2145C21.161 54.249 21.0994 54.2784 21.0355 54.3021C21.1031 54.279 21.1684 54.2496 21.2306 54.2145H21.2198ZM37.9363 21.6737C37.9363 23.5396 37.9363 25.4055 37.9363 27.2659H40.6782C40.6782 28.1304 40.727 28.995 40.7486 29.8595H48.8225C48.8225 28.6503 48.8225 28.0046 49.0934 27.6708C49.1289 27.6267 49.1689 27.5863 49.2126 27.5504C49.1689 27.5863 49.1289 27.6267 49.0934 27.6708C48.8279 28.0101 48.8279 28.6557 48.8225 29.8595H40.7486C40.7486 31.6434 40.7486 33.4271 40.7215 35.2164C41.1828 35.263 41.6475 35.263 42.1087 35.2164C41.6475 35.263 41.1828 35.263 40.7215 35.2164C40.7215 33.4271 40.7215 31.6434 40.7486 29.8595C40.7486 28.995 40.6999 28.1304 40.6782 27.2659H37.9363V21.6737ZM37.9363 21.6737H35.1783H37.9363ZM5.49482 43.4843C5.49482 41.6841 5.49482 39.8894 5.49482 38.0946C5.49482 39.8894 5.49482 41.6841 5.49482 43.4843ZM5.49482 43.4843V46.2914V43.4843ZM8.20415 54.5209L5.49482 54.4881L8.20415 54.5209ZM8.20415 54.5209C8.20415 53.5798 8.20416 52.6386 8.23125 51.6975H8.05243H8.23125C8.23125 52.6386 8.23124 53.5798 8.20415 54.5209ZM8.20415 54.5209C8.20415 55.38 8.20416 56.2391 8.23125 57.0982C8.25835 57.9572 8.23125 58.964 8.23125 59.8997C8.23125 58.964 8.23125 58.0338 8.23125 57.0982C8.23125 56.1625 8.2475 55.3308 8.23666 54.4717L8.20415 54.5209ZM92.1663 57.038C92.1663 56.1734 92.1663 55.3034 92.1663 54.4389V51.6373V46.2476C92.1663 42.8934 92.1663 39.5337 92.1663 36.174C92.1663 35.5283 91.9875 35.2711 91.3264 35.3094C90.6654 35.3477 90.0531 35.2766 89.4191 35.2547C89.4191 34.3957 89.4191 33.5311 89.4191 32.672C89.4191 29.2795 89.9609 29.9361 86.8452 29.9361L86.8073 29.9088H84.0979H86.8073C86.8615 27.2385 86.8615 27.2385 84.2984 27.1729L84.0871 27.14C84.0871 26.3247 84.3472 25.2742 83.9516 24.7543C83.4694 24.1306 82.3694 24.6394 81.5457 24.5191H81.3344C81.2423 21.6245 81.2423 21.6245 78.5221 21.8543L75.9699 21.7394C75.8941 20.9022 76.3438 19.8024 75.7749 19.3099C75.298 18.8995 74.2414 19.1731 73.4449 19.1457H73.2335C73.1631 16.2402 73.1631 16.2402 70.6271 16.4098L67.8419 16.3168C67.8419 13.373 67.8419 13.373 65.2897 13.663C65.2226 13.685 65.1588 13.7163 65.1001 13.756L62.5425 13.6903C62.2499 12.8586 62.8026 11.7588 62.2824 11.2062C61.7622 10.6535 60.6189 11.0201 59.7519 11.0201C58.511 11.0201 57.2701 10.9654 56.0347 10.9544C54.2628 10.9544 54.2086 10.9545 54.2574 9.17066C54.2574 8.31159 53.9648 8.18024 53.217 8.18571C50.8382 8.21307 48.4648 8.18573 46.0914 8.14196C46.0914 7.53459 46.0914 6.92173 46.0914 6.31436C46.0914 5.70699 46.0047 5.5483 45.4033 5.55377C41.9895 5.59208 38.5758 5.59209 35.162 5.59756L32.5719 5.54285C32.5719 5.14888 32.5719 4.75489 32.5719 4.36092C32.5394 2.57712 32.8103 2.88354 31.0655 2.79052C30.1226 2.74127 29.6675 2.97658 29.8246 4.00528C29.8671 4.50381 29.8798 5.00447 29.8626 5.50455C26.8426 5.52643 23.8207 5.54466 20.7971 5.55925C19.0252 5.55925 18.9927 5.55924 19.0144 7.33211C19.0144 8.03797 18.8247 8.24044 18.1257 8.22949C16.3538 8.22949 16.3538 8.22948 16.3159 10.1008C16.3105 10.1719 16.3105 10.2432 16.3159 10.3142C16.3972 10.8614 16.1208 10.949 15.6386 10.9654C13.6228 11.042 13.6228 11.0584 13.6228 13.1541C13.6228 13.2964 13.6228 13.4386 13.6228 13.5864C13.5606 13.6173 13.4952 13.6411 13.4277 13.6575C12.5987 13.7724 11.4608 13.2909 11.011 13.8764C10.5613 14.4619 10.8647 15.5179 10.8376 16.3551C10.347 16.3907 9.85441 16.3907 9.36375 16.3551C8.43716 16.2457 8.06327 16.5193 8.12287 17.548C8.20415 18.9542 8.12287 20.3769 8.07411 21.7886C5.42438 21.7886 5.42438 21.7886 5.54901 24.5245C5.52733 27.2495 5.50385 29.9726 5.47856 32.6939C2.61751 32.7541 2.61751 32.7541 2.76923 35.5119V43.4898V51.6975C2.76923 52.3432 2.76924 52.9943 2.72589 53.6345C2.65545 54.3841 2.99681 54.5647 3.66331 54.5209C4.3298 54.4772 4.87167 54.5209 5.47856 54.5209C5.47856 56.3157 5.5165 58.1104 5.53275 59.8997V62.6958C5.53275 63.6151 5.50566 64.5398 5.53275 65.4317C5.57068 68.0089 5.57611 68.0089 8.09579 68.0472C8.16623 69.8694 7.97656 71.6915 8.19873 73.519C8.19873 74.1976 8.19873 74.8815 8.1337 75.56C8.09577 76.1072 8.33962 76.2057 8.82188 76.2276C10.881 76.3315 10.8756 76.3479 10.8701 78.4163C10.8701 78.5586 10.8701 78.7008 10.8701 78.8431C10.8701 81.6392 10.8701 81.6392 13.612 81.6392V85.0864C13.612 86.9687 13.612 86.9797 15.4543 87.0289C15.9149 87.0289 16.2671 87.0289 16.278 87.6746C16.2888 88.3203 15.9095 89.3161 16.473 89.6937C17.0366 90.0712 17.8494 89.7867 18.5592 89.7977H18.9873C18.9873 90.3722 19.0361 90.9467 18.9873 91.5158C18.9331 92.1943 19.1282 92.4405 19.8597 92.435C21.702 92.435 21.7508 92.4351 21.7021 94.3229C21.7021 95.1382 21.9947 95.2257 22.6774 95.2148C26.0478 95.1819 29.4182 95.2148 32.7886 95.2148C33.5635 95.2148 34.5443 95.4555 35.0645 95.078C35.5847 94.7004 35.1837 93.617 35.2704 92.8509L35.3191 92.4242C35.5305 92.4242 35.7418 92.457 35.9531 92.457C37.8876 92.457 37.9093 92.457 37.9797 90.4981C37.9797 89.9509 38.1693 89.7813 38.7112 89.7594C40.7595 89.6718 40.7595 89.65 40.7378 87.5707C40.7378 87.3901 40.7378 87.215 40.7053 87.0235C40.7053 86.3778 40.7649 85.7321 40.7053 85.0919C40.6457 84.4517 40.9275 84.2438 41.5669 84.2383C43.5013 84.2383 43.5067 84.189 43.4525 82.1864C43.4525 82.0113 43.4146 81.8307 43.3984 81.6392C41.8703 81.6392 40.3477 81.6392 38.825 81.5954C40.3477 81.6502 41.8703 81.6282 43.3984 81.6392C43.458 80.6871 43.6259 79.7296 43.2954 78.7939C43.2954 77.9293 43.2954 77.0703 43.2954 76.2057H49.5919C51.716 76.2057 51.6564 76.4574 51.5805 74.3015C51.5805 73.5464 51.884 73.4096 52.5342 73.4205C54.3441 73.4534 56.1593 73.4205 57.9529 73.4205C60.0391 73.4205 59.7681 73.6504 59.7194 71.6915C59.7194 70.7722 60.0499 70.6354 60.8356 70.6464C63.572 70.6792 66.3085 70.6464 69.0449 70.6464C70.7843 70.6464 70.6217 70.7722 70.5675 69.0814C70.535 68.2114 70.8276 67.9871 71.6513 67.9871C74.2468 68.0363 76.8424 67.9871 79.4379 67.9871C81.2586 67.9871 81.2856 67.987 81.2856 66.1157C81.2856 65.4262 81.4699 65.1581 82.1852 65.1855C83.464 65.2348 84.7482 65.1855 86.027 65.1855C86.6285 65.1855 86.8723 64.9831 86.8235 64.3757C86.791 63.9817 86.8235 63.5877 86.8235 63.1938C86.8235 62.7998 87.0186 62.5754 87.4629 62.5481C88.0861 62.5043 88.8935 62.8599 89.289 62.3401C89.6846 61.8203 89.3757 61.016 89.4191 60.343C89.4191 60.1624 89.4191 59.9818 89.4191 59.7958C90.2915 59.6535 91.4185 60.1678 91.9767 59.566C92.5348 58.9641 92.1501 57.9244 92.1663 57.038ZM5.50567 46.253H8.05785C8.22279 45.996 8.31806 45.6998 8.33419 45.394C8.31806 45.6998 8.22279 45.996 8.05785 46.253H5.50567ZM13.6337 40.152C13.6337 40.3654 13.6337 40.6007 13.6337 40.8579C13.6174 40.6007 13.6174 40.3654 13.612 40.152H13.6337ZM43.5338 49.0601C43.5393 49.0037 43.5393 48.9469 43.5338 48.8905L51.6618 48.8248L43.5338 48.8905C43.5393 48.9469 43.5393 49.0037 43.5338 49.0601H43.3225C42.9811 49.0601 42.6289 49.0874 42.2875 49.0601C42.6289 49.0601 42.9811 49.0601 43.3225 49.0601H43.5338ZM67.9178 43.4679C67.9178 43.063 67.8853 42.6581 67.8907 42.2586C67.8365 42.669 67.8636 43.063 67.869 43.4679H67.9178ZM53.4012 46.2421H54.2519L62.342 46.2093L54.2519 46.2421C54.2519 46.2804 54.2519 46.3132 54.2519 46.3515C54.2519 46.3898 54.2519 46.2804 54.2519 46.2421H53.4012ZM35.3842 48.8576H29.868H35.3842ZM49.9278 27.348C49.8457 27.3545 49.7642 27.3673 49.684 27.3863C49.7642 27.3673 49.8457 27.3545 49.9278 27.348ZM32.4093 46.2585C30.632 46.2585 28.8547 46.2585 27.0774 46.2585C27.0774 45.7551 27.0286 45.2517 27.0774 44.7483C27.0448 45.2517 27.0774 45.7551 27.0774 46.2585C28.8547 46.2476 30.6266 46.2312 32.4093 46.2476V46.2585ZM13.612 51.6537C13.612 51.993 13.5849 52.3322 13.5849 52.6715C13.5849 52.3322 13.5849 51.993 13.612 51.6537ZM20.9272 54.3349C20.8005 54.3653 20.672 54.3872 20.5425 54.4006C20.6756 54.3877 20.8078 54.3658 20.938 54.3349H20.9272ZM35.1783 59.8286H18.0932H35.1783ZM77.8069 59.8286H77.4384H77.8069ZM35.1674 19.9446C35.1674 19.6601 35.1674 19.3975 35.1674 19.0856C35.1783 19.3865 35.1783 19.6875 35.1783 19.961L35.1674 19.9446ZM13.5361 39.0959C13.5529 39.1937 13.5637 39.2923 13.5686 39.3914C13.5686 39.5501 13.5686 39.7252 13.5686 39.9386C13.5686 39.7361 13.5686 39.561 13.5686 39.3914C13.5637 39.2923 13.5529 39.1937 13.5361 39.0959C13.5361 39.0084 13.5036 38.9263 13.4819 38.8497C13.5144 38.9482 13.5307 39.0303 13.547 39.1178L13.5361 39.0959ZM13.4115 38.6473C13.3816 38.5898 13.3472 38.5349 13.3085 38.4831C13.352 38.5415 13.3901 38.6038 13.4223 38.6691L13.4115 38.6473ZM28.9901 73.3932H37.9309H37.9689H37.9309H28.9901ZM75.9483 62.5974C75.9483 60.8573 75.9483 60.2061 76.6364 59.9544C76.7092 59.9298 76.7834 59.9097 76.8586 59.8942C76.7834 59.9097 76.7092 59.9298 76.6364 59.9544C75.9645 60.2061 75.9591 60.8573 75.9483 62.5974ZM77.2759 59.8615L76.9887 59.8997L77.2759 59.8615ZM13.6228 15.8572C13.6228 16.6287 13.6228 17.4002 13.6228 18.1717C13.6228 17.3729 13.6228 16.6014 13.6228 15.8572ZM8.74602 24.5136C8.52927 24.5136 8.31794 24.5136 8.10662 24.5136C8.31794 24.4753 8.52927 24.4862 8.74602 24.4862V24.5136ZM5.49482 35.0304C5.49482 35.1179 5.49482 35.2055 5.49482 35.2876H8.047V38.0782H8.08494L10.7943 38.1055L8.08494 38.0782H8.047V35.2876H5.49482C5.49482 35.3642 5.49482 35.4408 5.49482 35.5119C5.49482 35.4408 5.49482 35.3642 5.49482 35.2876C5.49482 35.211 5.49482 35.0906 5.49482 35.0085V35.0304Z" stroke="#161616" stroke-width="10" stroke-miterlimit="10"/>
<path d="M13.6166 13.5208C13.6166 13.3785 13.6166 13.2308 13.6166 13.0885C13.6166 11.0093 13.6166 10.9928 15.6324 10.8998C16.1146 10.8998 16.391 10.7958 16.3097 10.2487C16.3043 10.1776 16.3043 10.1063 16.3097 10.0353C16.3476 8.18032 16.3476 8.14202 18.1195 8.16391C18.8185 8.16391 19.019 7.97239 19.0082 7.26653C19.0082 5.49914 19.0082 5.50461 20.7909 5.49367C23.8145 5.49367 26.8364 5.47544 29.8564 5.43896L32.5657 5.47727L35.1558 5.53198C35.1558 5.71255 35.1558 5.89312 35.1558 6.07916C35.1558 7.95599 35.1558 7.9943 33.3297 8.0709C32.5657 8.10373 32.5657 8.52505 32.5928 9.05582C32.7228 11.8355 32.3381 14.6042 32.3652 17.3839C32.3652 19.0911 32.3165 19.0911 33.9908 19.0911H35.1612V21.6628C35.1612 23.1676 35.1125 24.6778 35.1612 26.1771C35.1883 26.9924 34.9932 27.3316 34.1046 27.2714C32.3869 27.2058 32.5548 27.1237 32.609 28.8309C32.609 29.6517 32.3544 29.8706 31.5687 29.8596C29.8347 29.8268 29.8347 29.8596 29.813 31.6051C29.813 31.7857 29.813 31.9663 29.813 32.1523C29.813 32.4533 29.6504 32.5736 29.3633 32.6448C27.6401 33.0551 27.0712 32.6448 27.0495 30.9047C27.0495 30.8336 27.0495 30.757 27.0495 30.6858C27.1362 30.0073 26.8056 29.8213 26.1825 29.8432C25.1855 29.876 24.1938 29.8432 23.1968 29.8432C21.5224 29.8432 21.6796 29.9636 21.7284 28.3439C21.7284 27.5122 21.5279 27.2113 20.6446 27.2496C18.9323 27.2988 18.9323 27.2496 18.9161 25.5807C18.9161 25.5095 18.9161 25.4329 18.9161 25.3673C19.0136 24.6505 18.6885 24.3878 18.0058 24.4589C17.6448 24.4787 17.283 24.4787 16.922 24.4589C16.6023 24.4589 16.3802 24.355 16.3802 23.9774C16.3081 23.0948 16.29 22.2085 16.326 21.3236C16.5373 19.1349 16.5752 19.1349 14.4511 19.0911C13.7033 19.0911 13.5679 18.7737 13.5787 18.1226C13.6383 16.6014 13.6166 15.0584 13.6166 13.5208Z" fill="#86271B"/>
<path d="M8.06836 21.734C8.06836 20.3223 8.19841 18.8996 8.11713 17.4934C8.05752 16.4647 8.43141 16.1911 9.358 16.3005C9.84866 16.3361 10.3412 16.3361 10.8319 16.3005C10.8319 17.4496 10.8319 18.5987 10.8319 19.7478C10.8319 21.6301 10.8319 21.6629 12.7338 21.6793C13.4654 21.6793 13.6442 21.9639 13.6171 22.6369C13.5737 23.6054 13.6171 24.5739 13.6171 25.5424C13.6171 27.2442 13.6171 27.2825 15.286 27.2825C15.9959 27.2825 16.1909 27.5341 16.1964 28.2236C16.1964 29.4712 16.3481 30.7133 16.3806 31.9663C16.3806 32.5409 16.6299 32.7269 17.1555 32.6941C17.4752 32.6941 17.8003 32.6941 18.1145 32.6941C18.781 32.6284 18.9815 32.9294 18.9653 33.5696C18.9274 34.7898 18.9653 36.01 18.9653 37.2302C18.9653 37.8978 19.1875 38.1057 19.8323 38.0947C21.7884 38.0619 23.7445 38.0947 25.7007 38.0947C27.077 38.0947 27.0608 38.0947 27.0987 36.7049C27.0987 36.3109 26.8657 35.6871 27.3967 35.6105C28.1237 35.4394 28.8814 35.4525 29.6021 35.6488C30.144 35.8349 29.8676 36.6173 29.8405 37.1153C29.7864 37.9525 30.1115 38.1714 30.8918 38.1331C32.0243 38.0783 33.1676 38.0838 34.3001 38.1331C35.0045 38.1331 35.243 37.9087 35.2105 37.2028C35.1689 35.0577 35.2358 32.9118 35.4109 30.7735C35.438 30.3029 35.4434 29.9691 36.0666 29.9144C37.9685 29.7557 37.9631 29.7284 37.974 27.7695C37.974 27.6272 37.974 27.4849 37.974 27.3372H40.7158C40.7158 28.2017 40.7646 29.0662 40.7862 29.9308C40.7862 31.7146 40.7862 33.4984 40.7592 35.2877C40.7592 36.2234 40.7592 37.1591 40.7592 38.0947C40.7592 40.8234 40.7592 43.5501 40.7592 46.2751H38.001C38.001 45.6294 38.001 44.9892 38.001 44.3435C38.02 44.167 37.9758 43.9894 37.8764 43.8429C37.777 43.6964 37.629 43.5906 37.4592 43.5446C36.0178 43.0248 35.2321 43.5447 35.2267 45.0439C35.2267 45.1151 35.2267 45.1862 35.2267 45.2573C35.3459 46.0398 35.0424 46.3189 34.2351 46.3025C31.8671 46.2477 29.4937 46.2751 27.1258 46.2696C27.0906 45.6956 27.0906 45.12 27.1258 44.546C27.2233 43.6705 26.8657 43.4516 26.0421 43.4516C23.9775 43.5009 21.913 43.4516 19.8539 43.4516C19.1983 43.4516 18.9273 43.2382 18.9978 42.5816C18.9978 42.3354 18.9978 42.0782 18.9978 41.8265C19.0899 41.0824 18.7919 40.8197 18.0387 40.8416C16.5811 40.8908 15.1235 40.8416 13.6604 40.8416C13.6604 38.0783 13.6604 38.0783 10.8915 38.0346V26.5438C10.8915 24.4864 10.8915 24.4864 8.80531 24.4699C8.58856 24.4699 8.37722 24.4699 8.16589 24.4699H8.12797L8.06836 21.734Z" fill="#D75135"/>
<path d="M89.4347 35.2549C90.0686 35.2549 90.708 35.3479 91.342 35.3096C91.976 35.2713 92.1819 35.5285 92.1819 36.1741C92.1548 39.5338 92.1819 42.8935 92.1819 46.2477C91.5046 46.2477 90.8272 46.2751 90.1553 46.2477C89.6134 46.2477 89.3805 46.4721 89.4184 47.0193C89.4184 47.3366 89.4184 47.6649 89.4184 47.9823C89.478 48.6444 89.2071 48.8468 88.5622 48.8578C85.7608 48.8961 82.9593 49 80.1633 49.0548C78.5648 49.0821 78.5377 49.0548 78.5377 50.6963C78.5377 51.4842 78.2451 51.6758 77.5353 51.6429C76.5436 51.5992 75.5466 51.6429 74.5496 51.6429C73.2003 51.6429 73.2003 51.6429 73.1787 53.0492C73.1787 53.5963 73.2708 54.253 72.4634 54.2037C71.3146 54.1381 70.2092 54.45 69.0767 54.4445C66.4433 54.4445 63.8152 54.4445 61.1817 54.4445C59.735 54.4445 59.6862 54.4445 59.7404 55.8726C59.7729 56.7317 59.567 57.06 58.6566 57.0491C53.6119 57.0053 48.5617 57.0491 43.4844 57.0491C43.4844 56.1845 43.4844 55.32 43.4844 54.4554H47.1149C48.8163 54.4554 48.8597 54.4554 48.8164 52.7318C48.8164 51.8837 49.0494 51.6375 49.9001 51.6375C53.4872 51.6812 57.0798 51.6375 60.6724 51.6375C62.5418 51.6375 62.298 51.7688 62.2709 50.0451C62.2709 49.3283 62.4335 49.0165 63.2137 49.0329C65.1282 49.0857 67.044 49.0291 68.9521 48.8633C70.5777 48.721 70.6156 48.8304 70.5777 47.2217C70.5777 46.4721 70.7999 46.2204 71.5476 46.2423C73.325 46.286 75.1023 46.2423 76.8796 46.2423C78.6569 46.2423 78.5052 46.4009 78.5052 44.65C78.5052 43.6924 78.8249 43.3805 79.7461 43.4298C80.9165 43.4899 82.0924 43.4298 83.2628 43.4298C83.7505 43.4298 84.0431 43.3586 84.0918 42.7458C84.2327 40.8416 84.2598 40.847 86.1293 40.8416H86.6711C89.4563 40.8416 89.4563 40.8416 89.413 38.0236C89.4184 37.1208 89.4238 36.1851 89.4347 35.2549Z" fill="#EBFC72"/>
<path d="M43.5008 57.0327C48.551 57.0327 53.6012 57.0327 58.6731 57.0327C59.6051 57.0327 59.811 56.7153 59.7568 55.8562C59.7026 54.4281 59.7568 54.4281 61.1982 54.4281C63.8316 54.4281 66.4597 54.4281 69.0931 54.4281C70.2257 54.4281 71.3311 54.1216 72.4798 54.1873C73.2872 54.2366 73.1842 53.569 73.1951 53.0328C73.1951 51.6265 73.1951 51.6265 74.566 51.6265C75.5631 51.6265 76.5601 51.5882 77.5517 51.6265C78.2615 51.6593 78.565 51.4678 78.5541 50.6799C78.5541 49.0384 78.5541 49.0384 80.1797 49.0384C82.9758 48.9836 85.7772 48.8797 88.5787 48.8414C89.2235 48.8414 89.4944 48.628 89.4348 47.9659C89.4023 47.6485 89.4348 47.3202 89.4348 47.0028C89.3969 46.4556 89.6082 46.2094 90.1718 46.2313C90.8437 46.2587 91.521 46.2313 92.1983 46.2313V51.621H88.6762C86.9422 51.621 86.9097 51.621 86.9043 53.372C86.9043 54.1654 86.6225 54.4664 85.8206 54.4335C84.8289 54.3898 83.8319 54.4335 82.8349 54.4335C81.1605 54.4335 81.2743 54.3022 81.3447 55.9164C81.3827 56.8521 81.0359 57.0436 80.1797 57.0107C75.6985 56.9724 71.2173 57.0107 66.736 57.0107C65.1104 57.0107 65.0454 57.0107 65.1104 58.6523C65.1592 59.6536 64.7853 59.8397 63.8858 59.8233C60.9706 59.774 58.0553 59.8233 55.1401 59.8233C54.6741 59.8233 54.2406 59.7467 54.181 60.4799C54.0238 62.4115 53.9913 62.4059 52.0569 62.4059H51.6342C48.8707 62.4059 48.8707 62.406 48.849 65.1966C47.4673 65.1966 46.0855 65.2732 44.7092 65.1966C43.685 65.1309 43.4575 65.5304 43.4954 66.477C43.5604 68.0146 43.4954 68.0145 42.0053 68.02C41.8319 68.02 41.653 68.02 41.4634 68.02C40.9215 67.9708 40.7481 68.2279 40.7156 68.7696C40.6235 70.6136 40.6072 70.6137 38.7378 70.6082H37.99C37.99 69.7492 37.9629 68.8955 37.9467 68.0364C37.9304 67.1774 37.9467 66.1651 37.9467 65.2294C38.488 65.1954 39.0309 65.1954 39.5723 65.2294C40.5043 65.3443 40.8185 65.0106 40.7698 64.0421C40.6939 62.4388 40.6777 62.6248 42.2166 62.6303C42.7585 62.6303 43.3003 62.6303 43.3003 61.8369C43.3003 60.2282 43.6634 58.6359 43.5117 57.0162L43.5008 57.0327Z" fill="#CDFA7C"/>
<path d="M89.4348 35.2548C89.4348 36.185 89.4348 37.1207 89.4348 38.0509C88.0855 38.0509 86.7254 38.1275 85.387 38.0509C84.3574 37.9852 83.9294 38.319 84.1028 39.3586C84.2762 40.3983 83.8914 40.7102 82.8402 40.6992C81.789 40.6883 81.4151 40.3381 81.5398 39.3148C81.577 38.7793 81.5164 38.2414 81.3609 37.728C81.1821 37.0167 81.7132 35.9989 81.0629 35.6214C80.4127 35.2438 79.5403 35.5174 78.76 35.4955C78.76 34.817 78.76 34.1331 78.76 33.4491C78.76 32.9019 78.5812 32.6721 78.0176 32.6885C77.0585 32.6885 76.0994 32.6885 75.1403 32.6885C73.2763 32.6885 73.2383 32.6885 73.2221 30.7734C73.2221 30.0347 72.9403 29.8541 72.2738 29.8815C71.1359 29.9198 69.998 29.8432 68.8601 29.8815C68.0419 29.9307 67.8251 29.6243 67.8468 28.8363C67.8847 27.1948 68.1015 27.2824 66.3241 27.2769C66.1453 27.2769 65.9665 27.2769 65.7823 27.2769C65.2892 27.2441 65.0562 27.4575 65.0833 27.9663C65.0833 28.2892 65.0833 28.6175 65.0833 28.9349C65.1537 29.6243 64.9044 29.9088 64.1838 29.8705C63.2301 29.8213 62.2656 29.8705 61.3065 29.8705C59.54 29.8705 59.6809 30.0183 59.7567 28.3439C59.7567 27.4575 59.4695 27.2495 58.673 27.2495C56.2508 27.2988 53.8341 27.2495 51.4174 27.2495C48.8706 27.2495 48.8706 27.2495 48.8598 29.8322H40.786C40.786 28.9677 40.7372 28.1031 40.7155 27.2386C40.6939 26.374 40.7155 25.3672 40.7589 24.4315C43.1756 24.4315 45.5923 24.4315 48.0145 24.4315C48.6593 24.4315 48.9356 24.2291 48.8706 23.567C48.8381 23.2825 48.8706 22.9925 48.8706 22.7079C48.8056 22.0568 49.0603 21.8051 49.7213 21.8324C50.713 21.8762 51.71 21.8324 52.707 21.8324C54.3868 21.8324 54.2405 21.6957 54.1917 23.3208C54.1917 24.1361 54.3706 24.4644 55.2755 24.4151C57.2262 24.3495 59.1878 24.4151 61.1439 24.4151C62.5528 24.4151 62.5365 24.4151 62.569 25.8871C62.569 26.2537 62.3631 26.8282 62.8454 26.9212C63.5001 27.0855 64.1847 27.0855 64.8394 26.9212C65.3813 26.7406 65.1266 26.0238 65.0995 25.5697C65.0345 24.6778 65.3325 24.2893 66.2266 24.4315C66.3326 24.448 66.4403 24.448 66.5463 24.4315C67.5867 24.2619 68.1123 24.6121 67.901 25.7557C67.7113 26.8118 68.1827 27.1127 69.196 27.0471C70.5019 26.9595 70.6103 26.9048 70.6862 25.5642C70.6862 25.1593 70.4206 24.6012 71.1522 24.4698C72.7778 24.1142 73.2221 24.4698 73.2384 26.1114C73.2438 26.1824 73.2438 26.2538 73.2384 26.3248C73.1517 27.0142 73.4226 27.2933 74.1324 27.2605C75.162 27.2112 76.1969 27.2605 77.2265 27.2605C78.993 27.2605 78.8521 27.1182 78.7708 28.7926C78.7383 29.6954 79.0797 29.8869 79.8545 29.8541C81.2742 29.8049 82.6993 29.8541 84.1244 29.8541H86.8338L86.8717 29.8815C86.8717 29.9526 86.8717 30.0237 86.8717 30.0949C86.9205 32.6393 86.9205 32.6392 89.4348 32.6338V35.2548Z" fill="#EBC15A"/>
<path d="M43.4093 81.6448C43.4093 81.8199 43.4581 82.0005 43.4635 82.192C43.5177 84.1947 43.5123 84.222 41.5778 84.2439C40.9384 84.2439 40.6729 84.4191 40.7162 85.0976C40.7596 85.7761 40.7162 86.3834 40.7162 87.0291C38.3374 87.0291 35.9532 86.9907 33.5744 87.0291C32.8213 87.0291 32.5991 86.7938 32.6153 86.0442C32.6533 83.9649 32.6153 81.8856 32.6153 79.8063C32.6153 79.4835 32.7725 79.0786 32.3173 78.8761C31.0114 78.2961 29.7922 79.002 29.8735 80.3863C29.9331 81.3932 29.5971 81.6448 28.6272 81.6339C23.6204 81.5956 18.6081 81.6339 13.6012 81.6339C10.8431 81.6339 10.8431 81.6339 10.8594 78.8378C10.8594 78.6955 10.8594 78.5532 10.8594 78.411C10.8594 76.3207 10.8594 76.3043 8.81115 76.2223C8.32889 76.2223 8.08505 76.0855 8.12298 75.5547C8.16633 74.8762 8.17175 74.1922 8.188 73.5137C8.82741 73.5137 9.46681 73.5138 10.1008 73.47C10.7348 73.4262 10.8811 73.6779 10.8377 74.2306C10.8377 74.5151 10.8377 74.8051 10.8377 75.0841C10.7565 75.8228 11.0274 76.1019 11.786 76.08C13.7042 76.0308 15.617 76.08 17.5352 76.0472C18.9603 76.0472 19.0091 76.0472 18.9495 74.6026C18.917 73.7162 19.1771 73.4426 20.0766 73.4481C26.0371 73.4864 31.9976 73.4481 37.9582 73.4481V76.2168C37.3567 76.2168 36.7552 76.2551 36.1537 76.2168C35.5523 76.1785 35.406 76.4302 35.4114 76.9774C35.4114 79.1661 35.4114 81.3548 35.4114 83.5435C35.4114 83.7898 35.3735 84.1345 35.6877 84.1618C36.3478 84.2743 37.0218 84.2743 37.6818 84.1618C38.2237 84.0141 37.8769 83.3521 37.9582 82.9198C37.9771 82.8149 37.9771 82.7073 37.9582 82.6024C37.8715 81.9129 38.1369 81.6448 38.8468 81.6667C40.3803 81.6558 41.8813 81.6339 43.4093 81.6448Z" fill="#71BAF3"/>
<path d="M37.9578 27.2824C37.9578 27.4301 37.9578 27.5724 37.9578 27.7147C37.9578 29.6736 37.9578 29.7009 36.0504 29.8596C35.4273 29.9143 35.4219 30.2481 35.3948 30.7187C35.2196 32.857 35.1527 35.0029 35.1943 37.148C35.2268 37.8539 34.9884 38.1056 34.284 38.0783C33.1515 38.029 32.0081 38.0235 30.8756 38.0783C30.0953 38.1166 29.7919 37.8977 29.8244 37.0605C29.8244 36.5626 30.1278 35.7801 29.586 35.5941C28.8635 35.3969 28.1039 35.3837 27.3752 35.5558C26.8333 35.6543 27.0826 36.278 27.0771 36.6501C27.0392 38.04 27.0771 38.0399 25.6791 38.0399C23.723 38.0399 21.7668 38.0399 19.8107 38.0399C19.1659 38.0399 18.922 37.843 18.9437 37.1754C18.9817 35.9552 18.9437 34.735 18.9437 33.5148C18.9437 32.8746 18.7595 32.5736 18.093 32.6393C17.7787 32.6776 17.4536 32.6393 17.1339 32.6393C16.592 32.6721 16.3698 32.4861 16.359 31.9116C16.3265 30.6585 16.1802 29.4164 16.1748 28.1688C16.1748 27.4794 15.9743 27.2277 15.2645 27.2277C13.5955 27.2277 13.5955 27.1894 13.5955 25.4876C13.5955 24.5191 13.563 23.5506 13.5955 22.5821C13.6226 21.9091 13.4438 21.63 12.7123 21.6245C10.8103 21.6245 10.8103 21.5753 10.8103 19.693C10.8103 18.5439 10.8103 17.3949 10.8103 16.2458C10.8103 15.3977 10.561 14.3087 10.9837 13.767C11.4064 13.2253 12.5714 13.6631 13.4004 13.5482C13.4678 13.5318 13.5333 13.5079 13.5955 13.4771C13.5955 15.0146 13.5955 16.5576 13.5955 18.1007C13.5955 18.7518 13.7201 19.0583 14.4679 19.0692C16.592 19.0692 16.5541 19.1294 16.3428 21.3017C16.3068 22.1866 16.3249 23.0729 16.3969 23.9555C16.3969 24.3331 16.6462 24.4316 16.9388 24.4371C17.2998 24.4568 17.6616 24.4568 18.0225 24.4371C18.7053 24.3659 19.0304 24.6286 18.9329 25.3454C18.9329 25.4111 18.9329 25.4876 18.9329 25.5588C18.9329 27.2277 18.9329 27.2769 20.6614 27.2277C21.5284 27.2003 21.7452 27.5013 21.7452 28.3221C21.6964 29.9636 21.5393 29.8159 23.2136 29.8213C24.2107 29.8213 25.2023 29.8213 26.1993 29.8213C26.8225 29.8213 27.153 29.9855 27.0663 30.664C27.0663 30.7351 27.0663 30.8117 27.0663 30.8829C27.0663 32.6119 27.6569 33.0333 29.3801 32.6229C29.6673 32.5518 29.8244 32.4314 29.8298 32.1304C29.8298 31.9553 29.8298 31.7747 29.8298 31.5832C29.8298 29.8432 29.8298 29.8049 31.5855 29.8377C32.3712 29.8377 32.6692 29.6298 32.6258 28.809C32.5717 27.1018 32.4037 27.1675 34.1214 27.2496C35.0101 27.2879 35.2051 26.9486 35.178 26.1552C35.1293 24.6559 35.178 23.1457 35.178 21.641H37.9361C37.9524 23.5561 37.9524 25.422 37.9578 27.2824Z" fill="#B73929"/>
<path d="M37.9577 27.2823C37.9577 25.4219 37.9577 23.556 37.9577 21.6901C37.9577 20.3276 38.0282 18.9542 37.9577 17.6082C37.8981 16.5959 38.1799 16.2566 39.2311 16.273C43.8478 16.3278 48.4428 16.2731 53.0812 16.3114C53.9536 16.3114 54.2625 16.087 54.2245 15.1732C54.1649 13.7068 54.2245 13.7013 55.7255 13.7068C55.9368 13.7068 56.1536 13.7068 56.3649 13.7068C56.8309 13.7068 56.9501 13.9311 56.9881 14.3634C57.1723 16.2895 57.1831 16.2894 59.1176 16.2894H59.757C62.3309 16.2894 62.3309 16.2895 62.3146 13.7286L62.553 13.6411L65.1161 13.7068C65.0727 16.3387 65.0727 16.3387 67.6411 16.284C67.717 16.284 67.7875 16.284 67.8579 16.284L70.6431 16.377C70.681 19.1622 70.681 19.1622 73.2495 19.1129H73.4608C74.2573 19.1403 75.314 18.8667 75.7908 19.2771C76.3598 19.7695 75.91 20.8694 75.9859 21.7065H63.7939C62.1087 21.7065 62.3254 21.8215 62.2929 20.2018C62.2929 19.8461 62.5043 19.2771 61.9786 19.195C61.3201 19.0474 60.6361 19.0625 59.9846 19.2388C59.4698 19.4193 59.822 20.1416 59.7353 20.6122C59.6703 20.9733 59.9358 21.526 59.4319 21.6409C58.7079 21.8531 57.9374 21.8398 57.2211 21.6026C56.6792 21.3673 56.9556 20.6231 56.9827 20.1252C57.0368 19.2935 56.7171 19.0801 55.9369 19.102C54.0891 19.1567 52.2359 19.102 50.3881 19.102C48.5404 19.102 48.8167 18.9925 48.8655 20.6669C48.8655 21.4712 48.6379 21.7613 47.8359 21.7011C46.3783 21.6464 44.9207 21.7011 43.4631 21.7011C40.2986 21.7448 40.7538 21.1539 40.7538 24.5026C40.7538 25.4383 40.7537 26.374 40.7104 27.3097L37.9577 27.2823Z" fill="#DC743E"/>
<path d="M13.5898 81.612C18.5967 81.612 23.6089 81.5792 28.6158 81.612C29.5857 81.612 29.9217 81.3712 29.8621 80.3644C29.7808 78.9801 31 78.2742 32.3059 78.8542C32.7611 79.0567 32.6039 79.4615 32.6039 79.7844C32.6039 81.8637 32.6365 83.943 32.6039 86.0222C32.6039 86.7719 32.8098 87.0181 33.563 87.0072C35.9418 86.9689 38.326 87.0072 40.7048 87.0072C40.7048 87.1878 40.7048 87.3629 40.7373 87.5544C40.7373 89.6282 40.7373 89.6501 38.7108 89.7431C38.1689 89.7431 38.0009 89.9291 37.9793 90.4818C37.9088 92.4571 37.8871 92.4571 35.9527 92.4407C35.7413 92.4407 35.53 92.4407 35.3187 92.4079C33.7581 92.4079 32.1975 92.3805 30.6424 92.4079C30.0518 92.4079 29.7808 92.2273 29.835 91.6144C29.8621 91.2916 29.835 90.9633 29.835 90.646C29.9054 89.9675 29.5912 89.7814 28.9626 89.8033C27.8789 89.8416 26.7626 89.7595 25.668 89.8306C24.7143 89.8853 24.4434 89.4969 24.4705 88.5776C24.5085 86.8978 24.7198 87.04 22.9533 87.029C22.7745 87.029 22.5957 87.029 22.4114 87.029C21.9238 86.9907 21.6799 87.1987 21.7233 87.713C21.7233 87.8553 21.7233 87.9976 21.7233 88.1398C21.7233 89.7814 21.8587 89.6008 20.206 89.6063C19.7836 89.5547 19.3552 89.6249 18.9706 89.8088H18.5425C17.8327 89.8088 16.9548 90.0385 16.4563 89.7048C15.9578 89.371 16.2775 88.3806 16.2612 87.6857C16.245 86.9908 15.8982 87.0509 15.4376 87.04C13.5898 86.9907 13.5953 86.9798 13.5953 85.0975L13.5898 81.612Z" fill="#4473ED"/>
<path d="M62.2927 13.7288C62.2927 16.2951 62.2927 16.2951 59.7351 16.2896H59.0957C57.1612 16.2896 57.1504 16.2897 56.9662 14.3636C56.9282 13.9313 56.809 13.6851 56.343 13.707C56.1317 13.707 55.915 13.707 55.7036 13.707C54.1972 13.707 54.143 13.707 54.2027 15.1734C54.2406 16.0872 53.9317 16.317 53.0593 16.3115C48.4426 16.2732 43.8476 16.3115 39.2092 16.2732C38.158 16.2732 37.8762 16.5961 37.9358 17.6084C38.0171 18.9654 37.9358 20.3442 37.9358 21.6903H35.1777V19.1186C35.2265 16.7548 35.1777 14.3909 35.362 12.0052C35.4378 11.1133 35.6546 10.8397 36.527 10.878C37.9467 10.9382 38.0388 10.878 37.9358 9.44443C37.8491 8.26252 38.4777 8.26799 39.2905 8.30629C40.1033 8.34459 40.8673 8.09836 40.7644 9.43348C40.6506 10.889 40.7644 10.8999 42.157 10.8944C42.3683 10.8944 42.585 10.8944 42.7964 10.8944C43.2786 10.9273 43.4845 10.7358 43.5225 10.2214C43.5712 9.53197 43.1486 8.57989 43.7826 8.21328C44.3244 7.89591 45.1643 8.10929 45.8742 8.0874H46.0909C48.4643 8.0874 50.8377 8.15855 53.2164 8.13119C53.9642 8.13119 54.3002 8.25703 54.2568 9.11611C54.2081 10.8944 54.2568 10.889 56.0342 10.8999C57.2696 10.8999 58.5105 10.9437 59.7514 10.9656C59.6592 13.5811 59.6592 13.5811 62.1952 13.7015C62.2284 13.7077 62.261 13.7169 62.2927 13.7288Z" fill="#D75135"/>
<path d="M48.8389 65.2183C48.8389 62.4277 48.8389 62.4277 51.6241 62.4277H52.0467C53.9812 62.4277 54.0137 62.4277 54.1708 60.5016C54.2305 59.7684 54.6639 59.8451 55.1299 59.8451C58.0452 59.8451 60.9604 59.8122 63.8757 59.8451C64.7752 59.8451 65.149 59.6754 65.1003 58.6741C65.0244 57.0325 65.1003 57.0325 66.7259 57.0325C71.2071 57.0325 75.6883 57.0325 80.1696 57.0325C81.0257 57.0325 81.3725 56.8465 81.3346 55.9382C81.2642 54.2966 81.1504 54.4608 82.8247 54.4553C83.8218 54.4553 84.8188 54.4225 85.8104 54.4553C86.5961 54.4881 86.8942 54.1872 86.8942 53.3938C86.8942 51.6483 86.9321 51.6483 88.666 51.6428H92.1882V54.4444H91.9768C89.4246 54.4444 89.4247 54.4444 89.4518 57.038C87.8858 56.8684 86.3523 57.3061 84.7971 57.2459C84.2986 57.2459 84.0764 57.4375 84.1035 57.9409C84.1035 58.2254 84.1035 58.488 84.1035 58.7999C84.2065 59.5824 83.9247 59.8943 83.1065 59.8505C81.6543 59.7903 80.2021 59.8505 78.7716 59.8505C76.0297 59.8505 76.0297 59.8505 76.0081 62.6466C73.716 62.7779 71.4401 62.4168 69.1263 62.6083C66.5525 62.8162 63.9461 62.6521 61.356 62.6576C59.5895 62.6576 59.7304 62.5153 59.8062 64.1896C59.8387 65.0761 59.519 65.284 58.7225 65.284C55.4713 65.2457 52.1876 65.284 48.9202 65.284L48.8389 65.2183Z" fill="#B6F992"/>
<path d="M40.7432 24.4917C40.7432 21.1649 40.2988 21.7558 43.4525 21.6901C44.9101 21.6901 46.3677 21.6409 47.8254 21.6901C48.6273 21.723 48.8766 21.4603 48.8549 20.656C48.8061 18.9816 48.6002 19.0965 50.3776 19.091C52.1549 19.0855 54.0785 19.1238 55.9263 19.091C56.7065 19.091 57.01 19.2826 56.9721 20.1143C56.9721 20.6122 56.6686 21.3563 57.2105 21.5916C57.9268 21.8288 58.6973 21.8422 59.4213 21.6299C59.9252 21.515 59.6597 20.9624 59.7247 20.6012C59.8114 20.1307 59.4592 19.4084 59.974 19.2278C60.6255 19.0515 61.3096 19.0365 61.9681 19.1841C62.5099 19.2661 62.2715 19.8352 62.2823 20.1909C62.3149 21.8324 62.0981 21.6956 63.7833 21.6956H75.9536L78.5058 21.8105C78.5979 24.5464 78.5979 24.5464 81.3181 24.4753H81.5294C82.3531 24.5957 83.4531 24.0868 83.9353 24.7106C84.3309 25.2304 84.0491 26.281 84.0708 27.0963V29.865C82.6457 29.865 81.2206 29.8267 79.8009 29.865C78.9989 29.8978 78.6575 29.7063 78.7172 28.8035C78.7822 27.1291 78.9393 27.2768 77.1728 27.2714C76.1433 27.2714 75.1083 27.2331 74.0788 27.2714C73.3689 27.3042 73.098 27.0252 73.1847 26.3357C73.1901 26.2647 73.1901 26.1933 73.1847 26.1223C73.1847 24.4808 72.7241 24.1142 71.0985 24.4808C70.367 24.634 70.6542 25.1921 70.6325 25.5751C70.5567 26.9157 70.4483 26.9704 69.1424 27.058C68.1291 27.1236 67.6577 26.8227 67.8473 25.7666C68.0586 24.623 67.533 24.2728 66.4927 24.4425C66.3867 24.4589 66.2789 24.4589 66.1729 24.4425C65.2789 24.3002 64.9809 24.6887 65.0459 25.5806C65.073 26.0348 65.3493 26.7515 64.7858 26.9321C64.131 27.0964 63.4464 27.0964 62.7917 26.9321C62.3094 26.8391 62.5262 26.2646 62.5153 25.8979C62.4828 24.4315 62.5153 24.426 61.0902 24.426C59.1341 24.426 57.1726 24.3877 55.2218 24.426C54.3386 24.4589 54.1381 24.1305 54.1381 23.3317C54.1869 21.6901 54.3332 21.8488 52.6534 21.8433C51.6564 21.8433 50.6593 21.8707 49.6677 21.8433C49.0066 21.8433 48.752 22.0677 48.817 22.7188C48.817 23.0034 48.817 23.266 48.817 23.5779C48.882 24.24 48.6056 24.4534 47.9608 24.4425C45.5766 24.4643 43.1599 24.4862 40.7432 24.4917Z" fill="#DF954B"/>
<path d="M89.4401 59.8616C89.4401 60.0421 89.4401 60.2227 89.4401 60.4088C89.3967 61.0818 89.6948 61.8916 89.31 62.4059C88.9253 62.9203 88.1071 62.5701 87.4839 62.6138C87.0396 62.6138 86.8283 62.7999 86.8445 63.2595C86.8608 63.7192 86.8445 64.0475 86.8445 64.4415C86.8933 65.0488 86.6495 65.2677 86.048 65.2513C84.7692 65.2185 83.485 65.2513 82.2062 65.2513C81.4909 65.2513 81.3067 65.492 81.3067 66.1815C81.3067 68.0528 81.3067 68.0528 79.4589 68.0528C76.8634 68.0528 74.2678 68.0802 71.6723 68.0528C70.8432 68.0528 70.5506 68.2608 70.5885 69.1472C70.6427 70.838 70.8053 70.7067 69.0659 70.7121C66.3566 70.7121 63.593 70.745 60.8566 70.7121C60.0709 70.7121 59.7187 70.838 59.7404 71.7573C59.7891 73.7162 60.0601 73.4754 57.9739 73.4863C56.1641 73.4863 54.3488 73.4863 52.5552 73.4863C51.905 73.4863 51.5745 73.6122 51.6016 74.3673C51.6774 76.5232 51.737 76.2551 49.6129 76.2715H43.3164C43.674 75.6039 43.4952 74.8761 43.5115 74.1703C43.5115 73.6778 43.712 73.5028 44.2051 73.4645C46.0908 73.3167 46.0908 73.3003 46.0962 71.3305C46.0962 71.117 46.0962 70.8981 46.0962 70.6847H55.5843C56.9714 70.6847 57.0256 70.6848 56.9552 69.3004C56.9119 68.3648 57.1665 68.0747 58.131 68.0802C61.9946 68.0802 65.8635 68.206 69.727 67.8941C70.2038 67.8504 70.6048 67.8941 70.6536 67.1992C70.789 65.3005 70.8216 65.306 72.6964 65.3005H73.4333C76.0072 65.3005 76.0072 65.3005 75.9639 62.7069C79.3614 62.8875 82.748 62.3731 86.1455 62.499C86.6224 62.499 86.8229 62.3512 86.8716 61.8314C87.0342 59.9163 87.0504 59.9217 88.9957 59.9163H89.4184L89.4401 59.8616Z" fill="#98F5E0"/>
<path d="M37.9416 73.4206C31.9811 73.4206 26.0206 73.4206 20.06 73.4206C19.1605 73.4206 18.9004 73.6887 18.933 74.5752C18.9926 76.0197 18.933 76.0197 17.5187 76.0197C15.6005 76.0197 13.6877 76.0197 11.7695 76.0525C11.0109 76.0525 10.74 75.7953 10.8212 75.0566C10.8537 74.7776 10.8212 74.5095 10.8212 74.2031C10.8646 73.6559 10.6478 73.4096 10.0843 73.4425C9.52075 73.4753 8.8109 73.4753 8.1715 73.4862C7.94933 71.6696 8.13899 69.8475 8.06854 68.0144H9.02766C10.7508 68.0144 10.7833 68.0144 10.8104 69.749C10.8104 70.422 11.0596 70.6136 11.6882 70.6026C13.6118 70.6026 15.5355 70.6026 17.4537 70.6026C19.1335 70.6026 18.9763 70.7121 18.9275 69.0924C18.9275 68.2497 19.1443 67.998 20.0113 67.998C25.9718 68.0309 31.9703 67.998 37.9471 67.998C37.9471 68.8571 37.9796 69.7107 37.9904 70.5698V73.3713L37.9416 73.4206Z" fill="#98F5E0"/>
<path d="M18.9814 89.7924C19.3661 89.6085 19.7944 89.5383 20.2169 89.5899C21.8696 89.5899 21.7287 89.7486 21.7341 88.1235C21.7341 87.9812 21.7341 87.839 21.7341 87.6967C21.6908 87.1824 21.9346 86.9744 22.4223 87.0127C22.6011 87.0127 22.7799 87.0127 22.9641 87.0127C24.7306 87.0127 24.5193 86.8814 24.4814 88.5612C24.4814 89.4805 24.7252 89.869 25.6789 89.8143C26.7626 89.7432 27.8789 89.8143 28.9735 89.7869C29.602 89.7869 29.9163 89.9511 29.8459 90.6296C29.8133 90.947 29.8459 91.2753 29.8459 91.5981C29.7917 92.211 30.0626 92.4024 30.6532 92.3915C32.2084 92.3915 33.769 92.3915 35.3295 92.3915L35.2808 92.8183C35.1941 93.5844 35.633 94.6349 35.0749 95.0453C34.5168 95.4557 33.5739 95.1766 32.799 95.1821C29.4286 95.1821 26.0582 95.1821 22.6878 95.1821C22.005 95.1821 21.6908 95.1055 21.7124 94.2902C21.7612 92.4243 21.7125 92.3806 19.8701 92.4025C19.1386 92.4025 18.9435 92.1617 18.9977 91.4832C19.0302 90.9415 18.9814 90.3669 18.9814 89.7924Z" fill="#0F20EA"/>
<path d="M46.0853 8.09275H45.8685C45.1587 8.09275 44.3134 7.90123 43.7769 8.21859C43.143 8.60162 43.5656 9.53732 43.5168 10.2268C43.4789 10.7411 43.273 10.9326 42.7907 10.8998C42.5794 10.8998 42.3627 10.8998 42.1513 10.8998C40.7425 10.8998 40.6449 10.8998 40.7587 9.43883C40.8617 8.10371 40.0489 8.34447 39.2848 8.31164C38.5208 8.2788 37.8435 8.26784 37.9302 9.44975C38.0331 10.8834 37.9302 10.9435 36.5213 10.8834C35.6489 10.8451 35.4376 11.1186 35.3563 12.0105C35.145 14.3744 35.2209 16.7382 35.1721 19.1239H34.0016C32.3381 19.1239 32.376 19.1239 32.376 17.4167C32.376 14.637 32.7337 11.8683 32.6037 9.08862C32.6037 8.54144 32.6036 8.13654 33.3406 8.1037C35.1721 8.0271 35.1721 7.98879 35.1667 6.11196C35.1667 5.93139 35.1667 5.75082 35.1667 5.56478C38.5804 5.56478 41.9942 5.56477 45.408 5.521C46.0094 5.521 46.1286 5.75629 46.0961 6.28158C46.0636 6.80688 46.0853 7.48538 46.0853 8.09275Z" fill="#B73929"/>
<path d="M46.0802 70.6247C46.0802 70.8381 46.0802 71.057 46.0802 71.2704C46.0802 73.2402 46.0803 73.2567 44.1891 73.4044C43.696 73.4427 43.5118 73.6178 43.4955 74.1102C43.4955 74.8161 43.6581 75.5439 43.3005 76.2114C43.3005 77.076 43.3005 77.935 43.3005 78.7996H40.2227C37.9848 78.7996 37.9848 78.7996 37.9414 76.5014C37.9414 76.3974 37.9414 76.288 37.9414 76.1841V73.4153H38.0064C39.4857 73.4153 40.965 73.4153 42.4443 73.4153C42.9862 73.4153 43.2788 73.3332 43.3113 72.6766C43.4142 70.6028 43.4468 70.6028 45.5492 70.6137L46.0802 70.6247Z" fill="#A4F8B4"/>
<path d="M37.9251 76.1893C37.9251 76.2932 37.9251 76.4027 37.9251 76.5066C37.9685 78.8103 37.9685 78.8103 40.2064 78.8048H43.2842C43.6147 79.7405 43.4468 80.698 43.3872 81.6501C41.8591 81.6501 40.3364 81.6502 38.8138 81.6064C38.104 81.6064 37.8384 81.8526 37.9251 82.542C37.944 82.647 37.944 82.7544 37.9251 82.8594C37.8439 83.2916 38.1907 83.9537 37.6488 84.1015C36.9888 84.2139 36.3148 84.2139 35.6547 84.1015C35.3405 84.1015 35.3784 83.7294 35.3784 83.4832C35.3784 81.2944 35.3784 79.1057 35.3784 76.917C35.3784 76.3698 35.5626 76.1345 36.1207 76.1564C36.6789 76.1783 37.3237 76.1948 37.9251 76.1893Z" fill="#98F5E0"/>
<path d="M5.47266 32.6557C5.49433 29.9308 5.51781 27.2076 5.5431 24.4863H8.0682H8.10613C8.10613 27.4685 7.87855 30.4506 8.2416 33.4327C8.31746 34.0291 8.49627 34.7076 8.05194 35.2822H5.49976L5.47266 32.6557Z" fill="#DF954B"/>
<path d="M2.76367 43.4515V35.4736H5.473C5.473 36.3382 5.473 37.1973 5.473 38.0563V43.4461L2.76367 43.4515Z" fill="#EBFC72"/>
<path d="M5.52685 59.8341C5.52685 58.0448 5.48891 56.2501 5.47266 54.4553H5.51601L8.22535 54.4882L8.25243 57.0654V59.867L5.52685 59.8341Z" fill="#B6F992"/>
<path d="M2.76367 51.6374V46.2532H5.473V51.6429H5.42966L2.76367 51.6374Z" fill="#B6F992"/>
<path d="M8.07964 68.0092C5.55996 67.9709 5.55453 67.9708 5.5166 65.3936C5.5166 64.4744 5.5166 63.5496 5.5166 62.6577H8.06336C8.06336 63.5168 8.06337 64.3704 8.09047 65.2294V68.031L8.07964 68.0092Z" fill="#98F5E0"/>
<path d="M92.166 57.0381C92.166 57.9245 92.5508 59.0462 91.9981 59.6317C91.4454 60.2172 90.3128 59.7193 89.4404 59.8616V59.8342C89.4404 58.904 89.4404 57.9683 89.4404 57.0381H92.1823H92.166Z" fill="#98F5E0"/>
<path d="M32.5825 5.49375L29.8731 5.45544C29.8904 4.95537 29.8777 4.45471 29.8352 3.95617C29.6781 2.92747 30.1332 2.6922 31.0761 2.74145C32.8209 2.83447 32.55 2.52804 32.5825 4.31185C32.5662 4.70582 32.577 5.09978 32.5825 5.49375Z" fill="#DF954B"/>
<path d="M62.2927 13.7288C62.2584 13.7257 62.224 13.7257 62.1897 13.7288C59.6538 13.6029 59.6538 13.6029 59.7459 10.9929C60.6129 10.9929 61.6966 10.5716 62.2764 11.1789C62.8562 11.7863 62.2439 12.8205 62.5365 13.6631L62.2927 13.7288Z" fill="#EBC15A"/>
<path d="M2.76372 51.6375H5.47305C5.47305 52.5677 5.50015 53.4979 5.51099 54.4281H5.46764C4.86075 54.4281 4.25386 54.3898 3.65239 54.4281C3.05092 54.4664 2.64451 54.2913 2.71495 53.5416C2.77998 52.9343 2.75288 52.2831 2.76372 51.6375Z" fill="#A4F8B4"/>
<path d="M5.47859 35.4847H2.76926C2.61753 32.7488 2.61753 32.7488 5.47859 32.6667C5.47859 33.5368 5.4786 34.4068 5.50569 35.2713L5.47859 35.4847Z" fill="#F5E468"/>
<path d="M67.8362 16.2678C67.7658 16.2678 67.6953 16.2678 67.6195 16.2678C65.051 16.3225 65.051 16.3225 65.0944 13.6905C65.153 13.6508 65.2169 13.6195 65.284 13.5975C67.8254 13.3239 67.8254 13.3239 67.8362 16.2678Z" fill="#EBC15A"/>
<path d="M8.07412 62.6357H5.52734V59.8396H8.23667C8.16081 60.7753 8.49678 61.7328 8.07412 62.6357Z" fill="#A4F8B4"/>
<path d="M5.48863 46.2642H2.7793V43.4626H5.48863V46.2642Z" fill="#CDFA7C"/>
<path d="M81.3289 24.4644C78.6196 24.5574 78.6196 24.5574 78.5166 21.7997C81.2368 21.5698 81.2368 21.5698 81.3289 24.4644Z" fill="#EBC15A"/>
<path d="M84.0977 29.8705V27.1018L84.309 27.1346C86.872 27.2222 86.872 27.2222 86.8178 29.8705H84.0977Z" fill="#F5E468"/>
<path d="M8.06849 24.4808H5.54339C5.41877 21.7449 5.41877 21.7449 8.06849 21.7449V24.4808Z" fill="#EBC15A"/>
<path d="M73.2275 19.0748C70.659 19.1459 70.659 19.1459 70.6211 16.3389C73.157 16.1693 73.157 16.1693 73.2275 19.0748Z" fill="#DF954B"/>
<path d="M92.1657 57.038H89.4238C89.4238 54.4553 89.4238 54.4553 91.9489 54.4443H92.1602C92.1602 55.3034 92.1657 56.1734 92.1657 57.038Z" fill="#A4F8B4"/>
<path d="M89.4136 32.672C86.8993 32.672 86.8994 32.672 86.8506 30.1331C86.8506 30.062 86.8506 29.9908 86.8506 29.9197C89.9772 29.9416 89.4245 29.2795 89.4136 32.672Z" fill="#F5E468"/>
<path d="M40.7704 29.8926H48.8443C50.3019 29.8926 51.7595 29.9309 53.2117 29.8926C53.9378 29.8926 54.2954 30.0786 54.187 30.8556C54.1789 30.9977 54.1789 31.1403 54.187 31.2824C54.187 32.6996 54.187 32.6996 55.5417 32.7051H69.0884C70.8494 32.7051 70.6544 32.5902 70.6056 34.2645C70.6056 35.0689 70.8223 35.3589 71.6297 35.3096C73.2553 35.2495 74.8322 35.2713 76.4307 35.3096C77.2001 35.3096 77.9967 35.1181 78.7336 35.5121C78.7336 36.3657 78.7336 37.2193 78.7336 38.0729C78.7336 40.8854 78.7336 40.8854 75.9538 40.8964H75.2061C73.2553 40.8964 73.2012 40.8963 73.2066 38.9648C73.2066 37.9689 72.6322 38.0948 72.0253 38.0948C70.1884 38.0948 70.4268 38.2535 70.3997 36.508C70.3997 36.1468 70.5731 35.6981 70.0204 35.5176C68.5357 35.0361 67.6579 35.6215 67.6416 37.1591C67.6416 37.7063 67.6037 38.1167 66.8613 38.1057C64.7318 38.0729 62.5968 38.0784 60.4673 38.1057C59.9254 38.1057 59.6924 37.8814 59.7304 37.3397C59.7304 37.0552 59.7304 36.7597 59.7304 36.4806C59.8279 35.5942 59.4757 35.2549 58.5762 35.2878C55.8885 35.3972 53.1972 35.4701 50.5024 35.5066C48.1561 35.5449 45.8098 35.5066 43.4581 35.5066C42.5749 35.0689 41.6266 35.43 40.7217 35.2713L40.7704 29.8926Z" fill="#EBFC72"/>
<path d="M37.9579 46.2476H40.716H43.3928C43.3928 47.041 43.4362 47.8399 43.4524 48.6333L43.3007 49.0546C42.8423 49.082 42.3827 49.082 41.9244 49.0546C41.0194 48.9397 40.6347 49.2242 40.716 50.2146C40.8027 51.309 40.716 52.4307 40.716 53.536C40.7431 54.2419 40.4993 54.4662 39.8057 54.4553C37.3944 54.4553 34.9885 54.4553 32.5772 54.4553H32.4038C33.0594 52.1133 32.7668 51.7194 30.4585 51.6701C30.2471 51.6701 30.0358 51.6701 29.8299 51.6701C29.8299 50.7509 29.8028 49.8316 29.792 48.9342H35.3082C37.9525 48.8412 37.9525 48.8412 37.9579 46.2476Z" fill="#DF954B"/>
<path d="M13.6167 40.8579C15.0798 40.8579 16.5374 40.9017 17.995 40.8579C18.7482 40.8579 19.0463 41.0987 18.9541 41.8428C18.9216 42.0945 18.9541 42.3517 18.9541 42.5979C18.8837 43.2546 19.1546 43.4789 19.8103 43.468C21.8694 43.4406 23.9339 43.468 25.9984 43.468C26.8275 43.468 27.1851 43.6704 27.0821 44.5623C27.0469 45.1363 27.0469 45.7119 27.0821 46.2859H13.6113V40.9017L13.6167 40.8579Z" fill="#DC743E"/>
<path d="M8.05177 35.2658C8.4961 34.6913 8.31729 34.0128 8.24143 33.4164C7.87838 30.4343 8.1168 27.4521 8.10596 24.47C8.31729 24.47 8.52862 24.47 8.74536 24.47C10.8315 24.47 10.8316 24.47 10.8316 26.5438V38.0346L8.12222 38.0072H8.08428L8.05177 35.2658Z" fill="#DC743E"/>
<path d="M37.9579 46.2476C37.9579 48.8412 37.9579 48.8412 35.3353 48.8467H29.8191C28.9147 48.7758 28.0051 48.8144 27.1098 48.9616L27.0664 46.2257C29.4344 46.2257 31.8077 46.2257 34.1757 46.2585C34.9831 46.2585 35.2594 45.9959 35.1673 45.2134C35.1673 45.1423 35.1673 45.0712 35.1673 45C35.1673 43.5062 35.9584 42.981 37.3998 43.5008C37.5697 43.5467 37.7176 43.6525 37.817 43.799C37.9164 43.9455 37.9606 44.1231 37.9417 44.2996C37.9417 44.9617 37.9579 45.6019 37.9579 46.2476Z" fill="#DC743E"/>
<path d="M43.3926 46.2477H40.7158C40.7158 43.5227 40.7158 40.796 40.7158 38.0674H43.3818C43.3818 39.0085 43.3818 39.9442 43.3818 40.8853C43.3818 42.6637 43.4252 44.4475 43.4414 46.2258L43.3926 46.2477Z" fill="#DC743E"/>
<path d="M10.8486 38.051C13.6013 38.0948 13.6013 38.0948 13.6176 40.8581H10.8486V38.062V38.051Z" fill="#DC743E"/>
<path d="M43.4033 38.0729H40.7373C40.7373 37.1372 40.7373 36.2015 40.7373 35.2659C41.6422 35.4246 42.5905 35.0634 43.4738 35.5012C43.4575 36.3493 43.4304 37.1974 43.4033 38.0729Z" fill="#DF954B"/>
<path d="M75.9584 40.869C78.7382 40.869 78.7382 40.869 78.7382 38.0456C78.7382 37.192 78.7382 36.3384 78.7382 35.4848C79.5185 35.4848 80.4451 35.2659 81.0411 35.6106C81.6372 35.9553 81.1604 37.0059 81.3392 37.7173C81.4946 38.2307 81.5552 38.7685 81.518 39.3041C81.3933 40.3273 81.7727 40.6775 82.8185 40.6885C83.8643 40.6994 84.2544 40.3656 84.081 39.3479C83.9076 38.3301 84.3357 37.9744 85.3652 38.0401C86.7091 38.1276 88.0745 38.0401 89.413 38.0401C89.4563 40.8526 89.4563 40.8526 86.6711 40.8581H86.1292C84.2598 40.8581 84.2327 40.8581 84.0918 42.7623C84.0431 43.3751 83.7505 43.4517 83.2628 43.4462C82.0924 43.4462 80.9165 43.49 79.7461 43.4462C78.8249 43.397 78.4781 43.7089 78.5052 44.6665C78.554 46.4174 78.7544 46.2533 76.8796 46.2588C75.0047 46.2642 73.325 46.2916 71.5476 46.2588C70.7999 46.2588 70.5668 46.4886 70.5777 47.2382C70.5777 48.8524 70.5452 48.7429 68.9521 48.8797C67.044 49.0456 65.1282 49.1022 63.2137 49.0494C62.4335 49.0494 62.2601 49.3449 62.2709 50.0617C62.298 51.7853 62.5418 51.6485 60.6724 51.6539C57.0798 51.6539 53.4872 51.6813 49.9001 51.6539C49.0494 51.6539 48.8164 51.9002 48.8164 52.7483C48.8597 54.4719 48.8163 54.4719 47.1149 54.4719H43.4844V49.0931C43.4898 49.0367 43.4898 48.9799 43.4844 48.9235L51.6124 48.8579C54.1375 48.9454 54.1375 48.9454 54.1971 46.412C54.1971 46.3737 54.1971 46.3408 54.1971 46.3025L62.2871 46.2697H67.8413C70.3935 46.2697 70.3935 46.2697 70.4097 43.7089C70.4097 43.6378 70.4097 43.5666 70.4097 43.4955H73.4008C75.9747 43.4408 75.9747 43.4408 75.9584 40.869Z" fill="#F5E468"/>
<path d="M43.5123 49.0601V54.4389C43.5123 55.3034 43.5123 56.168 43.5123 57.0325H40.7487H35.1729C32.6316 56.9833 32.6316 56.9833 32.6045 54.4334C35.0158 54.4334 37.4217 54.4334 39.833 54.4334C40.5266 54.4334 40.7704 54.22 40.7433 53.5142C40.6945 52.4198 40.8029 51.2926 40.7433 50.1928C40.662 49.2024 41.0468 48.9178 41.9517 49.0327C42.4101 49.0601 42.8696 49.0601 43.328 49.0327L43.5123 49.0601Z" fill="#EBC15A"/>
<path d="M8.0791 68.0091C8.0791 67.0734 8.0791 66.1376 8.0791 65.2074C10.3929 65.2074 12.7066 65.1692 15.0204 65.2512C16.0716 65.2895 16.5756 65.0379 16.3696 63.9052C16.1637 62.7725 16.6785 62.6138 17.6701 62.6193C23.506 62.6576 29.3473 62.6193 35.1832 62.6193C35.0694 65.2184 35.0695 65.2184 37.6054 65.2239H37.9197C37.9197 66.1595 37.9197 67.0952 37.9197 68.0309C31.9591 68.0309 25.9607 68.0309 19.9839 68.0309C19.1277 68.0309 18.9002 68.2826 18.9002 69.1253C18.9489 70.7668 19.1061 70.63 17.4263 70.6355C15.5081 70.6355 13.5845 70.6355 11.6608 70.6355C11.0323 70.6355 10.7938 70.4549 10.783 69.7819C10.7559 68.0528 10.7234 68.0528 9.00026 68.0473L8.0791 68.0091Z" fill="#A4F8B4"/>
<path d="M46.0808 70.6246H45.5389C43.4365 70.6246 43.4039 70.6246 43.301 72.6875C43.2685 73.3441 42.965 73.4371 42.434 73.4262C40.9547 73.4262 39.4754 73.4262 37.9961 73.4262V70.6246H38.7439C40.6133 70.6246 40.6296 70.6246 40.7217 68.7861C40.7542 68.2389 40.9222 67.9872 41.4695 68.0364C41.6483 68.0364 41.8271 68.0364 42.0113 68.0364C43.5177 68.0364 43.5665 68.0365 43.5015 66.4934C43.4635 65.5468 43.6911 65.1473 44.7153 65.213C46.0916 65.306 47.4734 65.213 48.8551 65.213C48.8551 65.8587 48.8551 66.5043 48.8551 67.15C48.8551 67.6042 48.6654 67.7574 48.2211 67.8012C46.0536 68.031 46.0536 68.0474 46.0536 70.2799C46.0536 70.3893 46.0536 70.4933 46.0536 70.6028L46.0808 70.6246Z" fill="#B6F992"/>
<path d="M40.7428 57.0491H43.5064C43.6581 58.6906 43.2788 60.261 43.2951 61.8697C43.2951 62.6686 42.7532 62.6686 42.2113 62.6632C40.6724 62.6632 40.6887 62.4716 40.7645 64.0749C40.8133 65.0434 40.499 65.3772 39.567 65.2623C39.0257 65.2283 38.4828 65.2283 37.9414 65.2623C37.9414 64.3977 37.9414 63.5277 37.9414 62.6632C37.9414 61.9846 37.9685 61.3007 37.9414 60.6167C37.9414 60.0695 38.1582 59.8944 38.7 59.8671C40.7212 59.7631 40.7212 59.7412 40.7266 57.629C40.7374 57.4102 40.7374 57.2296 40.7428 57.0491Z" fill="#EBFC72"/>
<path d="M78.733 35.4791C77.9961 35.0851 77.1995 35.293 76.4301 35.2766C74.8316 35.2438 73.2276 35.2219 71.6291 35.2766C70.8217 35.2766 70.5888 35.0359 70.605 34.2315C70.6538 32.5572 70.8488 32.672 69.0878 32.672H55.552C54.1973 32.672 54.1973 32.6721 54.1973 31.2494C54.1892 31.1072 54.1892 30.9647 54.1973 30.8226C54.3057 30.0456 53.948 29.8377 53.2219 29.8596C51.7697 29.9033 50.3121 29.8596 48.8545 29.8596C48.8545 27.2769 48.8545 27.2769 51.4121 27.2769C53.8288 27.2769 56.2455 27.3097 58.6677 27.2769C59.4805 27.2769 59.7948 27.4629 59.7514 28.3712C59.6918 30.0456 59.5347 29.8924 61.3011 29.8978C62.2603 29.8978 63.2248 29.8595 64.1785 29.8978C64.8991 29.9361 65.1484 29.6516 65.078 28.9622C65.0455 28.6448 65.078 28.3165 65.078 27.9937C65.0509 27.4848 65.2839 27.2714 65.777 27.3042C65.9558 27.3042 66.1346 27.3042 66.3188 27.3042C68.0962 27.3042 67.8794 27.2003 67.8415 28.8637C67.8415 29.6516 68.0365 29.958 68.8548 29.9088C69.9927 29.8431 71.1306 29.9088 72.2685 29.9088C72.935 29.8814 73.2114 30.062 73.2168 30.8007C73.2168 32.7158 73.271 32.7158 75.135 32.7158C76.0941 32.7158 77.0532 32.7158 78.0123 32.7158C78.5542 32.7158 78.7764 32.9292 78.7547 33.4764C78.7167 34.1166 78.733 34.8006 78.733 35.4791Z" fill="#F5E468"/>
<path d="M46.0801 70.6244C46.0801 70.515 46.0801 70.411 46.0801 70.3016C46.0801 68.0691 46.0801 68.0527 48.2475 67.8229C48.6919 67.7791 48.8924 67.6259 48.8815 67.1718C48.8815 66.5261 48.8815 65.8804 48.8815 65.2347C52.1327 65.2347 55.4164 65.2019 58.6839 65.2347C59.4967 65.2347 59.8164 65.0541 59.7676 64.1404C59.708 62.466 59.5509 62.6137 61.3174 62.6082C63.9075 62.6082 66.5138 62.7669 69.0877 62.559C71.4015 62.3675 73.6773 62.7287 75.9694 62.5973C76.0127 65.18 76.0128 65.18 73.4389 65.191H72.6911C70.8163 65.191 70.7837 65.1909 70.6483 67.0897C70.5995 67.801 70.1985 67.7408 69.7217 67.7846C65.8582 68.0965 61.9893 67.998 58.1258 67.9706C57.1612 67.9706 56.9066 68.2551 56.9499 69.1908C57.0204 70.5697 56.9499 70.5697 55.579 70.5752L46.0801 70.6244Z" fill="#A4F8B4"/>
<path d="M89.4243 57.0381C89.4243 57.9683 89.4243 58.9039 89.4243 59.8341H89.0016C87.0563 59.8341 87.0401 59.8341 86.8775 61.7493C86.8287 62.2691 86.6282 62.4332 86.1514 62.4168C82.7539 62.291 79.3672 62.8053 75.9697 62.6248C75.9697 59.8396 75.9697 59.8396 78.7333 59.8287C80.1909 59.8287 81.6431 59.7849 83.0682 59.8287C83.8864 59.8615 84.1519 59.5605 84.0652 58.7781C84.0327 58.4935 84.0652 58.2309 84.0652 57.919C84.0652 57.4156 84.2603 57.2022 84.7588 57.2241C86.3248 57.3062 87.8583 56.8958 89.4243 57.0381Z" fill="#A4F8B4"/>
<path d="M8.05184 35.2657V38.0563H5.4834C5.4834 37.1972 5.4834 36.3381 5.4834 35.4736C5.4834 35.4025 5.4834 35.3259 5.4834 35.2493L8.05184 35.2657Z" fill="#EBC15A"/>
<path d="M5.49965 38.0674H8.06809H8.10603C8.10603 39.0031 8.10603 39.9387 8.07894 40.8744C8.02313 42.0199 8.07027 43.1683 8.21981 44.3052C8.32467 44.6288 8.36432 44.9702 8.3364 45.3095C8.30848 45.6487 8.21356 45.9789 8.05726 46.2805H5.50508V43.4735C5.49424 41.6569 5.49423 39.8621 5.49965 38.0674Z" fill="#F5E468"/>
<path d="M32.6041 54.4499C32.6312 56.9997 32.6312 56.9997 35.1725 57.049V59.8286H18.0875C16.4619 59.8286 16.4619 59.8286 16.3697 61.5358C16.3697 61.9079 16.4673 62.4333 15.8604 62.3895C14.4678 62.2965 13.1077 62.6576 11.7259 62.6357C11.1028 62.6357 10.8427 62.3949 10.8102 61.7493C10.7072 59.8177 10.6856 59.8177 8.77819 59.8286H8.23633C8.23633 58.893 8.23633 57.9628 8.23633 57.0271H22.5091C24.2756 57.0271 24.0751 57.1365 24.0317 55.4676C24.0317 54.6688 24.2539 54.4116 25.0558 54.428C27.5051 54.4718 29.9327 54.428 32.4036 54.428L32.6041 54.4499Z" fill="#CDFA7C"/>
<path d="M32.4307 54.4391C29.9814 54.4391 27.5539 54.4774 25.083 54.4391C24.281 54.4391 24.0372 54.6798 24.0588 55.4787C24.1022 57.1476 24.3027 57.0327 22.5362 57.0382H8.26343C8.26343 56.1791 8.26342 55.32 8.23633 54.461C8.23633 53.5198 8.23634 52.5787 8.26343 51.6375H10.8319C10.8319 52.0315 10.8319 52.4309 10.8319 52.8249C10.8319 54.6142 10.6206 54.3625 12.4304 54.4664C13.3678 54.5102 13.7417 54.2366 13.6225 53.2681C13.5832 52.7217 13.5832 52.173 13.6225 51.6266H16.3806C16.3806 51.6977 16.3806 51.7743 16.3806 51.8455C16.3806 54.4172 16.3806 54.4172 18.949 54.4172C21.718 54.4172 21.718 54.4172 21.7234 51.6211H29.8514C30.0573 51.6211 30.2686 51.6211 30.4799 51.6211C32.7937 51.6758 33.0863 52.0972 32.4307 54.4391Z" fill="#EBFC72"/>
<path d="M8.26363 51.6484C8.26363 52.5896 8.26362 53.5308 8.23652 54.4719L5.52719 54.4391C5.52719 53.5089 5.5001 52.5786 5.48926 51.6484H5.53262H8.09565H8.26363Z" fill="#CDFA7C"/>
<path d="M8.0845 51.6319H5.52148V46.2422H8.07367C8.06825 48.0479 8.07908 49.8372 8.0845 51.6319Z" fill="#EBFC72"/>
<path d="M8.26344 59.8506H8.80531C10.7127 59.8506 10.7344 59.8506 10.8373 61.7712C10.8698 62.4169 11.1299 62.6522 11.7531 62.6576C13.1348 62.6576 14.4949 62.3183 15.8875 62.4114C16.4944 62.4551 16.3806 61.9299 16.3968 61.5578C16.4619 59.8506 16.4619 59.8506 18.1145 59.8506H35.1996V62.6357C29.3637 62.6357 23.5224 62.6795 17.6865 62.6357C16.6949 62.6357 16.1963 62.8491 16.386 63.9216C16.5756 64.9941 16.088 65.306 15.0368 65.2677C12.723 65.1856 10.4092 65.2293 8.09546 65.2239C8.09546 64.3648 8.09545 63.5112 8.06836 62.6521C8.49643 61.7329 8.16049 60.7753 8.26344 59.8506Z" fill="#B6F992"/>
<path d="M75.959 40.8689C75.959 43.4407 75.959 43.4407 73.4122 43.4571H70.4211H67.8689C67.8689 42.9099 67.8202 42.3627 67.8689 41.8484C67.9231 41.1261 67.7118 40.8361 66.9315 40.8415C59.0961 40.8744 51.2553 40.8689 43.4199 40.8798C43.4199 39.9387 43.4199 39.003 43.4199 38.0619C43.4199 37.1207 43.4741 36.3382 43.4958 35.4737C45.8421 35.4737 48.1884 35.4737 50.5401 35.4737C53.2313 35.4336 55.9226 35.3606 58.6139 35.2548C59.5134 35.222 59.8656 35.5613 59.768 36.4477C59.7355 36.7268 59.768 36.9949 59.768 37.3068C59.7301 37.8539 59.9414 38.0783 60.505 38.0728C62.6345 38.0728 64.7695 38.0454 66.899 38.0728C67.6413 38.0728 67.6739 37.6898 67.6793 37.1262C67.6793 35.5941 68.5734 35.0086 70.0581 35.4846C70.5999 35.6652 70.4319 36.1139 70.4374 36.475C70.4645 38.2205 70.226 38.0564 72.063 38.0619C72.6699 38.0619 73.2443 37.936 73.2443 38.9319C73.2443 40.8634 73.293 40.8634 75.2437 40.8634L75.959 40.8689Z" fill="#CDFA7C"/>
<path d="M8.085 51.6319C8.085 49.8371 8.085 48.0478 8.085 46.2531C8.24131 45.9514 8.33622 45.6213 8.36414 45.282C8.39206 44.9428 8.35243 44.6013 8.24757 44.2778C8.09803 43.1408 8.05087 41.9925 8.10668 40.8469H10.8648C10.8648 41.6951 10.8648 42.5487 10.8648 43.3968C10.8648 46.2421 10.8648 46.2421 13.6446 46.2367C13.7096 47.0465 13.3303 47.9986 13.8234 48.6388C14.2189 49.1422 15.1022 48.7537 15.7633 48.8303C19.5563 49.2462 23.3494 48.9671 27.1424 48.9616C28.0378 48.8144 28.9474 48.7758 29.8518 48.8467C29.8518 49.766 29.8518 50.6852 29.8897 51.5826H21.7617H8.26383L8.085 51.6319Z" fill="#EBC15A"/>
<path d="M62.2926 46.2368L54.2026 46.2697C51.6233 46.204 51.6233 46.204 51.6124 48.825L43.4844 48.8907C43.4844 48.8031 43.4465 48.721 43.4248 48.6335C43.4248 47.8401 43.3869 47.0412 43.3652 46.2478H43.4465H43.8746C45.9337 46.2751 45.9716 46.2752 46.0421 44.2561C46.0421 43.4353 46.4972 43.4517 47.0662 43.4517H59.6321C62.3306 43.4572 62.3306 43.4572 62.2926 46.2368Z" fill="#A4F8B4"/>
<path d="M43.4525 48.6333C43.4525 48.7208 43.4904 48.8029 43.5121 48.8905C43.5176 48.9469 43.5176 49.0037 43.5121 49.0601H43.3008C43.355 48.9178 43.4037 48.7756 43.4525 48.6333Z" fill="#CDFA7C"/>
<path d="M27.1037 48.9835C23.3107 48.9835 19.5176 49.268 15.7245 48.8522C15.0635 48.7756 14.1802 49.1641 13.7847 48.6607C13.2916 48.0205 13.6709 47.0684 13.6058 46.2585H27.0549C27.0766 47.1669 27.0875 48.0752 27.1037 48.9835Z" fill="#DF954B"/>
<path d="M13.6118 46.2586C10.8483 46.2586 10.8483 46.2586 10.832 43.4187C10.832 42.5706 10.832 41.717 10.832 40.8689H13.601C13.6046 42.6673 13.6082 44.4639 13.6118 46.2586Z" fill="#DF954B"/>
<path d="M10.8372 40.8634H8.0791C8.0791 39.9278 8.07909 38.9921 8.10619 38.0564L10.8155 38.0837L10.8372 40.8634Z" fill="#DF954B"/>
<path d="M62.2929 46.2367C62.3308 43.457 62.3308 43.457 59.6377 43.457H47.0718C46.5029 43.457 46.0694 43.457 46.0477 44.2613C45.999 46.2804 45.961 46.2804 43.8803 46.2531H43.4522C43.4522 44.4747 43.4143 42.6909 43.3926 40.9126C51.228 40.9126 59.0688 40.9126 66.9042 40.8743C67.6845 40.8743 67.8958 41.1588 67.8416 41.8811C67.7982 42.4283 67.8416 42.9755 67.8416 43.4898C67.8416 44.4145 67.8416 45.3448 67.8416 46.275L62.2929 46.2367Z" fill="#B6F992"/>
<path d="M67.8467 46.2531C67.8467 45.3229 67.8467 44.3928 67.8467 43.468H70.3989C70.3989 43.5392 70.3989 43.6103 70.3989 43.6814C70.3989 46.2696 70.3989 46.2696 67.8467 46.2531Z" fill="#EBFC72"/>
<path d="M51.6123 48.825C51.6123 46.204 51.6123 46.204 54.2024 46.2696C54.2024 46.308 54.2024 46.3408 54.2024 46.3791C54.1374 48.9125 54.1374 48.9125 51.6123 48.825Z" fill="#B6F992"/>
<path d="M35.2051 62.6139V59.8287V57.0491H40.7754C40.7754 57.2296 40.7754 57.4102 40.7754 57.5963C40.7754 59.7084 40.7755 59.7302 38.7489 59.8342C38.207 59.8616 37.9686 60.0202 37.9903 60.5838C38.0228 61.2678 37.9903 61.9518 37.9903 62.6303H35.2809L35.2051 62.6139Z" fill="#F5E468"/>
<path d="M35.2217 62.6138H37.931C37.931 63.4783 37.931 64.3483 37.931 65.2129H37.671C35.1079 65.2129 35.1079 65.2129 35.2217 62.6138Z" fill="#CDFA7C"/>
<path d="M16.3809 51.6538H21.7291C21.7291 54.4554 21.7291 54.4554 18.9547 54.4499C16.4025 54.4499 16.4025 54.4499 16.3863 51.8782C16.3863 51.8016 16.3809 51.7249 16.3809 51.6538Z" fill="#F5E468"/>
<path d="M10.8317 51.6538H13.6223C13.5831 52.2003 13.5831 52.7489 13.6223 53.2954C13.7415 54.2639 13.3677 54.5375 12.4302 54.4937C10.6204 54.4061 10.848 54.6578 10.8317 52.8521C10.8317 52.4472 10.8317 52.0478 10.8317 51.6538Z" fill="#F5E468"/>
</g>
<defs>
<clipPath id="clip0_460_168106">
<rect width="95" height="98" fill="white"/>
</clipPath>
</defs>
</svg>
