<svg width="129" height="94" viewBox="0 0 129 94" fill="none" xmlns="http://www.w3.org/2000/svg">
<g clip-path="url(#clip0_460_168080)">
<path d="M126.18 65.9886C126.18 65.3733 125.966 65.1496 125.35 65.1649C124.169 65.1903 122.983 65.1649 121.787 65.1649C119.568 65.1649 119.538 65.1649 119.548 62.948C119.548 62.1599 119.365 61.8395 118.53 61.8446C116.316 61.8446 116.285 61.8141 116.249 59.6836C116.249 58.9464 115.995 58.7175 115.282 58.748C114.264 58.7887 113.246 58.748 112.228 58.748C109.78 58.748 109.76 58.7481 109.648 56.2769C109.617 55.6769 109.449 55.4278 108.823 55.4481C107.719 55.4837 106.614 55.4481 105.51 55.4481C103.097 55.4481 103.061 55.4481 102.995 53.0278C102.995 52.2549 102.659 52.1227 101.977 52.1278C100.323 52.1532 98.6636 52.1278 97.0094 52.1278C96.4291 52.1278 96.1797 51.9753 96.1441 51.3346C96.0168 49.0211 95.9914 49.0211 93.5991 49.0262C93.3599 49.0262 93.1257 49.0262 92.8916 49.0262C92.8421 48.9784 92.8053 48.9189 92.7847 48.8533C92.7847 44.7856 92.7847 40.7179 92.7847 36.6806C92.7847 35.9535 92.4488 35.8518 91.8431 35.8569C89.9496 35.8569 88.0612 35.8264 86.1678 35.8061C86.1678 35.0586 86.127 34.3112 86.1678 33.5688C86.2085 32.8265 86.0405 32.5926 85.277 32.6282C84.0605 32.6943 82.844 32.6282 81.6275 32.6282C79.5254 32.6282 79.4846 32.6282 79.5406 30.5943C79.5406 29.7248 79.4032 29.3028 78.4208 29.4198C77.676 29.4586 76.9295 29.4467 76.1863 29.3842C76.1863 28.6113 76.1863 27.8588 76.1863 27.0605C76.2271 26.3842 76.0235 26.0436 75.2803 26.1097C74.5372 26.1758 73.6566 26.1452 72.8422 26.1605C72.5267 26.1605 72.2111 26.1605 71.8955 26.1605C69.5439 26.1605 69.4981 26.1605 69.5032 23.8216C69.5032 22.9826 69.1775 22.8657 68.4852 22.8758C66.3576 22.9165 64.2351 22.8758 62.1075 22.8758C59.5625 22.8758 59.5625 22.8758 59.4811 25.3775C59.4811 26.013 59.2622 26.1758 58.6616 26.1554C57.8014 26.1198 56.9361 26.1554 56.0708 26.1859C55.0528 26.1453 53.7447 25.7588 53.0168 26.3181C52.289 26.8775 52.8896 28.1384 52.7929 29.0943C52.7929 29.2113 52.7623 29.3231 52.747 29.4401L49.4386 29.5164C48.7005 29.5164 47.9574 29.552 47.2244 29.4808C46.4915 29.4096 46.1046 29.6333 46.1657 30.4977C46.2795 31.2293 46.2449 31.9763 46.0639 32.6943C45.0154 32.7299 43.6666 32.2519 43.01 32.8824C42.3534 33.5129 42.8929 34.8248 42.8267 35.8366C40.9434 35.8366 39.0601 35.9027 37.1769 35.8824C36.4897 35.8824 36.1589 36.0298 36.2047 36.7925C36.2505 37.8857 36.1792 38.9891 36.169 40.0823C36.169 42.3704 36.169 42.4009 33.8531 42.4161C33.0998 42.4161 32.8351 42.6195 32.8351 43.4331C32.8606 45.233 32.7893 47.033 32.7639 48.833C32.489 48.833 32.2141 48.8889 31.9393 48.894C29.6233 48.9245 29.5877 48.9245 29.5674 51.2228C29.5674 52.0312 29.262 52.2041 28.5188 52.2092C26.1673 52.2092 26.1469 52.2448 26.0655 54.6193C26.04 55.2803 25.8364 55.5295 25.1696 55.5091C24.1058 55.4684 23.0369 55.5091 21.9731 55.5091C19.5198 55.5091 19.4841 55.5091 19.4282 57.8887C19.4282 58.6464 19.1177 58.8294 18.4102 58.8091C17.27 58.7735 16.1248 58.8091 14.9795 58.8091C12.8163 58.8091 12.7959 58.8091 12.7603 60.9395C12.7603 61.6005 12.628 61.9209 11.8543 61.9565C9.52818 62.0124 9.49254 62.048 9.44673 64.3361C9.44673 65.1039 9.12607 65.2564 8.42874 65.2463C6.90175 65.2107 5.37477 65.2768 3.81724 65.2157C2.96721 65.1801 2.74326 65.4903 2.75853 66.2987C2.80434 68.8411 2.81452 71.3427 2.75853 73.8647C2.75853 74.8003 3.08937 74.9783 3.92922 74.9681C6.06191 74.9376 6.10772 74.9681 6.07209 77.1392C6.07209 78.0341 6.33676 78.2884 7.21733 78.2629C9.42128 78.207 11.6354 78.2629 13.8343 78.2629C16.0331 78.2629 16.0739 78.2629 16.0179 80.4137C15.9924 81.3951 16.3386 81.5985 17.2344 81.5832C20.5887 81.5374 23.943 81.5832 27.2972 81.5832C29.4707 81.5832 29.5266 81.5832 29.4706 79.4273C29.4706 78.4104 29.832 78.2579 30.7126 78.268C33.6291 78.3036 36.5508 78.268 39.4673 78.268L42.7707 78.3646C42.8013 81.7154 42.8013 81.7154 46.1046 81.5629C46.9648 81.5629 47.8251 81.6086 48.6802 81.5629C49.1892 81.5629 49.4437 81.6443 49.4488 82.2493C49.4488 83.0883 49.0365 84.2323 49.6575 84.6849C50.2784 85.1374 51.3066 84.8069 52.1617 84.8323C52.3551 84.8323 52.5486 84.8577 52.742 84.873C52.8489 85.8899 52.3093 87.2679 52.9761 87.9238C53.6429 88.5797 55.0477 88.0916 56.1268 88.1424C56.1624 88.1424 56.1981 88.1119 56.2337 88.0967H59.3335C59.3842 88.753 59.3995 89.4115 59.3793 90.0695C59.3131 90.9491 59.5472 91.3661 60.5245 91.2695C61.2993 91.2263 62.0759 91.2263 62.8506 91.2695C63.0848 91.2695 63.324 91.2695 63.5581 91.2695C66.0166 91.2695 66.037 91.2695 66.1286 88.8339C66.1286 88.2289 66.3118 87.995 66.9379 88.0153C68.0831 88.056 69.2233 88.0153 70.3685 88.0153C72.7812 88.0153 72.8066 88.0153 72.8371 85.6255C72.8371 84.9543 73.0306 84.7561 73.6973 84.7764C75.3516 84.8171 77.0109 84.7764 78.6652 84.8018C79.2454 84.8018 79.5101 84.69 79.4999 84.029C79.4999 83.2205 79.108 82.1171 79.6781 81.6798C80.2481 81.2425 81.261 81.5527 82.0805 81.5324L82.788 81.5019C86.0863 81.6087 86.0863 81.6087 86.1219 78.3036L89.4406 78.207H97.1315C99.3508 78.207 99.4017 78.207 99.3711 80.4239C99.3711 81.3646 99.7122 81.5324 100.547 81.5222C103.901 81.4764 107.25 81.5222 110.605 81.5222C112.814 81.5222 112.865 81.5222 112.829 79.3002C112.829 78.3595 113.18 78.1969 114.01 78.2121C116.616 78.2579 119.217 78.2121 121.823 78.2121C122.469 78.2121 122.841 78.1104 122.841 77.3274C122.902 75.0088 122.938 74.9884 125.233 74.9223C125.864 74.9223 126.16 74.7545 126.149 74.0579C126.165 71.3478 126.165 68.6682 126.18 65.9886ZM36.2098 48.9703C36.5966 48.9703 36.9783 48.9194 37.3601 48.9042C36.9783 48.9042 36.5966 48.9499 36.2098 48.9703ZM92.7898 65.1649C92.7898 67.3818 92.7898 69.5936 92.7898 71.8054C92.7949 69.5936 92.8 67.3818 92.7898 65.1649Z" fill="#303537" stroke="#303537" stroke-width="11" stroke-miterlimit="10"/>
<path d="M32.8154 48.7923C32.846 46.9923 32.9121 45.1923 32.8867 43.3924C32.8867 42.6043 33.1514 42.406 33.9047 42.3754C36.2104 42.3754 36.2054 42.3297 36.2257 40.0416C36.2257 38.9484 36.3071 37.845 36.2613 36.7518C36.2257 35.9891 36.5413 35.8366 37.2284 35.8417C39.1117 35.8417 40.995 35.8417 42.8783 35.7959C43.1532 35.7959 43.428 35.8569 43.6978 35.8569H85.4049C85.6747 35.8569 85.9495 35.8162 86.2244 35.801C88.1179 35.801 90.0113 35.8569 91.8997 35.8519C92.5054 35.8519 92.8464 35.9485 92.8413 36.6756C92.8413 40.7433 92.8413 44.811 92.8413 48.8482C92.368 48.8482 91.8946 48.8482 91.4213 48.8482H37.7883C37.2793 48.8482 36.7703 48.8991 36.2613 48.9245L32.9274 48.8787C32.8962 48.8427 32.8582 48.8133 32.8154 48.7923Z" fill="#F2DC66"/>
<path d="M92.9423 49.0466H93.6498C96.0217 49.0466 96.0472 49.0467 96.1948 51.3551C96.2304 51.9958 96.4798 52.1534 97.0601 52.1483C98.7143 52.1483 100.374 52.1788 102.028 52.1483C102.695 52.1483 103.015 52.2754 103.046 53.0483C103.107 55.4685 103.143 55.4686 105.555 55.4686C106.66 55.4686 107.764 55.4686 108.869 55.4686C109.495 55.4686 109.663 55.6974 109.693 56.2974C109.81 58.7634 109.831 58.7634 112.274 58.7685C113.292 58.7685 114.31 58.8092 115.328 58.7685C116.035 58.738 116.28 58.9668 116.29 59.7041C116.326 61.8345 116.356 61.8752 118.57 61.8651C119.43 61.8651 119.619 62.1803 119.614 62.9684C119.614 65.1802 119.614 65.1802 121.853 65.1853C123.034 65.1853 124.22 65.2107 125.416 65.1853C126.032 65.1853 126.251 65.3938 126.246 66.0091C126.246 68.6887 126.246 71.3683 126.246 74.0479C126.246 74.7445 125.961 74.892 125.33 74.9072C123.034 74.9784 122.999 74.9987 122.937 77.3173C122.937 78.1004 122.576 78.2071 121.919 78.2021C119.313 78.2021 116.712 78.2021 114.106 78.2021C113.282 78.2021 112.915 78.3495 112.925 79.2902C112.961 81.5071 112.925 81.5071 110.701 81.5122C107.352 81.5122 103.998 81.5122 100.643 81.5122C99.8087 81.5122 99.4524 81.3545 99.4676 80.4139C99.4982 78.197 99.4676 78.197 97.228 78.197H89.5371C89.5371 77.9631 89.5371 77.7292 89.5371 77.4902C89.5371 75.0597 89.5371 75.0394 91.9752 74.9479C92.6267 74.9479 92.8761 74.7343 92.871 74.0631C92.8354 71.114 92.8405 68.165 92.8303 65.2108V61.9007C92.8303 61.3922 92.8761 60.8837 92.8761 60.3753C92.9067 56.5821 92.9287 52.8059 92.9423 49.0466Z" fill="#A5DAD4"/>
<path d="M92.8456 65.165C92.8456 68.1192 92.8456 71.0683 92.8863 74.0174C92.8863 74.6886 92.642 74.8818 91.9905 74.9022C89.5524 74.9937 89.5524 75.014 89.5524 77.4445C89.5524 77.6835 89.5524 77.9173 89.5524 78.1512L86.2338 78.2478H82.9202C82.4875 78.2478 82.06 78.1919 81.6273 78.1919H47.4737C47.041 78.1919 46.6084 78.2275 46.1808 78.2478H42.8673L39.5639 78.1512V77.5614C39.5639 75.0445 39.5639 75.0191 37.08 74.9073C36.4946 74.8767 36.2707 74.7191 36.235 74.0988C36.1129 71.7751 36.0874 71.7802 33.802 71.7497C33.685 71.7497 33.5628 71.7497 33.4508 71.7497C33.0131 71.7954 32.8706 71.6734 32.8859 71.17C32.9418 69.1717 32.9215 67.1735 32.9317 65.1752L92.8456 65.165Z" fill="#F2DC66"/>
<path d="M92.943 49.0467C92.9226 52.8093 92.9023 56.5702 92.8819 60.3295C92.8819 60.838 92.8514 61.3464 92.8361 61.8549H36.251C36.251 57.5634 36.251 53.272 36.251 48.9805C36.76 48.9551 37.269 48.9043 37.778 48.9043H91.416C91.8894 48.9043 92.3627 48.9043 92.8361 48.9043C92.8609 48.959 92.8974 49.0075 92.943 49.0467Z" fill="#303537"/>
<path d="M32.9319 65.1752C32.9319 67.1735 32.9319 69.1718 32.8861 71.17C32.8861 71.6785 33.0133 71.7954 33.4511 71.7497C33.5631 71.7497 33.6852 71.7497 33.8023 71.7497C36.0877 71.7802 36.1131 71.7497 36.2353 74.0988C36.2709 74.7191 36.4949 74.8768 37.0802 74.9073C39.559 75.0242 39.559 75.0445 39.5641 77.5614V78.1665C36.6476 78.1665 33.7259 78.2072 30.8094 78.1665C29.9288 78.1665 29.542 78.3242 29.5725 79.3258C29.6234 81.4766 29.5725 81.4766 27.394 81.4817C24.0397 81.4817 20.6855 81.4817 17.3312 81.4817C16.4353 81.4817 16.0892 81.2936 16.1147 80.3122C16.1707 78.1665 16.1147 78.1614 13.9311 78.1614C11.7475 78.1614 9.51299 78.1258 7.31412 78.1614C6.43356 78.1868 6.15361 77.9326 6.16888 77.0377C6.20451 74.8717 6.16889 74.8361 4.02601 74.8666C3.18617 74.8666 2.83497 74.6988 2.85533 73.7632C2.91641 71.2209 2.90623 68.7192 2.85533 66.1973C2.85533 65.3888 3.06401 65.0786 3.91403 65.1142C5.44102 65.1752 6.96801 65.1142 8.53063 65.1447C9.20251 65.1447 9.5079 65.0023 9.54862 64.2346C9.59443 61.9465 9.63006 61.9109 11.9613 61.8549C12.7298 61.8549 12.8571 61.5143 12.8673 60.838C12.8978 58.7075 12.9182 58.7075 15.0814 58.7075C16.2267 58.7075 17.3719 58.677 18.5171 58.7075C19.1992 58.7075 19.4893 58.5448 19.5097 57.7872C19.5657 55.4025 19.6013 55.4076 22.0547 55.4076C23.1185 55.4076 24.1874 55.3771 25.2512 55.4076C25.9179 55.4076 26.1215 55.1788 26.147 54.5178C26.2284 52.1433 26.2539 52.1178 28.6003 52.1077C29.3435 52.1077 29.6183 51.9297 29.6489 51.1212C29.6489 48.823 29.7049 48.823 32.0208 48.7925C32.2957 48.7925 32.5705 48.7518 32.8454 48.7314C32.893 48.7656 32.9315 48.811 32.9574 48.8637C32.9574 53.2398 32.9574 57.6194 32.9574 62.0024C32.9438 63.0804 32.9353 64.138 32.9319 65.1752Z" fill="#A5DAD4"/>
<path d="M86.2294 35.8265C85.9545 35.8265 85.6797 35.8825 85.4099 35.8825H43.6977C43.4279 35.8825 43.1531 35.8418 42.8782 35.8214C42.9444 34.8045 42.4455 33.457 43.0665 32.8672C43.6875 32.2774 45.1025 32.7147 46.1205 32.6791C46.9756 32.7045 47.8307 32.6791 48.6655 32.7554C49.3526 32.7961 49.546 32.4707 49.5155 31.8452C49.4748 31.0673 49.5155 30.2893 49.4748 29.5114L52.7883 29.4351C53.8063 29.3741 55.1603 29.8724 55.8423 29.2266C56.5244 28.5809 55.995 27.2233 56.0968 26.1758C56.9621 26.1758 57.8274 26.1097 58.6927 26.1453C59.2882 26.1453 59.4867 26.0029 59.5071 25.3674C59.5784 22.8657 59.6038 22.8657 62.1335 22.8657C64.2611 22.8657 66.3887 22.8657 68.5112 22.8657C69.2289 22.8657 69.5598 22.9725 69.5547 23.8115C69.5547 26.1402 69.5954 26.1403 71.947 26.1504C72.2625 26.1504 72.5781 26.1504 72.8937 26.1504C73.0464 27.1674 72.4662 28.5758 73.138 29.2012C73.8099 29.8266 75.174 29.3588 76.192 29.3639C76.9335 29.4265 77.6783 29.4384 78.4214 29.3995C79.4037 29.2826 79.5666 29.7046 79.5412 30.5741C79.4903 32.6079 79.5412 32.6079 81.6281 32.6079C82.8446 32.6079 84.0611 32.674 85.2776 32.6079C86.0411 32.5723 86.2192 32.852 86.1683 33.5486C86.1174 34.2452 86.2294 35.0791 86.2294 35.8265Z" fill="#303537"/>
<path d="M46.1816 78.2427C46.6092 78.2427 47.0418 78.1868 47.4745 78.1868H81.6129C82.0455 78.1868 82.473 78.2224 82.9057 78.2427C82.9057 79.3105 82.9057 80.3783 82.9057 81.446L82.1982 81.4766C81.3787 81.4766 80.3251 81.2172 79.7957 81.624C79.2664 82.0308 79.6125 83.1494 79.6227 83.9731C79.6227 84.6341 79.3631 84.7562 78.7828 84.746C77.1286 84.7155 75.4693 84.746 73.815 84.7206C73.1533 84.7206 72.9599 84.8985 72.9548 85.5697C72.9243 87.9646 72.8989 87.9595 70.4862 87.9595C69.341 87.9595 68.2008 87.99 67.0556 87.9595C66.4295 87.9595 66.2717 88.173 66.2463 88.7781C66.1546 91.2238 66.1343 91.2238 63.6758 91.2136C63.4417 91.2136 63.2025 91.2136 62.9683 91.2136C62.78 90.1611 63.4773 88.7222 62.6426 88.1171C61.8078 87.512 60.5404 87.9086 59.4512 88.0357H56.3514C56.2954 86.9934 56.6161 85.6205 56.0765 84.9849C55.4505 84.268 54.0405 84.7663 52.9716 84.7663C52.9324 84.7738 52.8946 84.7876 52.8597 84.807C52.6662 84.807 52.4728 84.7714 52.2794 84.7663C51.4243 84.7663 50.3401 85.0358 49.7752 84.6189C49.2102 84.2019 49.5766 83.0223 49.5664 82.1833C49.5664 81.5783 49.3171 81.4816 48.7979 81.4969C47.9428 81.4969 47.0826 81.4969 46.2224 81.4969C46.1969 80.3783 46.1867 79.3105 46.1816 78.2427Z" fill="#353A3B"/>
<path d="M76.2577 0.172755C78.2581 0.172755 80.2635 0.147324 82.269 0.101562C82.8187 0.101562 82.9256 0.320231 82.9052 0.798189C82.8798 1.46428 82.8798 2.13037 82.9052 2.80154C82.9052 3.22865 82.8136 3.48796 82.325 3.42186C82.2471 3.41424 82.1687 3.41424 82.0908 3.42186C81.2815 3.49813 80.2075 3.05576 79.7291 3.61508C79.3372 4.07778 79.556 5.10995 79.5967 5.8879C79.6324 6.55908 79.3219 6.65571 78.7569 6.64554C77.1027 6.62012 75.4485 6.64552 73.7993 6.62009C73.1376 6.62009 72.9187 6.78791 72.934 7.46925C72.9747 9.35566 72.934 11.2421 72.934 13.1285C72.1909 13.1285 71.4477 13.2149 70.7097 13.159C69.9716 13.1031 69.5644 13.3115 69.6408 14.1759C69.6815 14.916 69.6815 15.6578 69.6408 16.3979C68.5464 16.3979 67.1416 16.7742 66.4443 16.2403C65.747 15.7064 66.312 14.2471 66.2407 13.1895C66.2407 13.0319 66.2407 12.8742 66.2407 12.7166C66.2407 11.8166 65.9862 10.7133 66.4087 10.0777C66.8311 9.4421 68.012 9.86919 68.8518 9.86919C69.5543 9.86919 69.595 9.52854 69.5899 8.99465C69.5899 7.39298 69.5899 5.78622 69.5899 4.18455C69.5899 3.56423 69.7579 3.36594 70.3839 3.40153C71.2441 3.44729 72.1145 3.40153 72.9798 3.40153C73.7637 3.40153 74.5526 3.40151 75.3365 3.44727C76.1203 3.49304 76.3545 3.15236 76.3087 2.43034C76.2628 1.70832 76.2628 0.915115 76.2577 0.172755Z" fill="#303537"/>
<path d="M56.1984 13.0828C56.1984 11.2014 56.1679 9.32519 56.1984 7.44895C56.1984 6.84388 56.0407 6.61509 55.4095 6.64051C54.5544 6.67102 53.6942 6.60489 52.834 6.58455V3.43718L52.8645 3.40665H56.1425C56.9271 3.45997 57.7145 3.45997 58.4991 3.40665C59.456 3.29478 59.6036 3.70157 59.5731 4.53037C59.512 6.02017 59.5731 7.50996 59.5426 8.99976C59.5426 9.66077 59.7156 9.86927 60.3926 9.88452C62.907 9.93537 62.907 9.96079 62.907 12.4879C62.907 13.5506 62.8714 14.6132 62.907 15.6709C62.9325 16.3064 62.6932 16.4895 62.0875 16.4488C61.2273 16.3929 60.362 16.3979 59.4967 16.3827C59.4967 15.6302 59.456 14.8573 59.5324 14.1404C59.624 13.2607 59.2371 13.0624 58.4482 13.1234C57.6593 13.1845 56.9568 13.0828 56.1984 13.0828Z" fill="#303537"/>
<path d="M49.4944 3.45257C48.904 3.45257 48.3186 3.45257 47.7282 3.45257C46.2012 3.45257 46.2012 3.45256 46.2012 1.89158C46.2012 0.132285 46.2012 0.127221 47.9928 0.132305H52.8232L52.8538 3.39156L52.8232 3.42206L49.4944 3.45257Z" fill="#303537"/>
<path d="M52.839 84.7763C52.874 84.7569 52.9118 84.7432 52.951 84.7356C54.0199 84.7356 55.4298 84.2272 56.0559 84.9543C56.5954 85.5746 56.2748 86.9474 56.3307 88.005C56.2951 88.005 56.2595 88.0508 56.2238 88.0508C55.1448 88 53.7807 88.5186 53.0732 87.8322C52.3657 87.1458 52.9459 85.7932 52.839 84.7763Z" fill="#303537"/>
<path d="M59.4307 88.0051C60.5199 87.878 61.8688 87.5374 62.6221 88.0865C63.3754 88.6356 62.7595 90.1203 62.9478 91.183C62.1731 91.1398 61.3965 91.1398 60.6217 91.183C59.6495 91.2796 59.4103 90.8627 59.4765 89.9831C59.4969 89.3234 59.4816 88.6631 59.4307 88.0051Z" fill="#303537"/>
<path d="M52.8538 3.39145L52.8232 0.132196C53.8718 0.177958 55.2003 -0.310192 55.8772 0.330474C56.5542 0.971141 56.0299 2.33383 56.1165 3.38127L52.8538 3.39145Z" fill="#303537"/>
<path d="M76.2575 0.172987C76.2575 0.915346 76.2575 1.66789 76.283 2.41025C76.3084 3.15261 76.1201 3.50853 75.3108 3.42718C74.5015 3.34582 73.738 3.39157 72.9541 3.3814C72.9541 2.51701 72.9999 1.65263 72.9541 0.788241C72.9541 0.279776 73.1323 0.101814 73.6413 0.122153C74.5218 0.172999 75.3922 0.162817 76.2575 0.172987Z" fill="#303537"/>
<path d="M49.4951 3.45238L52.8239 3.42188V6.56928C49.546 6.98113 49.546 6.98113 49.4951 3.45238Z" fill="#303537"/>
<path d="M56.1981 13.0828C56.9464 13.0828 57.6946 13.1743 58.4377 13.1234C59.1809 13.0726 59.6135 13.2658 59.5219 14.1404C59.4456 14.8777 59.5219 15.6302 59.4863 16.3827C55.4092 16.3878 56.1981 17.1505 56.1981 13.0828Z" fill="#303537"/>
<path d="M69.6254 16.3981C69.6661 15.658 69.6661 14.9162 69.6254 14.1761C69.5491 13.3117 69.9003 13.1032 70.6943 13.1592C71.4884 13.2151 72.1755 13.1592 72.9186 13.1287C72.9214 13.1676 72.9214 13.2067 72.9186 13.2456C72.8779 17.1506 73.7941 16.4286 69.6254 16.3981Z" fill="#303537"/>
<path d="M56.1421 26.1809C56.0403 27.1979 56.6053 28.5656 55.8876 29.2317C55.1699 29.8978 53.8516 29.3792 52.8336 29.4402L52.8794 29.0944C52.971 28.1385 52.4366 26.8216 53.0982 26.3182C53.7599 25.8148 55.0986 26.1403 56.1421 26.1809Z" fill="#353A3B"/>
<path d="M76.2626 29.3842C75.2039 29.3842 73.8448 29.8419 73.2086 29.2215C72.5723 28.6012 73.117 27.1877 72.9643 26.1707C73.7787 26.1707 74.5931 26.1708 75.4024 26.1199C76.2117 26.0691 76.3491 26.3945 76.3084 27.0707C76.2371 27.8283 76.2677 28.6114 76.2626 29.3842Z" fill="#303537"/>
<path d="M49.5047 29.5112C49.5047 30.2892 49.5047 31.0672 49.5454 31.8451C49.5759 32.4705 49.3825 32.7959 48.6954 32.7553C47.8403 32.6993 46.9851 32.7044 46.1504 32.679C46.3314 31.961 46.366 31.214 46.2522 30.4824C46.1911 29.6282 46.5169 29.4045 47.3109 29.4655C48.1049 29.5265 48.7666 29.5062 49.5047 29.5112Z" fill="#303537"/>
<path d="M46.1816 78.2427C46.1816 79.3105 46.1816 80.3782 46.1816 81.446C42.8782 81.5985 42.8782 81.5985 42.8477 78.2477L46.1816 78.2427Z" fill="#303537"/>
<path d="M82.8848 81.446C82.8848 80.3782 82.8848 79.3105 82.8848 78.2427H86.2289C86.1831 81.5528 86.1831 81.5528 82.8848 81.446Z" fill="#303537"/>
<path d="M32.9375 62.0633C32.9375 57.6803 32.9375 53.3008 32.9375 48.9246L36.2714 48.9703C36.2714 53.2618 36.2714 57.5532 36.2714 61.8447C35.172 62.282 34.042 61.9413 32.9375 62.0633Z" fill="#353A3B"/>
<path d="M32.9367 62.0634C34.0412 61.9413 35.1712 62.282 36.2503 61.8447H92.8354V65.1548H32.9316C32.9384 64.1311 32.9401 63.1006 32.9367 62.0634Z" fill="#716D40"/>
</g>
<defs>
<clipPath id="clip0_460_168080">
<rect width="129" height="94" fill="white"/>
</clipPath>
</defs>
</svg>
