<svg width="49" height="48" viewBox="0 0 49 48" fill="none" xmlns="http://www.w3.org/2000/svg">
<g clip-path="url(#clip0_485_155386)">
<path d="M25.2601 44.5191L21.9602 41.0554C21.6925 41.2837 21.0677 41.846 20.7622 42.0366C19.4301 42.9285 17.8315 43.3377 16.2333 43.1957C14.6351 43.0537 13.1341 42.3691 11.9812 41.2563C10.8283 40.1437 10.0932 38.6703 9.89879 37.082C9.70437 35.494 10.0624 33.8874 10.913 32.5308V32.5251L12.4885 30.1214L17.4715 22.5302C18.1655 21.4711 18.4092 20.1806 18.1489 18.9425C17.8886 17.7043 17.1457 16.62 16.0836 15.928L6.89458 29.9388L6.79617 30.1123C6.64055 30.368 6.49066 30.6257 6.35452 30.8914C5.57447 32.4077 5.13536 34.0754 5.06779 35.7783C5.0002 37.4808 5.30577 39.178 5.96317 40.7508C8.09482 45.8974 13.6762 48.8737 19.1501 47.7705C20.7074 47.4588 22.186 46.838 23.498 45.9451C23.9511 45.6314 24.5404 45.134 25.2601 44.5191Z" fill="#96EE64"/>
<path d="M6.48754 31.9516L8.77593 27.7522C8.48073 27.5662 7.74616 27.1498 7.47041 26.9182C6.20589 25.9313 5.31971 24.5413 4.96021 22.9808C4.60067 21.4203 4.78962 19.784 5.49539 18.3458C6.20119 16.9076 7.38101 15.7548 8.83737 15.0802C10.2937 14.4057 11.9383 14.2503 13.4957 14.6403H13.5026L16.283 15.3909L25.0567 17.7628C26.2815 18.0937 27.5879 17.926 28.6888 17.2965C29.7894 16.6671 30.5943 15.6275 30.9265 14.4064L14.7189 10.03L14.5232 9.99124C14.2326 9.92166 13.9397 9.86004 13.6433 9.81212C11.956 9.54106 10.2297 9.63998 8.58463 10.102C6.93955 10.5641 5.41525 11.3781 4.11789 12.4875C-0.131654 16.0994 -1.2461 22.3126 1.49769 27.1624C2.27483 28.543 3.32229 29.7539 4.57786 30.723C5.02181 31.0539 5.67859 31.4587 6.48754 31.9516Z" fill="#96EE64"/>
<path d="M12.6738 10.265L17.3856 11.1332C17.4703 10.7966 17.6408 9.97177 17.7769 9.63749C18.3283 8.13414 19.3806 6.86511 20.7578 6.0426C22.1351 5.22011 23.7538 4.894 25.3433 5.11886C26.9328 5.34369 28.3966 6.10583 29.4901 7.27783C30.5836 8.44983 31.2404 9.96063 31.3504 11.5576V11.5656L31.4926 14.4337L31.9422 23.4864C32.0052 24.7499 32.5688 25.9367 33.5093 26.7858C34.4497 27.6349 35.6899 28.0769 36.9571 28.0145L36.1218 11.2975L36.0991 11.1001C36.0751 10.8023 36.0441 10.5057 35.9971 10.2102C35.7349 8.52657 35.1077 6.9202 34.1592 5.50297C33.2104 4.08571 31.9636 2.89169 30.5051 2.00399C25.7463 -0.909772 19.4761 -0.0495614 15.6979 4.05754C14.6208 5.22109 13.7892 6.58869 13.2528 8.07909C13.0777 8.59817 12.8946 9.34543 12.6738 10.265Z" fill="#96EE64"/>
<path d="M35.2709 9.42959L35.899 14.163C36.2423 14.1402 37.0853 14.0489 37.4458 14.0729C39.0496 14.1314 40.5847 14.7372 41.7945 15.7888C43.004 16.8404 43.815 18.2742 44.0918 19.8505C44.3683 21.4268 44.0941 23.0499 43.3144 24.4487C42.5346 25.8474 41.2973 26.9369 39.8087 27.5351H39.803L37.1106 28.5618L28.6138 31.786C28.0261 32.0088 27.4882 32.3451 27.0309 32.7754C26.5736 33.206 26.2059 33.722 25.9487 34.294C25.6915 34.8663 25.55 35.4831 25.5322 36.11C25.5144 36.7368 25.6206 37.3608 25.8449 37.9466L41.534 31.9903L41.7148 31.9068C41.9919 31.7928 42.2653 31.6706 42.5318 31.5348C44.0571 30.7657 45.3956 29.6743 46.4541 28.3364C47.5129 26.9984 48.2659 25.4464 48.6614 23.7885C49.9703 18.3762 47.2094 12.697 42.1303 10.3811C40.6873 9.71948 39.1259 9.35362 37.5387 9.30525C36.9859 9.29839 36.2159 9.35542 35.2709 9.42959Z" fill="#96EE64"/>
<path d="M43.0499 30.6007L38.7261 32.6545C38.8554 32.9773 39.2033 33.7439 39.2901 34.0942C39.7311 35.6336 39.6285 37.2773 38.9995 38.7505C38.3703 40.2236 37.253 41.4365 35.8343 42.1862C34.4153 42.9362 32.7814 43.1773 31.2057 42.8696C29.6299 42.5616 28.2079 41.7236 27.1777 40.4956V40.4899L25.3664 38.2582L19.6649 31.1976C18.8687 30.2133 17.7131 29.5844 16.4521 29.4496C15.1912 29.3147 13.9281 29.6844 12.9404 30.4776L23.4671 43.5153L23.6021 43.6625C23.7966 43.8907 23.9968 44.111 24.2085 44.3219C25.4133 45.531 26.8679 46.4636 28.4712 47.0545C30.0744 47.6456 31.7876 47.881 33.4915 47.7445C39.0591 47.3133 43.6233 42.9393 44.2629 37.4085C44.448 35.8356 44.3141 34.2419 43.8691 32.7216C43.7055 32.1887 43.4127 31.4747 43.0499 30.6007Z" fill="#96EE64"/>
</g>
<defs>
<clipPath id="clip0_485_155386">
<rect width="49" height="48" fill="white"/>
</clipPath>
</defs>
</svg>
