<svg width="86" height="82" viewBox="0 0 86 82" fill="none" xmlns="http://www.w3.org/2000/svg">
<path d="M64.5191 38.5386H84.3563C84.5022 38.5386 84.648 38.5386 84.7982 38.5386C85.6821 38.5788 85.987 38.8597 86.0003 39.7873C86.0003 41.0805 86.0003 42.3737 86.0003 43.667V51.3327C86.0003 51.5646 86.0003 51.7786 86.0003 52.0373C85.9384 52.7463 85.6821 53.0407 84.9617 53.0897C84.2414 53.1388 83.636 53.0897 82.9511 53.0897C82.6905 53.0763 82.4295 53.0763 82.1689 53.0897C81.9345 53.0897 81.7097 53.1837 81.544 53.3509C81.3782 53.5182 81.2851 53.7451 81.2851 53.9816C81.2718 54.2163 81.2718 54.4515 81.2851 54.6862C81.2851 56.7405 81.2851 58.7963 81.2851 60.8536C81.2851 61.0899 81.2851 61.3218 81.2851 61.5581C81.2321 62.3787 80.9669 62.673 80.1582 62.7042C79.4644 62.731 78.7618 62.7042 78.0636 62.7042C76.7378 62.7042 76.5302 62.9138 76.5302 64.2204C76.5302 66.2182 76.5302 68.2161 76.5302 70.2139C76.5302 70.4502 76.5302 70.6821 76.5302 70.9185C76.4948 72.0824 76.2208 72.3589 75.0498 72.3589C72.9242 72.3589 70.7986 72.3589 68.6686 72.3589C68.4963 72.3589 68.3195 72.3589 68.1472 72.3589C67.2634 72.3901 66.9938 72.6443 66.9717 73.5228C66.9717 74.2541 66.9717 74.9899 66.9717 75.7257C66.9717 76.9164 66.7065 77.1616 65.5222 77.1706C64.7931 77.1706 64.0639 77.1438 63.3348 77.1706C62.5173 77.1706 62.2389 77.4738 62.2168 78.2988C62.1947 79.1238 62.2168 79.8284 62.2168 80.5909C62.2168 81.7192 61.8942 82.0001 60.8027 82.0001L26.3736 81.9689C25.9936 81.9689 25.618 82.0001 25.2379 82.0001C24.2878 82.0001 23.9696 81.6969 23.9431 80.747C23.9431 80.0736 23.9431 79.4092 23.9431 78.7224C23.9431 77.4069 23.7089 77.1617 22.4318 77.1617H16.139C15.877 77.175 15.6145 77.175 15.3525 77.1617C15.2273 77.1665 15.1025 77.1456 14.9856 77.1C14.8688 77.0545 14.7624 76.9853 14.673 76.8968C14.5836 76.8082 14.5131 76.7022 14.4658 76.5852C14.4185 76.4682 14.3954 76.3426 14.3979 76.2163C14.3869 76.041 14.3869 75.8653 14.3979 75.69C14.3979 73.4247 14.3979 71.1637 14.3979 68.9028C14.3979 67.7077 14.6675 67.449 15.8341 67.4401C16.5058 67.4401 17.1598 67.4401 17.8448 67.4401C18.8921 67.4401 19.1484 67.1726 19.1705 66.1424C19.1705 65.3799 19.1705 64.6173 19.1705 63.8547C19.2058 62.9049 19.5152 62.6061 20.4742 62.5927C21.1989 62.5927 21.928 62.6418 22.6572 62.6329C23.6691 62.6329 23.9519 62.3252 23.9829 61.295C23.9829 60.5325 23.9829 59.7699 23.9829 59.0074C23.9829 58.0798 24.2834 57.7989 25.1981 57.7766C25.9847 57.7766 26.7714 57.7766 27.5579 57.7766C28.4418 57.7766 28.7113 57.4912 28.7334 56.6127C28.7334 55.8189 28.7334 55.0251 28.7334 54.2358C28.7334 53.2681 29.0471 52.9872 30.0105 52.9693C30.7662 52.9693 31.5263 52.9693 32.2819 52.9693C33.2055 52.9693 33.4706 52.6795 33.4883 51.7474C33.4883 51.0428 33.4883 50.3338 33.4883 49.6292C33.4883 48.3761 33.8021 48.0996 35.0704 48.1398C35.6537 48.1398 36.237 48.171 36.838 48.171C38.0488 48.171 38.3051 47.9079 38.3095 46.6548C38.3095 46.2445 38.2831 45.8342 38.2786 45.424C38.2786 45.0984 38.2786 44.7729 38.2786 44.4563C38.3538 43.6313 38.6233 43.3548 39.432 43.3281C40.2407 43.3013 41.0052 43.3281 41.7918 43.3281C42.7817 43.3281 43.038 43.0649 43.0601 42.075C43.0601 41.3392 43.0601 40.6078 43.0601 39.872C43.0601 38.8017 43.3517 38.5342 44.43 38.5342C47.3421 38.5342 50.2543 38.5342 53.1709 38.5342H64.6163L64.5191 38.5386Z" fill="#5326EC"/>
<path d="M9.63361 43.573V60.9335C9.63361 61.0494 9.63361 61.1654 9.63361 61.2858C9.63361 62.4809 9.38613 62.7128 8.17972 62.7217C7.42406 62.7217 6.66844 62.7217 5.90836 62.7217C5.14828 62.7217 4.80356 62.3962 4.7682 61.5845C4.73285 60.7729 4.7682 60.0015 4.7682 59.2077C4.7682 58.1686 4.50306 57.9278 3.44248 57.9189C2.71333 57.9189 1.98863 57.9412 1.25948 57.9189C0.309379 57.9189 0.0353526 57.6067 0 56.6301C0 56.425 0 56.2199 0 56.0147V25.8825C0 24.2503 0.163558 24.0987 1.82071 24.0987C2.40403 24.0987 2.98293 24.0987 3.58834 24.0987C4.51635 24.0987 4.77705 23.8222 4.78147 22.8724C4.78147 20.7541 4.78147 18.6404 4.78147 16.5266C4.78147 16.2635 4.78147 15.9959 4.78147 15.7328C4.82566 14.7696 5.11291 14.4753 6.05859 14.453C6.69936 14.453 7.34012 14.453 7.98088 14.453C8.18401 14.4641 8.38759 14.4641 8.59072 14.453C9.26684 14.395 9.53196 14.1497 9.56289 13.4541C9.59383 12.7584 9.56289 12.0449 9.56289 11.3403C9.56289 9.84194 9.75738 9.64572 11.2113 9.65018H12.537C14.2383 9.65018 14.3488 9.54316 14.3399 7.78615C14.3399 7.22872 14.3399 6.6713 14.3399 6.11387C14.3709 5.12834 14.6316 4.85184 15.6082 4.84738C17.7647 4.84738 19.9168 4.84738 22.0733 4.84738C22.3075 4.84738 22.5417 4.84738 22.7715 4.84738C23.5714 4.79833 23.8631 4.50847 23.894 3.6924C23.9249 2.87632 23.894 2.16727 23.894 1.40471C23.894 0.294319 24.1945 0.0178377 25.3169 0C25.8737 0 26.4261 0 26.9785 0H60.4486C61.9511 0 62.1676 0.218509 62.1765 1.72579C62.1765 2.40362 62.1765 3.06363 62.1765 3.75483C62.203 4.53969 62.4681 4.81618 63.2415 4.84293C64.0148 4.86969 64.8147 4.84293 65.6013 4.84293C66.6353 4.84293 66.927 5.11941 66.927 6.13616C66.927 6.96115 66.9491 7.78169 66.927 8.60668C66.9049 9.43167 66.6044 9.70815 65.8089 9.77058C65.6366 9.77058 65.4599 9.77058 65.2875 9.77058H49.1181C48.0575 9.74383 47.7614 9.46289 47.7393 8.41047C47.7393 7.67912 47.7393 6.94332 47.7393 6.20751C47.7393 5.23982 47.4388 4.92766 46.4843 4.9232C42.5837 4.9232 38.6817 4.9232 34.7782 4.9232C33.8369 4.9232 33.5497 5.24874 33.5364 6.22536C33.5364 6.86751 33.5364 7.51412 33.5364 8.16074C33.5364 9.49857 33.2801 9.77058 31.9632 9.77058H25.5821C24.1547 9.77058 23.9691 9.9445 23.9735 11.3849C23.9735 12.0003 23.9735 12.6157 23.9735 13.2356C23.9514 14.3014 23.6774 14.5734 22.5948 14.5734C21.8965 14.5734 21.1983 14.5734 20.5001 14.5734C19.4705 14.5734 19.223 14.8454 19.2142 15.9112C19.2142 16.6158 19.2142 17.3204 19.2142 18.025C19.2142 19.1309 18.9491 19.3628 17.8885 19.3985C17.3361 19.3985 16.7837 19.3985 16.2269 19.3985C14.6007 19.3985 14.4593 19.5233 14.4593 21.1243C14.4593 21.7441 14.4593 22.3595 14.4593 22.9749C14.4195 23.9337 14.1367 24.2146 13.1689 24.2458C12.5281 24.2458 11.8874 24.2458 11.2466 24.2458C9.86342 24.2458 9.66458 24.4331 9.66458 25.7977V43.5953L9.63361 43.573Z" fill="#5326EC"/>
<path d="M81.2453 24.2057C81.2453 25.3517 81.2453 26.4934 81.2453 27.6394C81.2453 28.7855 80.9492 29.0218 79.8267 29.0308C79.0976 29.0308 78.3729 29.0085 77.6437 29.0308C76.7599 29.0308 76.508 29.3206 76.4859 30.2081C76.4859 30.9706 76.4859 31.7332 76.4859 32.4957C76.4594 33.5214 76.1722 33.8336 75.1602 33.8336C74.3471 33.8336 73.5296 33.8559 72.7164 33.8336C71.9033 33.8113 71.6338 33.5348 71.6028 32.6964C71.5763 31.9963 71.6028 31.2917 71.6028 30.5871C71.6028 29.276 71.3598 29.0308 70.0871 29.0308C69.4463 29.0308 68.8055 29.0308 68.1692 29.0308C67.113 29.0308 66.8435 28.7454 66.8037 27.6617C66.8037 26.7698 66.8037 25.8423 66.8037 24.937C66.8037 23.5278 66.8037 22.1187 66.8037 20.7095C66.8037 19.5902 67.1087 19.3092 68.2134 19.3003C68.9116 19.3003 69.6099 19.3003 70.3081 19.3003C71.3024 19.3003 71.5896 18.9882 71.6072 17.9625C71.6072 17.2267 71.6072 16.4953 71.6072 15.7595C71.6072 14.7874 71.9166 14.4797 72.849 14.4529C73.6356 14.4262 74.4222 14.4262 75.2088 14.4529C76.1545 14.4797 76.4417 14.774 76.4727 15.7417C76.4992 16.5043 76.4727 17.2668 76.4727 18.0294C76.4727 19.0194 76.7422 19.278 77.7277 19.2959C78.4524 19.2959 79.1816 19.2959 79.9063 19.2959C80.9404 19.2959 81.232 19.5723 81.232 20.598C81.2585 21.802 81.2409 23.0016 81.2453 24.2057Z" fill="#5326EC"/>
</svg>
