<svg width="77" height="100" viewBox="0 0 77 100" fill="none" xmlns="http://www.w3.org/2000/svg">
<g clip-path="url(#clip0_460_168059)">
<path d="M75.0248 36.0265C75.0248 35.804 74.9803 35.5865 74.9605 35.3689C73.9468 35.3294 72.7057 35.7843 71.9937 35.186C71.2817 34.5877 71.8454 33.3416 71.7168 32.3873C71.7168 32.2538 71.6723 32.1252 71.6476 31.9917C70.6587 31.8483 69.3533 32.4021 68.6808 31.7297C68.0083 31.0572 68.5671 29.7518 68.4138 28.7629C67.6723 28.6995 66.9277 28.6781 66.1838 28.6986C65.2245 28.7777 64.9575 28.3772 65.0218 27.4872C65.0762 26.7455 65.0218 26.0038 64.9773 25.2473C63.9884 25.2077 62.6978 25.5291 62.0451 25.0297C61.2639 24.4314 61.9215 23.0519 61.7287 22.0382C60.9877 21.9659 60.243 21.9378 59.4987 21.9542C58.5444 22.0283 58.2575 21.6476 58.3268 20.7477C58.3861 20.006 58.3268 19.2643 58.3021 18.5028C57.2835 18.4583 55.9929 18.7797 55.3353 18.2754C54.6777 17.771 55.2117 16.3569 55.0436 15.358C55.0224 15.2708 54.996 15.1849 54.9644 15.1009C54.389 15.028 53.8082 15.0064 53.2289 15.0366C51.8988 15.2146 51.4686 14.6559 51.6417 13.3901C51.6762 12.8545 51.6663 12.317 51.612 11.7831H51.2115C50.366 11.7831 49.3276 12.055 48.7392 11.6644C47.9925 11.1699 48.487 10.0327 48.4425 9.19209C48.4128 8.56907 48.2299 8.29217 47.5871 8.34656C47.1915 8.38117 46.7811 8.30701 46.3855 8.34656C45.2977 8.49985 44.9318 8.09933 44.9664 6.96701C45.0307 4.76171 45.268 5.0485 43.1072 5.01883C42.9292 5.01883 42.7512 5.01883 42.5732 5.01883C41.9601 5.07816 41.7228 4.85072 41.6931 4.19803C41.6535 3.34261 42.1529 2.18062 41.3964 1.72572C40.7388 1.3252 39.6658 1.61199 38.7758 1.60704C38.5972 1.61039 38.4189 1.62359 38.2417 1.6466V11.788C38.2417 12.8659 38.217 13.9389 38.2071 15.0169V18.4781V15.0169C38.2071 13.9389 38.2071 12.8659 38.2417 11.788V1.6466C38.0242 1.6466 37.8017 1.60704 37.5792 1.60704C35.1069 1.57243 35.0772 1.57243 35.0129 4.01507C35.0129 4.59359 35.0129 5.004 34.2069 5.04355C31.6654 5.19189 31.6703 5.23145 31.705 7.80759C31.705 7.9411 31.705 8.07461 31.705 8.20811C30.8347 8.47018 29.9447 8.3169 29.0645 8.33173C28.5058 8.33173 28.2981 8.52951 28.2734 9.10309C28.2338 9.9684 28.7085 11.1749 28.0459 11.615C27.3833 12.055 26.256 11.7633 25.3313 11.793H25.0693C24.8072 12.861 25.5242 14.2208 24.6885 14.9773C23.932 15.6596 22.6217 14.9773 21.5883 15.3036L21.5586 18.4929H18.3742C18.127 19.5659 18.8242 20.9207 17.9985 21.6871C17.2469 22.3893 15.9316 21.7218 14.8982 22.0234C14.9229 25.2028 14.9229 25.2028 11.7139 25.2275C11.6891 26.073 11.6249 26.9186 11.6595 27.7641C11.6595 28.4563 11.4518 28.7184 10.7447 28.6887C9.90411 28.6591 9.05859 28.7382 8.21306 28.7678C8.21306 32.0016 8.21306 32.0016 5.0485 31.967C5.01389 32.8076 4.92983 33.6482 4.95455 34.4888C4.97928 35.181 4.73699 35.4282 4.0398 35.4085C3.19921 35.3788 2.35862 35.4579 1.51804 35.4925C1.51804 36.5111 1.49332 37.5297 1.48344 38.5483C1.47763 38.587 1.48037 38.6264 1.49148 38.6639C1.50259 38.7013 1.5218 38.7359 1.54773 38.7652C1.57367 38.7944 1.60571 38.8176 1.64159 38.8331C1.67747 38.8486 1.71632 38.856 1.75538 38.8549C2.2004 38.8549 2.65036 38.8203 3.09537 38.8252C5.25617 38.8549 4.99412 38.5681 4.90017 40.6596C4.84083 41.9601 5.3155 42.2172 6.47749 42.143C8.21305 42.059 8.20812 42.143 8.22296 43.8193C8.22296 45.8367 7.9856 45.6488 10.0277 45.5301C11.4221 45.451 11.882 45.9059 11.6446 47.2212C11.4073 48.5364 11.9017 49.1347 13.2763 48.8826C14.5026 48.66 15.007 49.0606 14.9427 50.4253C14.8388 52.5712 14.6312 52.2498 16.7326 52.2845C16.8658 52.2968 16.9999 52.2968 17.1331 52.2845C18.0726 52.1361 18.4534 52.5218 18.3149 53.4613C18.2754 53.7233 18.3495 54.0052 18.3149 54.2623C18.1023 55.4342 18.5127 55.8001 19.734 55.7457C21.8899 55.6567 21.5734 55.454 21.608 57.5258C21.6204 57.6606 21.6204 57.7963 21.608 57.9312C21.4745 58.8212 21.8651 59.0536 22.7305 59.0487C24.9753 59.0487 24.9753 59.0734 25.0099 61.2837C25.0124 61.3298 25.0124 61.376 25.0099 61.4221C24.8962 62.2132 25.1929 62.4951 26.0335 62.5C28.2486 62.5 28.2487 62.5445 28.3031 64.6856C28.308 64.7745 28.308 64.8636 28.3031 64.9526C28.2289 65.6003 28.5453 65.7635 29.1585 65.7981C31.6901 65.9464 31.6901 65.9662 31.6901 68.4632C31.6901 68.6907 31.6901 68.9132 31.6901 69.1357L34.9536 69.2V69.3335C34.9832 70.357 34.6322 71.6773 35.1415 72.3299C35.7497 73.1112 37.149 72.4585 38.1923 72.6414L38.2368 72.7156L38.311 72.6761L41.703 72.5574C41.5892 69.2396 41.5892 69.2396 44.8972 69.1753C45.1741 68.1072 44.4027 66.6684 45.2779 66.0305C45.9949 65.5014 47.325 65.7932 48.3831 65.7239C48.4227 65.0553 48.4227 64.385 48.3831 63.7164C48.2645 62.7275 48.6057 62.416 49.6243 62.4506C51.6516 62.5198 51.6515 62.4506 51.6614 60.4282C51.6664 60.3393 51.6664 60.2502 51.6614 60.1612C51.5329 59.3009 51.8543 58.9992 52.7592 59.0042C54.9645 59.0042 54.9644 58.9696 55.0633 56.6852C55.0683 56.5962 55.0683 56.5071 55.0633 56.4182C55.0238 55.9237 55.276 55.7407 55.7754 55.7012C56.6011 55.6369 57.7532 56.1264 58.1735 55.454C58.5938 54.7815 58.3169 53.7283 58.3466 52.8383C58.3466 52.6602 58.3466 52.4822 58.3762 52.3042C59.1723 52.3042 59.9684 52.2498 60.7595 52.3042C61.5507 52.3586 61.7831 52.1114 61.7485 51.34C61.7139 50.5687 61.5902 49.6589 61.882 48.843C64.9921 49.0012 64.9921 49.0012 65.0218 45.9998C65.0218 45.8663 65.0218 45.7378 65.0218 45.6043C66.075 45.5697 67.4051 45.9108 68.1171 45.3966C68.9083 44.8329 68.2407 43.4188 68.4336 42.3804C68.4336 42.2963 68.4682 42.2073 68.488 42.1233H69.1506C71.5536 42.1233 71.5734 42.1233 71.6871 39.6856C71.7168 39.107 71.8256 38.84 72.4882 38.7955C75.0841 38.6373 75.0841 38.5977 75.0248 36.0265Z" fill="#D86365" stroke="#212020" stroke-width="6" stroke-linejoin="round"/>
<path d="M71.5688 81.7593C71.4996 80.1968 71.5144 78.6294 71.5688 77.0669C71.5688 76.3103 71.4699 75.9741 70.5799 75.984C68.3103 75.984 68.2906 75.9543 68.2362 73.6452C68.2362 73.0419 68.1966 72.6562 67.3956 72.6562C64.32 72.7205 61.2395 72.7304 58.159 72.7551C58.159 72.8442 58.159 72.9332 58.159 73.0222C58.1936 76.1966 58.1936 76.1966 54.9154 75.9296L48.2747 75.9889C48.2747 76.0779 48.2401 76.1669 48.2302 76.251C48.0918 77.2993 48.695 78.7826 47.9632 79.287C47.2314 79.7913 45.8271 79.4106 44.7196 79.4106C44.2251 79.4106 43.7306 79.4551 43.2362 79.4601C41.4957 79.4601 41.4116 79.46 41.5253 81.2006C41.6044 82.4466 41.3176 83.0548 39.9777 82.7828C39.8491 82.7828 39.7106 82.7828 39.5821 82.7828C38.4498 82.59 37.9207 82.9559 38.0987 84.2019C38.133 84.8623 38.1065 85.5243 38.0196 86.1798C37.001 86.1798 35.666 85.8287 35.0528 86.338C34.321 86.9363 34.9193 88.3159 34.7858 89.379C34.7784 89.4678 34.7784 89.5571 34.7858 89.646L34.7413 89.6163C31.023 89.5768 31.0229 89.5768 31.3839 92.9391H31.3542C27.3343 92.9391 28.1699 92.2815 28.0957 96.1284C28.1 96.2182 28.1116 96.3075 28.1304 96.3954C28.1304 100.574 27.3738 99.6885 31.4284 99.7627C31.468 99.7627 31.5075 99.7231 31.5471 99.6984L38.0196 99.6687C41.1495 100.405 41.4808 100.163 41.4808 97.142C41.4808 96.875 41.4808 96.608 41.4808 96.3459C41.4808 96.0839 41.4808 95.718 41.4808 95.4065C41.4808 93.0083 41.4808 92.9688 43.8592 92.9341C44.6602 92.9341 44.7937 92.6523 44.7987 91.9452C44.7987 89.6311 44.8333 89.6311 47.1671 89.5817C47.256 89.5743 47.3453 89.5743 47.4341 89.5817C48.0226 89.6608 48.1857 89.3987 48.2055 88.8252C48.2451 87.9549 47.7605 86.7682 48.428 86.2985C49.0955 85.8287 50.1487 86.1798 51.0388 86.1699H52.6458C54.8313 86.1699 54.9055 86.1699 54.8165 84.0437C54.767 82.9163 55.1922 82.7581 56.1713 82.7631C60.9527 82.8076 65.7342 82.7631 70.5107 82.8026C71.371 82.8125 71.6084 82.59 71.5688 81.7593Z" fill="#403A3A"/>
<path d="M28.09 84.2168C28.0554 83.2278 28.1444 82.6839 29.3954 82.7334C31.4573 82.8471 31.4622 82.7334 31.477 80.6121C31.4844 80.5233 31.4844 80.434 31.477 80.3451C31.3336 79.5391 31.744 79.4155 32.4659 79.4155C34.7899 79.4155 34.7899 79.376 34.8196 77.0866C34.8245 76.9977 34.8245 76.9085 34.8196 76.8196C34.7306 76.1916 34.9729 75.9939 35.6256 75.9691C38.1572 75.8752 38.1523 75.8455 38.1572 73.2595C38.1572 73.0815 38.1572 72.9035 38.1572 72.7255L38.0781 72.7601L38.0385 72.6859C36.9952 72.5079 35.591 73.1804 34.9828 72.3793C34.4883 71.7266 34.8245 70.4015 34.7949 69.378C34.7973 69.3351 34.7973 69.2922 34.7949 69.2494L31.5314 69.1802C30.9125 69.2499 30.2886 69.2632 29.6673 69.2197C28.3273 69.0071 28.0257 69.556 28.1048 70.8119C28.2235 72.6414 28.1345 72.6463 26.3198 72.6463C26.1865 72.6562 26.0526 72.6562 25.9193 72.6463C25.054 72.5029 24.7919 72.8392 24.8067 73.7243C24.8413 75.9642 24.8067 75.9642 22.6163 75.984C22.5275 75.9938 22.438 75.9938 22.3493 75.984C21.657 75.8851 21.3949 76.157 21.4345 76.874C21.479 77.7195 21.4345 78.5651 21.4345 79.4155C20.411 79.4403 19.0907 79.0793 18.4677 79.5836C17.7013 80.1869 18.3144 81.5615 18.1958 82.6246C17.1228 82.8867 16.035 82.7284 14.9472 82.7284C11.5403 82.4219 11.5403 82.4219 11.5354 85.8337V86.1056C9.55754 86.1056 7.57968 86.1649 5.63645 86.1353C4.9887 86.1353 4.75136 86.3182 4.82059 86.961C4.87995 87.361 4.87995 87.7675 4.82059 88.1675C4.58325 89.4284 5.17166 89.6509 6.30397 89.5866C8.14337 89.4976 8.14831 89.5866 8.14831 91.3617C8.16067 91.4966 8.16067 91.6323 8.14831 91.7672C7.97524 92.7561 8.44499 92.9341 9.33996 92.9193C12.7369 92.8698 16.1339 92.9193 19.5308 92.9193C21.5087 92.9193 21.6026 92.9193 21.484 91.0008C21.4098 89.7795 21.8004 89.5174 22.9673 89.557C24.9056 89.6558 24.9452 89.5569 24.8908 87.6483C24.8562 86.605 24.9452 86.0364 26.2703 86.1353C28.0999 86.2787 28.1542 86.1649 28.09 84.2168Z" fill="#403A3A"/>
<path d="M66.2379 86.1648C66.0601 86.1772 65.8817 86.1772 65.7039 86.1648C65.1056 86.0907 64.8386 86.2539 64.8337 86.9461C64.8337 87.8065 65.2836 88.9882 64.6013 89.4481C63.9189 89.9079 62.8756 89.5618 61.9856 89.5717C61.8076 89.5717 61.6246 89.5717 61.4466 89.5717C60.3835 89.631 58.9347 89.1118 58.3611 89.7744C57.7876 90.437 58.1782 91.7819 58.1535 92.845H58.1139V92.8796L54.9741 92.9192C54.9076 93.3432 54.868 93.7709 54.8554 94.1998C54.868 93.7709 54.9076 93.3432 54.9741 92.9192H52.3089C51.8936 92.9192 51.5673 92.9192 51.4535 93.4977C50.9591 95.797 51.4239 96.3755 53.7379 96.3755H54.9395H58.1189C61.9757 96.3755 61.2686 96.8106 61.3625 93.1318V92.9983C61.7136 92.9983 62.0696 92.9439 62.4256 92.9439C64.7842 92.9439 64.8238 92.9439 64.8337 90.5359C64.8337 89.7596 65.071 89.4926 65.8226 89.5915C66.1292 89.636 66.4555 89.5568 66.7571 89.5915C67.9488 89.7892 68.3048 89.3096 68.2405 88.1081C68.1466 86.1698 68.2207 86.1648 66.2379 86.1648Z" fill="#403A3A"/>
<path d="M44.66 72.6365C45.8516 72.6118 47.0581 72.8887 48.23 72.4733C51.9384 72.414 51.3698 72.9678 51.4341 69.3038L54.92 69.195L54.8558 69.2544L54.8953 69.3285L57.8621 69.3038C58.8856 66.7821 58.2873 65.803 55.7408 65.8426C55.4293 65.8426 55.1228 65.897 54.8112 65.9266L48.2003 65.7832C47.1421 65.8525 45.812 65.5558 45.0951 66.0898C44.2347 66.7277 44.9912 68.1665 44.7143 69.2296C41.4064 69.2939 41.4064 69.2989 41.5201 72.6167L44.66 72.6365Z" fill="#403A3A"/>
<path d="M4.77684 81.4578C4.72493 80.7995 4.72493 80.1382 4.77684 79.4799C6.1465 79.4799 7.51615 79.4552 8.89075 79.4502C11.3631 79.4502 11.3927 79.4502 11.4471 76.9433C11.4471 76.3252 11.5015 75.9544 12.2877 75.9841C13.0739 76.0137 14.1321 76.3598 14.5622 75.811C14.9924 75.2621 14.7254 74.293 14.7254 73.5019C14.7254 73.0074 14.7749 72.6811 15.4226 72.6514C16.2879 72.6168 17.4796 73.1013 17.9345 72.3695C18.3894 71.6377 18.0877 70.5648 18.1273 69.6401C18.1378 69.5171 18.156 69.3949 18.1817 69.2742C18.6168 69.2742 19.0569 69.2742 19.497 69.2742C21.4204 69.2742 21.3413 69.2742 21.4451 67.2964C21.5094 66.1195 21.1831 65.6745 19.9964 65.8525C19.4186 65.8946 18.8386 65.8946 18.2608 65.8525C17.3856 65.8525 16.5104 65.8525 15.6352 65.808C14.9578 65.7734 14.6859 66.0256 14.7106 66.7178C14.7402 67.5485 14.7106 68.3792 14.6661 69.2149L11.4916 69.294C10.6016 69.294 9.70662 69.294 8.81659 69.2396C8.22818 69.2099 8.04522 69.4423 8.04028 70.0159C8.04028 70.901 8.19852 71.8058 7.89689 72.6761C4.80651 72.6464 4.8065 72.6464 4.76694 75.6775C4.76694 75.7665 4.76694 75.8555 4.76694 75.9396C3.6989 76.2263 2.26003 75.4896 1.60734 76.2956C0.954648 77.1015 1.41943 78.4267 1.45899 79.5294C1.45899 79.9299 1.42439 80.3304 1.42439 80.7309C1.42439 82.7879 1.42438 82.7087 3.42695 82.8076C4.48016 82.8571 4.94496 82.6148 4.77684 81.4578Z" fill="#403A3A"/>
<path d="M4.86598 32.0163C8.05032 32.0559 8.05032 32.0559 8.03548 28.8221C8.87607 28.7875 9.72159 28.7133 10.5622 28.743C11.2693 28.7677 11.5016 28.5056 11.4769 27.8134C11.4423 26.9728 11.5066 26.1273 11.5313 25.2818C14.7404 25.2521 14.7404 25.2521 14.7157 22.0727C15.754 21.776 17.0643 22.4435 17.8209 21.7414C18.5774 21.0393 17.9494 19.6152 18.1917 18.5422H21.3761C23.0177 18.5719 24.6494 18.6164 26.2861 18.7549C27.542 18.8636 27.8931 19.2493 27.8486 20.436C27.7942 21.9491 28.2985 22.4782 29.7671 22.5523C30.494 22.5919 30.756 22.7847 30.8005 23.5413C30.8796 25.1235 31.5669 25.7861 33.164 25.7614C34.3458 25.7614 34.7364 26.3251 34.8007 27.3635C34.865 28.4018 34.9837 29.4797 35.0727 30.5379C35.0687 30.6952 35.0978 30.8515 35.1582 30.9968C35.2185 31.142 35.3088 31.273 35.423 31.3812C35.5372 31.4893 35.6729 31.5723 35.8212 31.6246C35.9696 31.677 36.1273 31.6976 36.2841 31.685C36.7786 31.685 37.273 31.685 37.7675 31.685C38.1114 32.2599 38.3005 32.9141 38.3163 33.5838C38.2768 35.6259 38.1185 35.4924 40.1903 35.4182C41.2633 35.3787 41.5798 35.7297 41.5452 36.7829C41.4809 38.5976 41.5452 38.6471 43.4192 38.6471C44.5663 38.6471 45.0262 39.1168 45.0212 40.2541C45.0212 42.1182 45.0558 42.1528 46.9546 42.138C47.8001 42.138 48.255 42.2566 48.2501 43.2851C48.2501 45.6338 48.2995 45.6338 50.6878 45.6388C50.9152 45.6388 51.1377 45.6388 51.3602 45.6388C52.2997 45.5992 52.7645 46.687 53.7089 46.6277C53.6842 47.8045 54.6978 48.6055 54.9006 49.6538C55.4247 52.2893 55.395 52.2992 58.08 52.3684H58.2135C58.2135 52.5464 58.1887 52.7244 58.1789 52.9024C58.1492 53.7924 58.4162 54.8803 58.0058 55.5181C57.5954 56.156 56.4334 55.706 55.6077 55.7703C55.1132 55.8098 54.861 55.973 54.8957 56.4873C54.9006 56.5762 54.9006 56.6653 54.8957 56.7543C54.7968 59.0387 54.7967 59.0832 52.5914 59.0733C51.6915 59.0733 51.3652 59.37 51.4938 60.2303C51.5012 60.3192 51.5012 60.4085 51.4938 60.4973C51.4938 62.5246 51.4938 62.584 49.4566 62.5148C48.438 62.4801 48.0968 62.7867 48.2155 63.7855C48.2551 64.4541 48.2551 65.1245 48.2155 65.793C47.1573 65.8623 45.8272 65.5656 45.1102 66.0996C44.24 66.7424 45.0163 68.1912 44.7246 69.2592C41.4117 69.3235 41.4117 69.3235 41.5254 72.6463L38.1383 72.7649L38.0592 72.7996L38.0197 72.7254C38.0197 72.6364 38.0197 72.5474 38.0197 72.4633C37.9406 68.8933 38.6526 69.274 34.7661 69.2889L31.5026 69.2197C31.5026 68.9972 31.5026 68.7746 31.5026 68.5521C31.5026 66.0502 31.5027 66.0304 28.9661 65.887C28.3529 65.8474 28.0365 65.6892 28.1106 65.0365C28.118 64.9477 28.118 64.8584 28.1106 64.7695C28.0612 62.6334 28.0612 62.5889 25.8411 62.584C25.0005 62.584 24.7038 62.2972 24.8175 61.5061C24.82 61.4616 24.82 61.417 24.8175 61.3726C24.7879 59.1623 24.7878 59.1178 22.543 59.1376C21.6777 59.1376 21.2821 58.9052 21.4156 58.0151C21.4255 57.8818 21.4255 57.748 21.4156 57.6146C21.381 55.5428 21.6925 55.7406 19.5367 55.8346C18.3154 55.884 17.9049 55.5181 18.1225 54.3512C18.167 54.0891 18.0928 53.8122 18.1225 53.5502C18.2609 52.6107 17.8802 52.22 16.9407 52.3684C16.8074 52.3783 16.6736 52.3783 16.5402 52.3684C14.4388 52.3288 14.6464 52.6502 14.7503 50.5043C14.8146 49.1396 14.3102 48.739 13.0839 48.9616C11.7093 49.2137 11.2099 48.6303 11.4522 47.3001C11.6945 45.97 11.2297 45.53 9.83532 45.6091C7.79319 45.7278 8.05031 45.9157 8.03053 43.8983C8.03053 42.2072 8.03054 42.138 6.28508 42.227C5.1231 42.2814 4.65336 42.0292 4.7127 40.7436C4.80665 38.652 5.06377 38.9339 2.90297 38.9042C2.45795 38.9042 2.01293 38.9042 1.56791 38.9339L1.29102 38.6322C1.29102 37.6136 1.31574 36.5951 1.32563 35.5765C2.16622 35.5418 3.01175 35.4627 3.84739 35.4875C4.54953 35.5122 4.78686 35.2649 4.76708 34.5678C4.7473 33.6926 4.83137 32.8569 4.86598 32.0163Z" fill="#D44F7E"/>
<path d="M61.5403 22.0926C61.7282 23.1112 61.0459 24.4809 61.8568 25.0594C62.5045 25.5539 63.7852 25.2325 64.784 25.277C64.784 26.0187 64.8829 26.7603 64.8285 27.5119C64.7642 28.4069 65.0312 28.8025 65.9905 28.7234C66.7362 28.7021 67.4825 28.7252 68.2255 28.7926C68.3738 29.7815 67.82 31.0869 68.4925 31.7594C69.165 32.4318 70.4703 31.878 71.4593 32.0264C71.484 32.1549 71.5136 32.2884 71.5285 32.417C71.662 33.3713 71.1082 34.6322 71.8054 35.2156C72.5025 35.7991 73.7832 35.3591 74.7721 35.3986C74.7721 35.6162 74.8315 35.8387 74.8364 36.0562C74.9007 38.6324 74.9007 38.6571 72.3641 38.8351C71.6966 38.8846 71.5878 39.1516 71.5631 39.7301C71.4444 42.1727 71.4246 42.1727 69.0215 42.1628H68.359C68.359 41.7178 68.359 41.2679 68.359 40.8229C68.359 38.9736 68.3243 38.8994 66.4899 38.9291C65.1895 38.9291 64.6851 38.4346 64.873 37.1539C65.0609 35.8733 64.7395 35.1365 63.2611 35.4184C61.9804 35.6607 61.5453 35.1217 61.6244 33.8213C61.7282 32.1549 61.4414 31.8434 59.8295 31.967C58.4351 32.0709 57.9308 31.5912 58.1632 30.2513C58.3758 29.02 57.8615 28.5009 56.6303 28.7135C55.2903 28.9459 54.8157 28.4465 54.9145 27.0471C55.0382 25.2423 54.9145 25.1583 53.2037 25.2473C51.8687 25.3215 51.2259 24.9061 51.4632 23.5266C51.6709 22.2607 51.1121 21.8108 49.9056 22.0036C48.4816 22.2311 48.0514 21.5092 48.2443 20.2285C48.4371 18.9478 48.0712 18.3792 46.6125 18.4781C44.4864 18.6215 44.7336 18.6067 44.7632 16.6288C44.7632 15.7833 44.5852 15.2987 43.5914 15.274C41.5542 15.2246 41.5047 15.18 41.5542 13.1676C41.5838 12.149 41.3317 11.6842 40.2241 11.788C39.5094 11.8326 38.7928 11.8326 38.0781 11.788C38.0781 8.40922 38.0781 5.03039 38.0781 1.65157C38.2512 1.65157 38.4292 1.60707 38.6072 1.60707C39.4972 1.60707 40.585 1.32523 41.2278 1.72574C41.9844 2.18559 41.485 3.35252 41.5245 4.19805C41.5542 4.85074 41.7915 5.08314 42.4047 5.0238C42.5825 5.01145 42.7609 5.01145 42.9387 5.0238C45.0995 5.0238 44.8621 4.76668 44.7978 6.96703C44.7632 8.09935 45.1291 8.49987 46.2219 8.34659C46.6125 8.2922 47.0229 8.34659 47.4185 8.34659C48.0613 8.29714 48.2443 8.57404 48.2739 9.19706C48.3184 10.0525 47.824 11.1749 48.5706 11.6694C49.1689 12.0649 50.2122 11.7781 51.0429 11.793C51.1764 11.793 51.3099 11.793 51.4434 11.793C51.4977 12.3253 51.5076 12.8611 51.4731 13.395C51.3 14.6609 51.7302 15.2196 53.0603 15.0416C53.6397 15.013 54.2206 15.0362 54.7959 15.1108C54.8267 15.1934 54.8531 15.2776 54.875 15.363C55.0431 16.3519 54.4448 17.7315 55.1667 18.2803C55.8886 18.8292 57.1446 18.4682 58.1335 18.5127C58.1335 19.2594 58.2176 19.9961 58.1582 20.7526C58.089 21.6575 58.3758 22.0382 59.3301 21.9641C60.0688 21.9611 60.8069 22.0041 61.5403 22.0926Z" fill="#DD7A58"/>
<path d="M38.0489 11.8126C38.7636 11.8572 39.4802 11.8572 40.1949 11.8126C41.3025 11.6841 41.5546 12.1736 41.525 13.1922C41.4755 15.2047 41.525 15.2491 43.5622 15.2986C44.5511 15.3233 44.7489 15.7931 44.734 16.6534C44.7044 18.6313 44.4571 18.6313 46.5833 18.5027C48.042 18.4038 48.403 18.9972 48.2151 20.2531C48.0272 21.509 48.4524 22.2557 49.8764 22.0282C51.0829 21.8354 51.6417 22.2853 51.434 23.5512C51.2066 24.9307 51.8395 25.3461 53.1745 25.2719C54.9051 25.1829 55.009 25.2719 54.8853 27.0717C54.7865 28.4711 55.2611 28.9705 56.6011 28.7381C57.8323 28.5255 58.3466 29.0446 58.134 30.2758C57.9016 31.6158 58.4059 32.0955 59.8003 31.9916C61.4122 31.868 61.699 32.1795 61.5952 33.8459C61.5161 35.1463 61.9512 35.6853 63.2319 35.443C64.7153 35.1611 65.0268 35.9374 64.8438 37.1785C64.6609 38.4196 65.1603 38.9734 66.4607 38.9537C68.2951 38.924 68.3199 38.9982 68.3298 40.8474C68.3298 41.2925 68.3298 41.7424 68.3298 42.1874C68.3298 42.2764 68.2952 42.3605 68.2754 42.4495C68.0875 43.478 68.7698 44.8971 67.9589 45.4657C67.2469 45.9602 65.9217 45.6338 64.8636 45.6734L64.8092 45.6289C64.8092 45.0454 64.8092 44.4669 64.8092 43.8884C64.8092 42.1825 64.8092 42.1133 63.0736 42.1776C61.8474 42.227 61.4221 41.7177 61.5903 40.6002C61.8128 39.2256 61.2688 38.8152 59.9091 38.9042C58.1092 39.0229 58.1043 38.9289 58.0944 37.1785C58.0845 35.4281 58.0944 35.3836 56.3588 35.4726C55.187 35.532 54.6826 35.1908 54.8755 33.9893C55.0782 32.6987 54.6233 32.1202 53.2042 32.1795C52.3834 32.2141 51.2956 32.2586 51.3598 30.7505C51.4439 28.7727 51.3598 28.7331 49.382 28.7727C48.4771 28.7727 48.0272 28.5403 48.1508 27.5711C48.1953 27.2201 48.1162 26.8542 48.1508 26.5031C48.2942 25.4647 47.8096 25.2224 46.8454 25.2422C44.7538 25.2818 44.7093 25.2422 44.6747 23.0814C44.6747 22.2359 44.3434 21.9639 43.5622 22.0381C43.1616 22.0727 42.7562 22.0381 42.3557 22.0381C41.6535 22.0876 41.4558 21.7612 41.4212 21.0887C41.2877 18.5472 41.2678 18.5472 38.7659 18.5423H37.9648C37.9648 17.3852 37.9648 16.2232 37.9648 15.081C38.011 13.9734 38.039 12.884 38.0489 11.8126Z" fill="#DA705E"/>
<path d="M38.0139 15.0466C38.0139 16.2036 38.0139 17.3656 38.0139 18.5078C38.0139 20.6604 38.0139 22.8031 38.0139 24.9358V28.7481C37.7835 29.7192 37.6936 30.7183 37.7469 31.7149C37.2524 31.7149 36.7579 31.7149 36.2635 31.7149C36.1067 31.7274 35.949 31.7068 35.8006 31.6545C35.6523 31.6021 35.5166 31.5192 35.4024 31.411C35.2881 31.3029 35.1979 31.1719 35.1376 31.0266C35.0772 30.8813 35.0481 30.725 35.0521 30.5677C34.9631 29.5096 34.8543 28.4515 34.7801 27.3933C34.7059 26.3352 34.3252 25.7764 33.1434 25.7912C31.5463 25.816 30.859 25.1534 30.7799 23.5711C30.7404 22.8047 30.4733 22.6119 29.7465 22.5822C28.2631 22.508 27.7686 21.9789 27.828 20.4659C27.8725 19.2742 27.5214 18.8935 26.2655 18.7847C24.6288 18.6463 22.9971 18.6018 21.3555 18.5721L21.3851 15.3878C22.4186 15.0713 23.7289 15.7388 24.4854 15.0565C25.3211 14.3049 24.6041 12.9451 24.8661 11.8771H25.1332C26.0529 11.8474 27.1901 12.1342 27.8428 11.6991C28.4955 11.2639 28.0307 10.0525 28.0703 9.18721C28.0703 8.61364 28.3027 8.42079 28.8614 8.4109C29.7415 8.4109 30.6365 8.54936 31.5068 8.29224C31.5652 9.04897 31.5768 9.80859 31.5414 10.5668C31.4227 11.6842 31.9122 12.0057 32.9259 11.882C33.2769 11.8425 33.6379 11.882 33.9939 11.882C34.5774 11.882 34.7405 12.154 34.79 12.6979C34.8592 13.4693 34.3598 14.5175 35.0966 14.9477C35.7047 15.3037 36.6591 15.0763 37.4601 15.101L38.0139 15.0466Z" fill="#CB5676"/>
<path d="M37.7522 31.6802C37.6989 30.6835 37.7888 29.6845 38.0192 28.7134H39.7647C41.4804 28.7134 41.5497 28.7134 41.4805 30.444C41.436 31.6653 41.9304 32.1054 43.0528 31.9274C44.4274 31.7049 44.8477 32.2438 44.7538 33.6086C44.6401 35.3194 44.8378 35.5172 46.5536 35.3886C47.9529 35.2848 48.3238 35.7694 48.2397 37.1094C48.126 38.8944 48.2397 38.9784 49.9803 38.8845C51.2955 38.8152 51.8246 39.3196 51.6911 40.5706C51.5773 41.698 51.9581 42.3111 53.1745 42.1281C54.5787 41.9205 54.9743 42.6226 54.9347 43.9033C54.8804 45.6091 54.9348 45.6833 56.6753 45.5943C57.8026 45.535 58.4652 45.9306 58.3713 47.0332C58.2279 48.6452 59.0437 48.9616 60.3788 48.8479C60.8242 48.8364 61.2699 48.8496 61.7138 48.8874C61.4221 49.7033 61.5556 50.5538 61.5803 51.3598C61.605 52.1657 61.3182 52.3734 60.5914 52.3487C59.8645 52.324 58.9992 52.3487 58.2081 52.3487H58.0746C55.3699 52.2795 55.4193 52.2696 54.8952 49.6341C54.6875 48.5809 53.6788 47.7848 53.7035 46.608C52.7591 46.6673 52.2943 45.5795 51.3548 45.619C51.1323 45.619 50.9098 45.619 50.6824 45.619C48.2941 45.619 48.2397 45.619 48.2447 43.2654C48.2447 42.2369 47.7947 42.1084 46.9492 42.1183C45.0505 42.1183 45.0109 42.1183 45.0158 40.2344C45.0158 39.0971 44.5609 38.6274 43.4138 38.6274C41.5398 38.6274 41.4755 38.5779 41.5398 36.7632C41.5744 35.71 41.2579 35.359 40.185 35.3985C38.1132 35.4727 38.2714 35.6062 38.3109 33.5641C38.2896 32.8985 38.0971 32.2497 37.7522 31.6802Z" fill="#D45574"/>
<path d="M61.7141 48.9024C61.2702 48.8646 60.8245 48.8513 60.3791 48.8628C59.044 48.9765 58.2282 48.6601 58.3716 47.0481C58.4655 45.9455 57.8029 45.5647 56.6756 45.6092C54.94 45.6983 54.8807 45.6092 54.9351 43.9182C54.9746 42.6276 54.579 41.9403 53.1748 42.1431C51.9584 42.326 51.5777 41.7129 51.6914 40.5855C51.8249 39.3345 51.2958 38.8302 49.9806 38.8994C48.2203 38.9933 48.1263 38.8994 48.24 37.1243C48.3241 35.7843 47.9532 35.2997 46.5539 35.4035C44.8381 35.5321 44.6404 35.3343 44.7541 33.6235C44.848 32.2588 44.4278 31.7198 43.0531 31.9423C41.9307 32.1203 41.4363 31.6802 41.4808 30.4589C41.55 28.7333 41.4807 28.7283 39.765 28.7283H38.0195C38.0195 27.4773 38.0195 26.2263 38.0195 24.9753H39.3595C41.5154 24.9753 41.6934 25.1138 41.7527 27.329C41.7873 28.4415 42.2472 28.8816 43.3399 28.7283C44.675 28.5404 45.4167 28.9854 45.2584 30.4589C45.1546 31.3984 45.6243 31.7693 46.5292 31.6852C47.3352 31.611 47.9285 32.0115 48.596 32.4219C49.6394 33.0647 50.8112 33.4702 51.0684 34.8942C51.103 35.0871 51.4392 35.2997 51.6766 35.3887C53.0363 35.8486 54.3071 36.1799 54.4011 38.1231C54.4406 38.934 55.2565 39.7746 55.2762 40.813C55.2762 41.4508 55.7707 41.8761 56.552 41.9057C58.1985 41.9651 58.8314 42.5189 59.2122 44.111C59.2299 44.2769 59.2934 44.4345 59.3956 44.5663C59.4977 44.6982 59.6345 44.799 59.7907 44.8577C61.3718 45.5639 63.1142 45.8304 64.8342 45.629L64.8886 45.6735C64.8886 45.8021 64.8886 45.9356 64.8886 46.0691C64.8292 49.0556 64.8292 49.0557 61.7141 48.9024Z" fill="#D65D6C"/>
<path d="M38.0141 15.0465H37.4801C36.679 15.0465 35.7248 15.2492 35.1166 14.8932C34.3798 14.463 34.8792 13.4098 34.81 12.6434C34.7605 12.0995 34.5974 11.8028 34.0139 11.8275C33.6579 11.8275 33.2969 11.7929 32.9459 11.8275C31.9569 11.9511 31.4625 11.6297 31.5614 10.5123C31.5968 9.75409 31.5852 8.99447 31.5268 8.23773C31.5268 8.10423 31.5268 7.97073 31.4971 7.83722C31.4625 5.25613 31.4625 5.21657 33.9991 5.07317C34.805 5.02373 34.7902 4.61827 34.805 4.04469C34.8743 1.5971 34.8842 1.59711 37.3713 1.63172C37.5938 1.63172 37.8163 1.66139 38.0388 1.67622C38.0388 5.05505 38.0388 8.43387 38.0388 11.8127C38.0355 12.884 38.0273 13.962 38.0141 15.0465Z" fill="#B45C6E"/>
<path d="M1.30014 38.6025L1.57704 38.9042C1.53804 38.9059 1.49912 38.8992 1.46304 38.8843C1.42695 38.8694 1.39457 38.8468 1.36817 38.818C1.34177 38.7892 1.32199 38.7551 1.31024 38.7178C1.29848 38.6806 1.29504 38.6412 1.30014 38.6025Z" fill="#EDDAE1"/>
<path d="M38.0243 72.7056C36.981 72.5276 35.5767 73.2001 34.9685 72.3991C34.474 71.7464 34.8103 70.4212 34.7806 69.3977V69.2691C38.6671 69.2691 37.9551 68.8735 38.0342 72.4436C38.0243 72.5276 38.0243 72.6166 38.0243 72.7056Z" fill="#CB5676"/>
<path d="M64.8186 45.619C63.0986 45.8204 61.3562 45.554 59.7751 44.8477C59.6189 44.7891 59.4821 44.6882 59.38 44.5564C59.2778 44.4245 59.2143 44.2669 59.1965 44.101C58.8158 42.5089 58.1829 41.9551 56.5363 41.8957C55.7402 41.8661 55.2755 41.4408 55.2606 40.803C55.2606 39.7646 54.425 38.924 54.3854 38.1131C54.2915 36.1699 53.0207 35.8386 51.6609 35.3787C51.4236 35.2996 51.0874 35.087 51.0528 34.8843C50.8154 33.4553 49.6435 33.0498 48.5805 32.412C47.9129 32.0016 47.3196 31.601 46.5136 31.6752C45.6087 31.7593 45.139 31.3884 45.2428 30.4489C45.4011 28.9656 44.6594 28.5304 43.3243 28.7183C42.2563 28.8716 41.7717 28.4315 41.7371 27.319C41.6778 25.1038 41.4998 24.9654 39.3439 24.9654H38.0039C38.0039 22.8128 38.0039 20.6701 38.0039 18.5374H38.8049C41.3069 18.5374 41.3267 18.5374 41.4602 21.0838C41.4948 21.7563 41.6926 22.0728 42.3947 22.0332C42.7952 22.0035 43.2007 22.0579 43.6012 22.0332C44.3825 21.959 44.6989 22.231 44.7138 23.0765C44.7484 25.2324 44.7929 25.2769 46.8845 25.2373C47.8734 25.2373 48.3332 25.4598 48.1898 26.4982C48.1404 26.8493 48.2195 27.2152 48.1898 27.5662C48.0662 28.5551 48.5162 28.7777 49.421 28.7678C51.3989 28.7431 51.4681 28.7925 51.3989 30.7456C51.3346 32.2537 52.4224 32.229 53.2432 32.1746C54.6623 32.1153 55.1172 32.6938 54.9145 33.9843C54.7217 35.1859 55.226 35.5271 56.3979 35.4677C58.1236 35.3787 58.1285 35.4677 58.1335 37.1736C58.1384 38.8795 58.1335 39.018 59.9481 38.8993C61.3079 38.8103 61.8518 39.2207 61.6293 40.5953C61.4513 41.7128 61.8765 42.2221 63.1127 42.1726C64.8483 42.1084 64.8532 42.1726 64.8482 43.8835C64.8383 44.457 64.8285 45.0356 64.8186 45.619Z" fill="#D86365"/>
</g>
<defs>
<clipPath id="clip0_460_168059">
<rect width="76.5229" height="100" fill="white"/>
</clipPath>
</defs>
</svg>
