<svg width="82" height="81" viewBox="0 0 82 81" fill="none" xmlns="http://www.w3.org/2000/svg">
<g clip-path="url(#clip0_71_16577)">
<path d="M28.275 30.9239L28.906 31.5549C28.7721 31.8373 28.6716 32.1342 28.6065 32.4397L27.7718 31.6051L26.9632 32.4137L28.5691 34.0196L28.5832 34.0056C28.6272 34.2636 28.6903 34.5179 28.772 34.7665C28.9766 34.958 29.1877 35.1439 29.3862 35.3424C34.9653 40.9215 40.5446 46.5008 46.124 52.0802C46.3225 52.2787 46.5089 52.4885 46.7014 52.6931C46.9371 52.7697 47.1779 52.8297 47.4222 52.8726L48.1296 53.58L48.8148 52.8948C49.1935 52.8349 49.562 52.7215 49.9092 52.5581L50.5239 53.1728L51.3325 52.3642L50.8982 51.9298C51.0463 51.8106 51.1921 51.6816 51.3361 51.5414C51.466 51.4152 51.5958 51.2885 51.7254 51.1613L51.9053 51.3412L52.7139 50.5326L52.5438 50.3625L53.1182 49.8021L53.3141 49.5307L31.9334 28.1546C31.8461 28.2159 31.7587 28.2781 31.6709 28.3398L31.6241 28.3866L31.4475 28.21L30.6389 29.0186L30.8253 29.205C30.5262 29.5116 30.2269 29.818 29.9274 30.1243C29.7853 30.2664 29.6552 30.4124 29.5371 30.5622L29.0864 30.1116L28.275 30.9239Z" fill="#333333"/>
<path d="M38.0003 20.7083L37.1342 21.5743L37.7904 22.2305C37.3921 22.6539 37.0037 23.089 36.5933 23.4984L57.967 44.8721C58.5274 44.322 59.1027 43.7858 59.6566 43.2301L59.9012 43.4748L60.7668 42.6091L60.4928 42.3351L60.4952 42.3328L60.7706 42.6082L61.6367 41.7421L61.1753 41.2808C61.2729 41.079 61.355 40.8701 61.4208 40.6559L61.4236 40.6587L62.2897 39.7927L61.5823 39.0852C61.5474 38.7213 61.4711 38.3627 61.3547 38.0164C61.213 37.8943 61.0629 37.7816 60.931 37.6497C55.2292 31.9479 49.5283 26.247 43.8283 20.547C43.6964 20.4151 43.5842 20.2636 43.4621 20.1219C43.1091 19.9859 42.7387 19.9002 42.3615 19.8673L41.7371 19.2429L40.9822 19.9977C40.7101 20.0734 40.4455 20.174 40.1917 20.298L39.7774 19.8837L38.9117 20.7494L39.1317 20.9693C38.9691 21.0965 38.8121 21.2293 38.6593 21.3672L38.0003 20.7083Z" fill="#333333"/>
<path d="M42.5638 38.7868L50.8616 47.0846L53.3091 49.5321C53.537 49.76 53.6144 49.7589 53.8481 49.5271L53.8631 49.5122C55.4195 47.9557 56.9763 46.399 58.5333 44.8419C58.718 44.6573 58.9049 44.475 59.0867 44.2885C59.2686 44.102 59.2626 44.0082 59.0851 43.8241C58.9607 43.6997 58.8386 43.573 58.7123 43.4513C58.5371 43.2854 58.44 43.2865 58.2614 43.4567C58.1385 43.5731 58.0221 43.696 57.9025 43.8156C57.7132 44.0049 57.6287 44.0036 57.4428 43.8233C57.4227 43.8033 57.4027 43.7832 57.3826 43.7632L42.5168 28.8974L37.5622 23.9427C37.3455 23.726 37.3465 23.6411 37.5681 23.4195C37.6929 23.2947 37.8228 23.1741 37.942 23.0456C38.0612 22.9171 38.0614 22.8144 37.9472 22.69C37.7953 22.5241 37.6355 22.3642 37.47 22.2128C37.3498 22.1028 37.2555 22.1067 37.1293 22.2068C37.0648 22.2616 37.0033 22.32 36.9452 22.3816C35.2937 24.0331 33.6422 25.6845 31.9908 27.336C31.916 27.4108 31.8384 27.4828 31.7664 27.5604C31.6168 27.723 31.6171 27.8215 31.7616 27.9809C31.7863 28.0056 31.811 28.0303 31.8361 28.0554L42.5638 38.7868Z" fill="white"/>
<path d="M52.3777 28.9765L61.2576 37.8563C61.3573 37.9561 61.4529 38.0591 61.5563 38.1551C61.7059 38.2944 61.8091 38.2966 61.96 38.1568C62.111 38.017 62.2451 37.881 62.3807 37.7361C62.5345 37.5702 62.5286 37.4652 62.3711 37.2984C62.3412 37.2685 62.3114 37.2387 62.2816 37.2089C61.9186 36.8459 61.5504 36.4871 61.1883 36.1231C61.007 35.9418 61.0118 35.8457 61.1937 35.6611C61.2984 35.5564 61.4031 35.4517 61.5082 35.3465C61.7382 35.1165 61.7388 35.0293 61.5151 34.8056C61.4107 34.7012 61.3035 34.5987 61.2015 34.4919C61.009 34.2995 61.0124 34.215 61.2092 34.0182C61.3386 33.8888 61.4742 33.7635 61.598 33.6293C61.7219 33.4952 61.7179 33.394 61.5986 33.256C61.5618 33.2136 61.5189 33.1763 61.4788 33.1362C61.1111 32.7685 60.7402 32.4032 60.3748 32.0322C60.201 31.8584 60.2016 31.7655 60.3774 31.5861C60.497 31.4664 60.6199 31.35 60.7363 31.2271C60.9205 31.0373 60.9234 30.9468 60.7403 30.7637C60.6061 30.6294 60.4719 30.4952 60.3377 30.361C60.0739 30.0973 59.8073 29.8363 59.5454 29.5688C59.3902 29.4136 59.3932 29.3109 59.5432 29.1516C59.6344 29.0558 59.7325 28.9623 59.8274 28.8674C60.1392 28.5556 60.1388 28.516 59.8293 28.2084C59.4663 27.8454 59.1005 27.4852 58.7403 27.1193C58.5795 26.9585 58.5815 26.8671 58.7344 26.7049C58.7741 26.6652 58.8138 26.6254 58.854 26.5852C58.9587 26.4806 59.0681 26.3796 59.1653 26.2684C59.2794 26.1384 59.2753 26.0437 59.1649 25.9127C59.129 25.8694 59.0852 25.833 59.0456 25.7934C58.6774 25.4253 58.3093 25.0571 57.9411 24.689C57.7585 24.5063 57.7605 24.4148 57.946 24.2265C58.0708 24.1017 58.1998 23.9811 58.3199 23.8525C58.4751 23.689 58.4753 23.5975 58.3234 23.4362C58.2222 23.3286 58.1146 23.2275 58.0102 23.1231C57.7306 22.8435 57.6695 22.8394 57.3942 23.1147C57.2895 23.2194 57.1885 23.3278 57.0801 23.4288C56.9277 23.5727 56.8358 23.5705 56.6801 23.427C56.6405 23.3874 56.6004 23.3473 56.5608 23.3077C56.1978 22.9447 55.8376 22.5779 55.4713 22.2182C55.3054 22.0523 55.2078 22.0548 55.0391 22.2151C54.9269 22.3217 54.8199 22.4343 54.7119 22.5423C54.4698 22.7844 54.4054 22.7835 54.1617 22.5389C53.7988 22.176 53.4358 21.813 53.0726 21.4498C52.8522 21.2294 52.7626 21.2277 52.5462 21.4403C52.441 21.5455 52.3363 21.6502 52.2316 21.7549C52.0283 21.9582 51.9396 21.9611 51.7392 21.7617C51.3711 21.3935 51.0029 21.0254 50.6348 20.6572C50.591 20.6114 50.5446 20.5682 50.4959 20.5277C50.459 20.4942 50.4115 20.4746 50.3616 20.4722C50.3117 20.4699 50.2625 20.4851 50.2224 20.515C50.1764 20.5477 50.1335 20.5846 50.0944 20.6254C49.9696 20.7502 49.8523 20.8824 49.7242 21.003C49.5961 21.1236 49.4897 21.1266 49.3541 21.0068C49.3117 20.97 49.2749 20.9276 49.2348 20.8875C48.8718 20.5245 48.5111 20.1591 48.1457 19.7984C47.9551 19.6078 47.8618 19.608 47.666 19.7992C47.5514 19.9137 47.4365 20.0287 47.3219 20.1432C47.135 20.3301 47.0416 20.3303 46.8608 20.1494C46.7317 20.0204 46.6069 19.8861 46.4731 19.7617C46.3216 19.6196 46.2264 19.6235 46.0708 19.7651C46.0241 19.8119 45.9811 19.8549 45.9362 19.8997C45.8427 19.9932 45.7506 20.0937 45.652 20.1839C45.5001 20.3237 45.404 20.3201 45.2488 20.1798C45.2292 20.1603 45.2092 20.1402 45.1891 20.1202L44.0917 19.0097C44.0579 18.9738 44.0214 18.9404 43.9826 18.91C43.8694 18.8266 43.777 18.8164 43.676 18.9081C43.4942 19.075 43.3189 19.2502 43.1525 19.4316C43.0581 19.5353 43.0664 19.6258 43.1549 19.7368C43.186 19.7747 43.2196 19.8106 43.2555 19.844L52.3777 28.9765Z" fill="white"/>
<path d="M37.6872 43.6817L28.5859 34.5805C28.5431 34.534 28.4967 34.491 28.4471 34.4519C28.3366 34.3704 28.2409 34.3644 28.1404 34.4584C27.9596 34.6253 27.7847 34.801 27.6174 34.9814C27.5309 35.0763 27.5387 35.1673 27.6142 35.2708C27.6535 35.3202 27.6966 35.3665 27.7432 35.4092C28.1114 35.7773 28.4795 36.1455 28.8472 36.5132C29.0467 36.7126 29.0437 36.8032 28.8451 37.0074C28.8054 37.0471 28.7652 37.0873 28.7254 37.1271C28.6455 37.207 28.5628 37.2841 28.4861 37.3664C28.33 37.5328 28.3322 37.6312 28.4902 37.8013L28.5368 37.8479L29.6613 38.9603C29.6923 38.989 29.7213 39.0198 29.7479 39.0526C29.7875 39.0941 29.8093 39.1493 29.8088 39.2067C29.8083 39.2641 29.7854 39.3192 29.7451 39.3601C29.7134 39.398 29.6793 39.4339 29.6432 39.4676C29.5334 39.5775 29.4208 39.6836 29.3161 39.7948C29.1412 39.9771 29.1439 40.0751 29.3214 40.261L29.3513 40.2909C29.7092 40.6488 30.0675 41.0071 30.4231 41.3627C30.6878 41.6274 30.6896 41.6853 30.4292 41.9428C30.3143 42.0578 30.1951 42.1686 30.0848 42.2873C29.9599 42.4242 29.9635 42.5166 30.0842 42.6606C30.1201 42.7031 30.1634 42.7399 30.2035 42.7799C30.5712 43.1476 30.9393 43.5158 31.3075 43.8839C31.4748 44.0512 31.4747 44.1446 31.3115 44.3142C31.1769 44.4488 31.0381 44.5802 30.9077 44.7181C30.7674 44.8704 30.7692 44.9703 30.9118 45.1213C31.0329 45.249 31.1606 45.3701 31.2846 45.4941C31.477 45.6866 31.4764 45.7794 31.2862 45.9725C31.1567 46.1019 31.0226 46.2277 30.8973 46.3613C30.7664 46.5034 30.7681 46.6061 30.8977 46.7506C30.9224 46.7753 30.9471 46.8 30.9722 46.8251L33.389 49.2419C33.7772 49.6301 34.1649 50.0178 34.554 50.4069C34.7404 50.5933 34.8426 50.5918 35.0352 50.4048C35.1502 50.2898 35.2647 50.1753 35.3797 50.0603C35.5694 49.8706 35.66 49.8732 35.8571 50.0638C35.9866 50.1934 36.1111 50.3271 36.2448 50.4515C36.3786 50.576 36.4747 50.5739 36.6182 50.451C36.6822 50.3954 36.7378 50.3313 36.7981 50.271C36.8879 50.1813 36.973 50.0869 37.0674 50.0018C37.1954 49.8859 37.2925 49.8867 37.4221 49.9957C37.4649 50.032 37.5017 50.0754 37.5414 50.115C37.9095 50.4831 38.2777 50.8513 38.6453 51.219C38.8262 51.3998 38.926 51.3987 39.1097 51.2206C39.2322 51.1038 39.349 50.9813 39.4687 50.8617C39.6524 50.678 39.741 50.6825 39.9288 50.8675C39.954 50.8927 39.9787 50.9174 40.0034 50.9421C40.3664 51.3051 40.7294 51.6681 41.0929 52.0316C41.2751 52.2138 41.3676 52.2128 41.5596 52.0309C41.6742 51.9164 41.7891 51.8014 41.9036 51.6869C42.1032 51.4873 42.2003 51.4891 42.3969 51.6885C42.417 51.7085 42.4366 51.7281 42.4566 51.7482C42.8196 52.1112 43.1775 52.4794 43.5419 52.841C43.7283 53.0274 43.8259 53.023 44.0227 52.8337C44.1573 52.6991 44.2877 52.5603 44.4265 52.4299C44.5466 52.3191 44.6404 52.3213 44.7644 52.4229C44.8114 52.4652 44.8562 52.51 44.8986 52.5571C45.2667 52.9252 45.6321 53.2952 46.0026 53.6611C46.175 53.8335 46.2768 53.8324 46.4525 53.6651C46.5852 53.5389 46.7152 53.4089 46.8414 53.2762C47.0073 53.1009 47.0037 53.0039 46.8369 52.8249C46.8169 52.8048 46.7973 52.7853 46.7772 52.7652L37.6872 43.6817Z" fill="white"/>
<path d="M37.7102 12.6739L41.951 16.9146C42.1746 17.1383 42.1756 17.156 41.9451 17.3864C41.8152 17.5164 41.6811 17.6421 41.5558 17.7758C41.4305 17.9094 41.4308 18.0116 41.5394 18.1333C41.6964 18.3043 41.8591 18.466 42.032 18.6259C42.1452 18.7298 42.2409 18.732 42.3521 18.6301C42.5283 18.4678 42.698 18.2972 42.8606 18.1215C42.9569 18.0168 42.951 17.9314 42.8709 17.8158C42.8316 17.7661 42.7884 17.7195 42.7418 17.6765C42.6323 17.567 42.5191 17.4621 42.4123 17.3535C42.2325 17.1736 42.2344 17.1344 42.4087 16.9573C42.5083 16.8577 42.6083 16.7577 42.7079 16.6582C43.0084 16.3576 43.0104 16.3063 42.7149 16.0108L34.3402 7.63611C34.3052 7.60116 34.2703 7.56621 34.2358 7.53173C34.0964 7.41479 33.9979 7.4126 33.8624 7.53228C33.7376 7.64681 33.6226 7.77206 33.503 7.89171C33.2413 8.15345 33.2258 8.15674 32.9672 7.89903C32.599 7.53088 32.2325 7.16149 31.8674 6.79084C31.6526 6.57601 31.5611 6.57148 31.341 6.78696C31.2162 6.91175 31.0914 7.03655 30.9671 7.16088C30.8016 7.32167 30.7638 7.32219 30.6035 7.16561C30.4637 7.02581 30.3267 6.8832 30.1841 6.7462C30.0168 6.58544 29.9216 6.58558 29.7519 6.74871C29.614 6.88006 29.4822 7.0184 29.3476 7.15301C29.1756 7.32502 29.1373 7.32507 28.9672 7.16058C28.8382 7.03149 28.7086 6.90194 28.5795 6.77285C28.3889 6.58225 28.2928 6.5796 28.0993 6.77217C27.4362 7.43525 26.7726 8.0988 26.1086 8.76282C25.9175 8.95398 25.9192 9.05292 26.1051 9.24446C26.2393 9.37867 26.3759 9.51054 26.5077 9.64709C26.6527 9.79855 26.6503 9.84383 26.5007 9.99807C26.381 10.1177 26.2614 10.2374 26.1413 10.3575C25.9015 10.5973 25.9028 10.6733 26.1437 10.9143L26.2481 11.0187C26.606 11.3766 26.9643 11.7349 27.3227 12.0933C27.4756 12.2461 27.4732 12.2895 27.3255 12.4428C27.1852 12.5831 27.0427 12.7209 26.9048 12.8635C26.7328 13.042 26.7303 13.1312 26.9055 13.3111C27.0472 13.4574 27.1963 13.5972 27.338 13.7435C27.4689 13.8801 27.468 13.9212 27.3347 14.06C27.2179 14.1824 27.0954 14.2993 26.9753 14.4194C26.708 14.6867 26.7088 14.7549 26.9753 15.0214C27.3635 15.4096 27.7517 15.7978 28.1404 16.1865C28.2802 16.3263 28.2768 16.3781 28.1394 16.522C28.0198 16.6417 27.9001 16.7613 27.78 16.8815C27.5257 17.1357 27.5252 17.2025 27.7721 17.4485L27.8323 17.5086C28.2004 17.8768 28.5686 18.2449 28.9367 18.6131C29.097 18.7734 29.0951 18.8163 28.9376 18.9776C28.7927 19.1225 28.6445 19.2641 28.5034 19.4118C28.3622 19.5595 28.3634 19.6626 28.5074 19.8141C28.6514 19.9655 28.7917 20.1068 28.9399 20.2465C29.0881 20.3863 29.1805 20.3787 29.3268 20.2455C29.4731 20.1123 29.5997 19.9791 29.7311 19.8412C29.9153 19.6515 29.9126 19.5553 29.7234 19.3605C29.5836 19.2207 29.4405 19.0842 29.304 18.9411C29.1838 18.8143 29.1871 18.7691 29.3054 18.6377C29.34 18.6032 29.375 18.5681 29.4101 18.5331C29.5096 18.4335 29.6097 18.3335 29.7092 18.2339C29.9191 18.0194 29.9197 17.9302 29.716 17.7229C29.6811 17.6879 29.6461 17.653 29.6116 17.6185C29.2584 17.2652 28.9052 16.912 28.5519 16.5588C28.3432 16.35 28.3441 16.3332 28.5554 16.121C28.6849 15.9915 28.8185 15.8653 28.9447 15.7316C29.0966 15.5713 29.093 15.4789 28.9416 15.3153C28.9216 15.2953 28.9015 15.2753 28.882 15.2557L27.7924 14.1662C27.5263 13.9001 27.5254 13.8739 27.797 13.6164C27.9143 13.5047 28.0344 13.3948 28.1442 13.2756C28.2835 13.1233 28.279 13.0262 28.1402 12.8705C28.0959 12.8216 28.0507 12.7811 28.006 12.7363C27.8964 12.6268 27.7841 12.5201 27.6797 12.4101C27.5614 12.2824 27.5643 12.2367 27.6839 12.1067C27.7367 12.0493 27.7938 11.9969 27.8489 11.9418C27.9485 11.8422 28.0518 11.7454 28.148 11.6426C28.2817 11.4959 28.2805 11.4011 28.1542 11.2553C28.1174 11.2128 28.0745 11.1756 28.0349 11.1359L26.93 10.031C26.8955 9.99655 26.8606 9.9616 26.828 9.92431C26.8136 9.91115 26.8021 9.89513 26.7943 9.87726C26.7866 9.85939 26.7826 9.84007 26.7827 9.82056C26.7828 9.80104 26.787 9.78175 26.795 9.76393C26.803 9.74611 26.8147 9.73016 26.8292 9.71709C26.8732 9.66756 26.9143 9.62269 26.9592 9.57782C27.2739 9.2631 27.5883 8.9487 27.9024 8.63461C28.2367 8.30026 28.5711 7.96592 28.9054 7.63157C29.1456 7.39133 29.1564 7.38992 29.3899 7.62246C29.5143 7.74688 29.635 7.87505 29.7627 7.99527C29.9123 8.13459 30.0163 8.13489 30.1678 7.99466C30.2967 7.87499 30.4174 7.74507 30.5417 7.62074C30.7754 7.38704 30.7936 7.38561 31.0294 7.62048C31.4073 7.99842 31.7853 8.37636 32.1637 8.75476C32.371 8.96214 32.4621 8.95967 32.6747 8.75354C32.7743 8.65398 32.872 8.55163 32.9692 8.44975C33.2085 8.19831 33.2393 8.19825 33.4868 8.4457L37.7102 12.6739Z" fill="white"/>
<path d="M68.6797 43.6433L72.8431 47.8066C72.9027 47.8663 72.9624 47.9259 73.022 47.9856C73.1226 48.1002 73.1254 48.1432 73.0197 48.2553C72.8945 48.389 72.7603 48.5147 72.6304 48.6447C72.3715 48.9036 72.3728 48.9666 72.6347 49.2276C73.0177 49.6106 73.4008 49.9937 73.7839 50.3768C73.9488 50.5417 73.9441 50.5893 73.781 50.7599C73.651 50.8899 73.5215 51.0193 73.3916 51.1493C73.199 51.3418 73.2022 51.4319 73.3932 51.6276C73.5223 51.7567 73.6519 51.8863 73.781 52.0154C73.945 52.1859 73.9426 52.221 73.7729 52.3962C73.7533 52.4158 73.7332 52.4359 73.7131 52.456C73.0746 53.0945 72.4359 53.7333 71.7968 54.3724C71.5327 54.6365 71.5322 54.6369 71.2675 54.3713C70.8896 53.9934 70.5112 53.6149 70.1333 53.237C69.9529 53.0567 69.8516 53.0582 69.6666 53.2377C69.5544 53.3452 69.4469 53.4574 69.3394 53.5649C69.0893 53.8149 69.0856 53.8187 68.8386 53.5745C68.7095 53.4454 68.5842 53.3117 68.4485 53.1891C68.3204 53.074 68.2233 53.0779 68.0924 53.1882C68.0331 53.2383 67.9826 53.2981 67.9279 53.3528C67.8129 53.4677 67.7017 53.5864 67.5834 53.6972C67.4802 53.7921 67.4344 53.7894 67.3281 53.7018C67.2899 53.6701 67.2559 53.6342 67.2214 53.5998C66.8579 53.2363 66.4949 52.8732 66.1319 52.5102C65.8476 52.226 65.7925 52.2251 65.5009 52.5177C65.3812 52.6373 65.2653 52.7607 65.1419 52.8766C65.0293 52.98 64.9831 52.9768 64.8694 52.8789C64.8269 52.8421 64.7897 52.7992 64.7501 52.7596L63.6456 51.6552C63.4187 51.4282 63.3384 51.4293 63.1066 51.6611C62.9869 51.7808 62.8673 51.9004 62.7476 52.0201C62.5849 52.1827 62.5457 52.1818 62.3831 52.0248C62.2386 51.8803 62.0979 51.7321 61.9502 51.5919C61.8024 51.4516 61.697 51.4471 61.5465 51.5873C61.396 51.7276 61.2511 51.8706 61.1127 52.0211C60.9744 52.1716 60.9747 52.2738 61.1163 52.4248C61.2417 52.5576 61.375 52.6834 61.5041 52.8125C61.697 53.0054 61.7843 53.0039 61.9815 52.8113C62.1161 52.6767 62.2484 52.5388 62.3858 52.407C62.5386 52.2598 62.5783 52.2621 62.7358 52.4112C62.7754 52.4508 62.815 52.4904 62.8551 52.5305C63.2233 52.8986 63.591 53.2663 63.9591 53.6345C64.1404 53.8157 64.2398 53.8123 64.4258 53.6338C64.5604 53.4992 64.695 53.3646 64.8296 53.2299C64.9848 53.0748 65.024 53.0766 65.1778 53.221C65.2174 53.2606 65.2575 53.3007 65.2971 53.3403L66.3419 54.3851C66.3851 54.4312 66.4312 54.4744 66.4799 54.5147C66.5945 54.6032 66.6702 54.604 66.787 54.5217C66.843 54.4789 66.8955 54.4317 66.944 54.3805C67.0688 54.2557 67.1884 54.1258 67.3179 54.0066C67.438 53.8958 67.4879 53.8962 67.6035 54.0118C67.7475 54.1474 67.8831 54.2914 68.0229 54.4312C68.2247 54.633 68.3166 54.6314 68.5185 54.4379C68.5653 54.3912 68.6083 54.3482 68.6532 54.3033C68.7527 54.2037 68.849 54.1 68.9523 54.0042C69.0556 53.9083 69.1111 53.9059 69.2248 54.0038C69.2677 54.0401 69.3045 54.0834 69.3441 54.1231L70.4337 55.2126C70.6816 55.4605 70.7465 55.459 71.0003 55.2052C71.1199 55.0856 71.24 54.9654 71.3597 54.8458C71.5051 54.706 71.5517 54.705 71.6943 54.842C71.8369 54.979 71.9739 55.1216 72.1137 55.2614C72.2983 55.4394 72.4005 55.4407 72.5805 55.2607C73.2507 54.5942 73.9192 53.9257 74.5861 53.2551C74.773 53.0682 74.7657 52.9674 74.5746 52.7763C74.4348 52.6365 74.2927 52.4991 74.1552 52.3569C74.0345 52.2306 74.0327 52.1802 74.1524 52.0531C74.2922 51.904 74.4417 51.7638 74.5861 51.6193C74.7684 51.4371 74.7658 51.3409 74.584 51.1554C74.4396 51.011 74.2928 50.8698 74.1511 50.7225C74.0281 50.5939 74.0281 50.5519 74.152 50.4224C74.2932 50.2747 74.4413 50.1331 74.5858 49.9887C74.7727 49.8017 74.7677 49.6986 74.5753 49.5108C74.5501 49.4856 74.5254 49.4609 74.5007 49.4362C74.1223 49.0578 73.7411 48.6832 73.3664 48.302C73.2173 48.1528 73.223 48.1034 73.3702 47.9505C73.5076 47.8075 73.653 47.6724 73.7909 47.5299C73.9568 47.3555 73.9528 47.2561 73.785 47.079L65.8162 39.1102C65.6223 38.9164 65.4317 38.7192 65.2346 38.5286C65.0822 38.3828 64.9851 38.3829 64.8332 38.5255C64.6949 38.6564 64.564 38.7947 64.4294 38.9293C64.2364 39.1223 64.2004 39.1229 63.9986 38.9314C63.8663 38.8046 63.7442 38.6685 63.6104 38.5432C63.4511 38.3894 63.3503 38.3849 63.1918 38.5321C63.0418 38.671 62.8969 38.8158 62.7581 38.9659C62.6193 39.1159 62.6247 39.212 62.7566 39.3532C62.8959 39.5019 63.0408 39.6459 63.1895 39.7862C63.3475 39.9367 63.4418 39.9337 63.6058 39.7781C63.7287 39.6617 63.8451 39.5388 63.9648 39.4191C64.2088 39.1751 64.2102 39.1737 64.4474 39.4109L68.6797 43.6433Z" fill="white"/>
<path d="M27.4547 51.4727C27.8987 51.0287 28.3427 50.5846 28.7868 50.1406C28.8433 50.0876 28.896 50.0306 28.9443 49.97C29.0285 49.857 29.0272 49.7725 28.9405 49.6625C28.9051 49.6186 28.8667 49.5774 28.8254 49.539L27.7364 48.4499C27.698 48.4087 27.6567 48.3702 27.6129 48.3348C27.5019 48.251 27.4184 48.2497 27.3048 48.3334C27.2394 48.3869 27.1776 48.4447 27.1198 48.5063C26.2221 49.4041 25.3242 50.3019 24.4262 51.2C24.2298 51.3963 24.144 51.3964 23.9529 51.2072C23.8387 51.093 23.7269 50.9756 23.6099 50.8642C23.4282 50.6825 23.3255 50.6826 23.1437 50.857C23.0502 50.9504 22.9539 51.0467 22.859 51.1416C22.5786 51.422 22.5245 51.4259 22.2472 51.1477C21.6106 50.5111 20.9737 49.8742 20.3365 49.237C20.1501 49.0506 20.0596 49.0535 19.875 49.2325C19.7502 49.3573 19.6254 49.4821 19.501 49.6065C19.3346 49.7729 19.2422 49.7721 19.0712 49.6057C18.937 49.4715 18.8075 49.3326 18.6686 49.2031C18.5297 49.0735 18.4251 49.0671 18.2821 49.2008C18.127 49.3448 17.9769 49.4948 17.833 49.65C17.7002 49.793 17.701 49.892 17.8361 50.0364C17.9605 50.1702 18.0948 50.2951 18.2243 50.4246C18.4107 50.611 18.4097 50.6969 18.2255 50.8839C18.096 51.0133 17.9614 51.1386 17.8366 51.2727C17.6955 51.4251 17.6972 51.5231 17.8416 51.675C17.9861 51.827 18.1254 51.9682 18.2741 52.1075C18.4228 52.2468 18.5147 52.2397 18.6605 52.105C18.7947 51.9802 18.9199 51.8456 19.0494 51.7162C19.2364 51.5292 19.3269 51.5319 19.5101 51.7094C19.5399 51.7392 19.5697 51.7691 19.5995 51.7989C19.9626 52.1619 20.3256 52.525 20.6891 52.8884C20.8601 53.0595 20.9623 53.0589 21.1394 52.891C21.267 52.77 21.3886 52.6419 21.5134 52.5171C21.6854 52.3451 21.7862 52.3468 21.9609 52.5179C22.0854 52.6423 22.2023 52.7742 22.3291 52.8953C22.4959 53.0547 22.5963 53.0541 22.7636 52.8952C22.9014 52.7638 23.03 52.6222 23.1679 52.4909C23.3193 52.3478 23.4173 52.3486 23.5678 52.4926C23.7002 52.6194 23.8237 52.7541 23.956 52.8808C24.1317 53.0565 24.2241 53.0554 24.4027 52.8834C24.5326 52.7535 24.6621 52.624 24.792 52.4941C24.95 52.3417 25.0461 52.3425 25.2069 52.4967C25.3285 52.6137 25.4455 52.7353 25.5648 52.8546C25.7656 53.0555 25.8585 53.0549 26.0614 52.8623C26.0913 52.8324 26.1212 52.8024 26.1511 52.7725L27.4547 51.4727Z" fill="white"/>
<path d="M56.8092 51.4035C57.0077 51.602 57.2067 51.801 57.4052 51.9995C57.6037 52.1981 57.6901 52.1984 57.8971 51.9951C58.0317 51.8605 58.1663 51.7259 58.301 51.5912C58.4356 51.4566 58.493 51.4542 58.6379 51.5926C58.7899 51.738 58.9315 51.8946 59.0848 52.0395C59.2246 52.1793 59.3296 52.1806 59.4708 52.0515C59.6311 51.9043 59.7863 51.7491 59.934 51.5883C60.0592 51.4519 60.0552 51.3571 59.928 51.2215C59.784 51.0682 59.6344 50.9186 59.4811 50.7746C59.3366 50.6395 59.2423 50.6406 59.0965 50.7752C58.9507 50.9098 58.8273 51.0444 58.6927 51.179C58.4837 51.388 58.466 51.3889 58.2554 51.1792C57.8728 50.7966 57.4902 50.414 57.1076 50.0314C56.883 49.8068 56.7966 49.8083 56.5676 50.0374C56.4479 50.157 56.3283 50.2767 56.2086 50.3963C56.045 50.5599 56.0096 50.559 55.8455 50.4006C55.6969 50.2519 55.5515 50.0981 55.3986 49.9537C55.2653 49.8307 55.1594 49.8313 55.0252 49.9542C54.8706 50.0978 54.721 50.2483 54.577 50.4025C54.433 50.5567 54.438 50.6524 54.5815 50.8043C54.7115 50.9427 54.8467 51.076 54.9842 51.2069C55.1561 51.3733 55.2574 51.3736 55.4341 51.2053C55.5776 51.0684 55.7145 50.9249 55.8548 50.7847C56.0057 50.6337 56.0454 50.636 56.2015 50.7893C56.4042 50.9911 56.6055 51.1999 56.8092 51.4035Z" fill="white"/>
<path d="M30.7585 23.6769C30.5544 23.4728 30.3508 23.2691 30.1467 23.065C29.9854 22.9038 29.9869 22.8613 30.1407 22.6982C30.2874 22.5458 30.444 22.4033 30.5866 22.2467C30.7095 22.1116 30.7073 22.0066 30.5871 21.8733C30.4436 21.7195 30.2936 21.5704 30.1398 21.426C29.9962 21.2899 29.9019 21.291 29.7552 21.4237C29.6085 21.5565 29.4827 21.6897 29.3514 21.8276C29.163 22.0206 29.1652 22.1172 29.3563 22.3055C29.4802 22.4294 29.6088 22.5496 29.7319 22.6755C29.9108 22.8591 29.9098 22.8927 29.7355 23.0708C29.6308 23.1755 29.5261 23.2802 29.4214 23.3849C29.1409 23.6653 29.1413 23.7283 29.4149 24.0018C29.7877 24.3747 30.1605 24.7475 30.5333 25.1203C30.7267 25.3137 30.7243 25.3477 30.5261 25.5469C30.3915 25.6815 30.2527 25.8128 30.1223 25.9507C29.9919 26.0886 29.988 26.1903 30.1194 26.3367C30.2508 26.483 30.4032 26.6289 30.5518 26.7691C30.7005 26.9094 30.8023 26.9139 30.9546 26.7746C31.0953 26.646 31.2285 26.5091 31.3584 26.3707C31.537 26.1847 31.5357 26.0881 31.3591 25.904C31.2147 25.7596 31.0679 25.6184 30.9267 25.4716C30.8078 25.3462 30.8079 25.293 30.9271 25.1673C31.0678 25.0191 31.2164 24.878 31.3609 24.7335C31.5399 24.5489 31.5386 24.457 31.3569 24.2715C31.1593 24.0711 30.9552 23.8735 30.7585 23.6769Z" fill="white"/>
<path d="M42.5637 38.7868L31.8337 28.0568C31.8086 28.0317 31.7839 28.007 31.7592 27.9823C31.6147 27.8229 31.6144 27.7244 31.764 27.5617C31.8355 27.4837 31.9136 27.4122 31.9884 27.3374C33.6398 25.6859 35.2913 24.0344 36.9428 22.383C37.0009 22.3214 37.0624 22.263 37.1269 22.2082C37.2531 22.1081 37.3474 22.1042 37.4676 22.2142C37.6331 22.3656 37.7929 22.5255 37.9448 22.6914C38.059 22.8158 38.0555 22.919 37.9396 23.047C37.8237 23.1751 37.69 23.2966 37.5657 23.4209C37.3441 23.6425 37.3431 23.7274 37.5598 23.9441L42.5144 28.8988L57.3803 43.7646C57.4003 43.7846 57.4203 43.8047 57.4404 43.8247C57.6277 44.0037 57.7113 44.0021 57.9001 43.817C58.0197 43.6974 58.1361 43.5745 58.259 43.4581C58.4376 43.2879 58.5347 43.2869 58.7099 43.4527C58.8376 43.5739 58.9615 43.6988 59.0827 43.8255C59.2616 44.011 59.2648 44.1095 59.0843 44.2899C58.9039 44.4703 58.7156 44.6587 58.531 44.8433C56.973 46.4013 55.4162 47.9581 53.8607 49.5136L53.8458 49.5285C53.6121 49.7622 53.5346 49.7614 53.3067 49.5335L50.8592 47.086L42.5614 38.7882L42.5637 38.7868Z" fill="white"/>
<path d="M52.3776 28.9765L43.2591 19.858C43.2232 19.8246 43.1895 19.7888 43.1584 19.7508C43.0713 19.6385 43.0617 19.5494 43.1561 19.4456C43.322 19.2638 43.4973 19.0886 43.6796 18.9221C43.7805 18.8305 43.8729 18.8406 43.9862 18.924C44.025 18.9545 44.0614 18.9878 44.0953 19.0237L45.1927 20.1343C45.2127 20.1543 45.2328 20.1743 45.2524 20.1939C45.4076 20.3342 45.5037 20.3377 45.6556 20.198C45.7533 20.1087 45.8449 20.0087 45.9398 19.9138C45.9865 19.8671 46.03 19.8236 46.0744 19.7792C46.23 19.6375 46.3252 19.6337 46.4767 19.7758C46.61 19.9007 46.7353 20.0344 46.8644 20.1635C47.0471 20.3462 47.1372 20.3428 47.3255 20.1572C47.44 20.0427 47.5517 19.9245 47.6695 19.8132C47.8616 19.6211 47.9559 19.6201 48.1493 19.8125C48.5123 20.1755 48.8753 20.5386 49.2384 20.9016C49.2784 20.9417 49.3181 20.9813 49.3577 21.0209C49.4947 21.1392 49.5955 21.1419 49.7278 21.0171C49.86 20.8923 49.9736 20.7647 50.098 20.6394C50.1371 20.5987 50.18 20.5618 50.226 20.5291C50.2661 20.4991 50.3153 20.484 50.3652 20.4863C50.4151 20.4886 50.4625 20.5082 50.4995 20.5417C50.5482 20.5822 50.5946 20.6255 50.6384 20.6713C51.0065 21.0394 51.3747 21.4076 51.7428 21.7757C51.9427 21.9757 52.0323 21.9718 52.2352 21.7689C52.3399 21.6642 52.4446 21.5595 52.5498 21.4544C52.7643 21.2398 52.8548 21.2425 53.0762 21.4639C53.439 21.8267 53.8021 22.1898 54.1652 22.5529C54.4094 22.7971 54.4762 22.8012 54.7155 22.5563C54.8253 22.4465 54.9314 22.3329 55.0427 22.2292C55.2114 22.0688 55.308 22.0673 55.4748 22.2322C55.8402 22.5929 56.2013 22.9588 56.5644 23.3218C56.604 23.3614 56.6441 23.4015 56.6837 23.4411C56.8393 23.5846 56.9313 23.5868 57.0836 23.4428C57.1911 23.3409 57.293 23.2334 57.3977 23.1287C57.673 22.8534 57.7351 22.8547 58.0138 23.1372C58.1182 23.2415 58.2225 23.3459 58.3269 23.4503C58.4788 23.6116 58.4787 23.703 58.3235 23.8666C58.202 23.9947 58.0739 24.1162 57.9496 24.2405C57.7626 24.4275 57.7625 24.5208 57.9447 24.703C58.3129 25.0712 58.681 25.4393 59.0492 25.8075C59.0888 25.8471 59.1312 25.8848 59.1685 25.9268C59.2789 26.0578 59.2829 26.1525 59.1689 26.2824C59.0716 26.3937 58.9595 26.4918 58.8576 26.5993C58.8174 26.6395 58.7776 26.6792 58.7379 26.719C58.586 26.8802 58.584 26.9717 58.7438 27.1334C59.1069 27.4964 59.4699 27.8594 59.8329 28.2225C60.1414 28.531 60.1437 28.5706 59.831 28.8815C59.7375 28.9749 59.638 29.068 59.5468 29.1656C59.3968 29.325 59.3952 29.4263 59.549 29.5829C59.81 29.8494 60.0765 30.1104 60.3412 30.3751C60.4754 30.5093 60.6096 30.6435 60.7439 30.7777C60.9251 30.959 60.9241 31.0514 60.7399 31.2412C60.6202 31.3608 60.4978 31.4777 60.3809 31.6001C60.2052 31.7759 60.2037 31.8706 60.3784 32.0463C60.7466 32.4145 61.1147 32.7826 61.4824 33.1503C61.5225 33.1904 61.5626 33.2304 61.6022 33.2701C61.7205 33.4071 61.7246 33.5056 61.6016 33.6434C61.4787 33.7813 61.3422 33.9028 61.2127 34.0323C61.016 34.2291 61.0154 34.3135 61.205 34.506C61.3094 34.6104 61.4143 34.7152 61.5187 34.8196C61.7423 35.0433 61.7413 35.1301 61.5118 35.3606C61.4066 35.4657 61.3019 35.5704 61.1972 35.6751C61.0135 35.8588 61.0101 35.9554 61.1919 36.1372C61.5549 36.5002 61.9184 36.8637 62.2852 37.223C62.315 37.2528 62.3476 37.2798 62.3746 37.3124C62.5321 37.4793 62.538 37.5843 62.3842 37.7502C62.2496 37.896 62.1094 38.0362 61.9636 38.1708C61.8178 38.3055 61.7095 38.3084 61.5599 38.1691C61.4564 38.0731 61.3609 37.9701 61.2612 37.8704L52.3724 28.9817L52.3776 28.9765Z" fill="white"/>
<path d="M37.6872 43.6818L46.7744 52.769C46.7945 52.7891 46.8141 52.8087 46.8341 52.8287C47.0009 53.0077 47.0045 53.1047 46.8386 53.28C46.7128 53.4132 46.5829 53.5431 46.4497 53.6689C46.274 53.8362 46.1731 53.8364 45.9998 53.6649C45.6316 53.2967 45.264 52.929 44.8958 52.5609C44.8534 52.5138 44.8086 52.469 44.7616 52.4267C44.6376 52.3251 44.5438 52.3229 44.4237 52.4337C44.2835 52.5627 44.1545 52.7029 44.0199 52.8375C43.824 53.0278 43.7274 53.0321 43.5391 52.8448C43.1761 52.4818 42.8131 52.1187 42.4538 51.752C42.4338 51.7319 42.4142 51.7124 42.3942 51.6923C42.1961 51.4943 42.1009 51.4925 41.9009 51.6907C41.7863 51.8052 41.6742 51.923 41.5568 52.0347C41.3694 52.2156 41.2742 52.2195 41.0901 52.0354C40.7267 51.6719 40.3636 51.3089 40.0006 50.9459C39.9759 50.9212 39.9512 50.8965 39.926 50.8713C39.7396 50.6849 39.6496 50.6818 39.4659 50.8655C39.3462 50.9851 39.2298 51.108 39.1069 51.2244C38.9223 51.4016 38.8229 51.4022 38.6425 51.2228C38.2749 50.8551 37.9067 50.4869 37.5386 50.1188C37.499 50.0792 37.4612 50.0368 37.4193 49.9995C37.2897 49.8905 37.1926 49.8897 37.0646 50.0056C36.9702 50.0907 36.8851 50.1851 36.7953 50.2748C36.735 50.3351 36.678 50.3978 36.6154 50.4548C36.4752 50.5773 36.3814 50.5807 36.242 50.4553C36.1027 50.33 35.9839 50.1972 35.8543 50.0676C35.6614 49.8747 35.568 49.8748 35.3769 50.0641C35.2619 50.1791 35.1474 50.2936 35.0324 50.4086C34.8398 50.5956 34.74 50.5976 34.5512 50.4107C34.163 50.0225 33.7753 49.6348 33.3862 49.2457L30.9694 46.8289C30.9443 46.8038 30.9196 46.7791 30.8949 46.7544C30.7677 46.6076 30.7636 46.5072 30.8945 46.3652C31.0189 46.2306 31.1539 46.1057 31.2834 45.9763C31.4732 45.7865 31.4705 45.696 31.2818 45.4979C31.1574 45.3735 31.0292 45.2528 30.909 45.1251C30.7664 44.9741 30.7647 44.8742 30.9049 44.7219C31.0339 44.5826 31.1741 44.4526 31.3087 44.318C31.4705 44.1498 31.4711 44.056 31.3047 43.8877C30.9366 43.5196 30.5684 43.1514 30.2007 42.7838C30.1606 42.7437 30.1182 42.7059 30.0814 42.6645C29.9598 42.5232 29.9562 42.4308 30.082 42.2911C30.1909 42.171 30.3115 42.0616 30.4264 41.9466C30.6854 41.6877 30.6859 41.6303 30.4203 41.3665C30.0624 41.0086 29.704 40.6503 29.3485 40.2947L29.3187 40.2649C29.1411 40.0789 29.1375 39.98 29.3133 39.7986C29.4231 39.6888 29.5325 39.5794 29.6405 39.4715C29.6765 39.4377 29.7106 39.4018 29.7424 39.364C29.7826 39.323 29.8055 39.268 29.806 39.2106C29.8065 39.1532 29.7847 39.0979 29.7451 39.0564C29.7185 39.0236 29.6895 38.9928 29.6585 38.9641L28.534 37.8518L28.4874 37.8052C28.3294 37.635 28.3272 37.5366 28.4833 37.3702C28.56 37.2879 28.6427 37.2108 28.7227 37.1309C28.7624 37.0912 28.8026 37.051 28.8423 37.0112C29.0419 36.8061 29.0439 36.7164 28.8444 36.517C28.4768 36.1493 28.1086 35.7812 27.7405 35.413C27.6939 35.3703 27.6507 35.3241 27.6114 35.2746C27.5359 35.1711 27.5272 35.0792 27.6146 34.9852C27.7806 34.8034 27.9554 34.6277 28.1376 34.4622C28.2381 34.3683 28.3319 34.376 28.4443 34.4557C28.4939 34.4948 28.5403 34.5378 28.5831 34.5843L37.6872 43.6818Z" fill="white"/>
<path d="M37.7099 12.6739L33.486 8.44993C33.2385 8.20248 33.2077 8.20253 32.9684 8.45397C32.8712 8.55585 32.7749 8.65961 32.6739 8.75777C32.4589 8.96624 32.3712 8.9673 32.1629 8.75899C31.7845 8.38059 31.4065 8.00265 31.0286 7.62471C30.7956 7.39171 30.7755 7.39034 30.5409 7.62497C30.4166 7.7493 30.2955 7.87876 30.167 7.99889C30.0155 8.13913 29.9115 8.13881 29.7619 7.99949C29.6332 7.8802 29.5135 7.7511 29.389 7.62667C29.156 7.39367 29.1444 7.39509 28.9046 7.6358C28.5699 7.97046 28.2356 8.3048 27.9016 8.63884C27.5872 8.95324 27.2728 9.26764 26.9584 9.58205C26.9116 9.62879 26.8686 9.67178 26.8284 9.72131C26.8139 9.73438 26.8022 9.75034 26.7942 9.76816C26.7862 9.78598 26.782 9.80527 26.7819 9.82479C26.7818 9.8443 26.7857 9.86361 26.7935 9.88148C26.8013 9.89935 26.8128 9.91538 26.8272 9.92854C26.8621 9.96349 26.8947 10.0008 26.9292 10.0353L28.0323 11.1383C28.0719 11.1779 28.1143 11.2157 28.1516 11.2576C28.2788 11.4026 28.2814 11.5006 28.1454 11.645C28.05 11.7487 27.9458 11.8446 27.8462 11.9441C27.7911 11.9993 27.7341 12.0516 27.6813 12.1091C27.5616 12.239 27.5587 12.2848 27.6771 12.4125C27.7829 12.5257 27.8961 12.6315 28.0033 12.7387C28.0499 12.7853 28.0951 12.8258 28.1375 12.8729C28.2763 13.0286 28.2809 13.1256 28.1416 13.278C28.0317 13.3972 27.9121 13.5075 27.7943 13.6187C27.5242 13.8777 27.5232 13.9029 27.7897 14.1685L28.8793 15.2581C28.8989 15.2776 28.9189 15.2977 28.9389 15.3177C29.0904 15.4813 29.094 15.5737 28.9421 15.734C28.8158 15.8677 28.6822 15.9939 28.5527 16.1234C28.341 16.3351 28.3405 16.3523 28.5493 16.5611C28.9025 16.9144 29.2557 17.2676 29.609 17.6208C29.6435 17.6553 29.6784 17.6903 29.7134 17.7252C29.9193 17.9312 29.9164 18.0218 29.7065 18.2363C29.607 18.3358 29.507 18.4359 29.4074 18.5354C29.3724 18.5705 29.3373 18.6055 29.3027 18.6401C29.1844 18.7714 29.1811 18.8167 29.3013 18.9435C29.4374 19.087 29.5809 19.2231 29.7207 19.3629C29.9127 19.5549 29.9126 19.6538 29.7284 19.8436C29.5938 19.9782 29.4625 20.117 29.3241 20.2479C29.1858 20.3788 29.0798 20.3822 28.9372 20.2489C28.7946 20.1156 28.6446 19.9647 28.5048 19.8165C28.365 19.6682 28.3586 19.5665 28.5007 19.4142C28.6428 19.2618 28.79 19.1248 28.9349 18.98C29.0943 18.8206 29.0939 18.7762 28.934 18.6155C28.5659 18.2473 28.1977 17.8792 27.8296 17.511L27.7695 17.4509C27.5225 17.2039 27.5231 17.1381 27.7773 16.8838C27.8974 16.7637 28.0199 16.6468 28.1367 16.5244C28.2737 16.3809 28.2771 16.331 28.1377 16.1888C27.7523 15.7978 27.3613 15.4125 26.9727 15.0238C26.7061 14.7572 26.7053 14.6891 26.9726 14.4218C27.0928 14.3016 27.2157 14.1852 27.3321 14.0623C27.4653 13.9235 27.4663 13.8824 27.3353 13.7459C27.1946 13.5986 27.0469 13.4574 26.9029 13.3134C26.73 13.1359 26.7287 13.0458 26.9021 12.8659C27.04 12.7233 27.1826 12.5854 27.3228 12.4452C27.4705 12.2919 27.472 12.2494 27.32 12.0956C26.9617 11.7373 26.6033 11.3789 26.2454 11.021L26.141 10.9166C25.902 10.6776 25.8988 10.5996 26.1386 10.3599C26.2587 10.2397 26.3784 10.1201 26.498 10.0004C26.6499 9.84853 26.65 9.80092 26.5051 9.64945C26.3737 9.51244 26.2367 9.38103 26.1024 9.24682C25.9188 9.05761 25.9153 8.95682 26.106 8.76518C26.7697 8.10148 27.4332 7.43793 28.0966 6.77453C28.2878 6.58337 28.3844 6.58649 28.5768 6.77522C28.7059 6.9043 28.8332 7.0362 28.9646 7.16294C29.1342 7.32697 29.1729 7.32738 29.345 7.15538C29.4796 7.02077 29.6118 6.88289 29.7493 6.75108C29.9189 6.58795 30.0141 6.5878 30.1814 6.74856C30.3245 6.8851 30.461 7.02817 30.6008 7.16798C30.7593 7.32642 30.799 7.32403 30.9644 7.16324C31.0892 7.03845 31.214 6.91365 31.3383 6.78932C31.5561 6.57152 31.6513 6.57697 31.8648 6.79321C32.2295 7.16354 32.5961 7.53294 32.9645 7.9014C33.2227 8.15957 33.2391 8.15629 33.5003 7.89408C33.62 7.77442 33.7359 7.65011 33.8598 7.53465C33.9944 7.41124 34.0928 7.41343 34.2331 7.53409C34.2709 7.56531 34.3026 7.60353 34.3375 7.63848L42.7104 16.0113C43.0058 16.3068 43.0057 16.3581 42.7033 16.6587C42.6038 16.7582 42.5038 16.8582 42.4042 16.9578C42.2285 17.1335 42.2298 17.1723 42.4078 17.354C42.5173 17.4635 42.6292 17.5698 42.7373 17.677C42.7839 17.72 42.8271 17.7666 42.8664 17.8163C42.9488 17.9296 42.9524 18.0173 42.8561 18.122C42.6934 18.2977 42.5238 18.4683 42.3476 18.6306C42.2364 18.7325 42.1407 18.7303 42.0274 18.6264C41.8569 18.4689 41.6942 18.3072 41.5349 18.1338C41.4244 18.014 41.4311 17.9085 41.5513 17.7763C41.6714 17.644 41.8107 17.5169 41.9406 17.3869C42.171 17.1565 42.1715 17.1402 41.9464 16.9151L37.7057 12.6744L37.7099 12.6739Z" fill="white"/>
<path d="M68.6795 43.6433L64.4416 39.4053C64.2053 39.1691 64.2039 39.1677 63.959 39.4135C63.8393 39.5332 63.7234 39.6566 63.6 39.7725C63.436 39.9281 63.3417 39.9311 63.1837 39.7806C63.0355 39.6398 62.8906 39.4959 62.7508 39.3477C62.6189 39.2064 62.62 39.1056 62.7523 38.9603C62.8846 38.8149 63.0365 38.6658 63.186 38.5265C63.3445 38.3793 63.4453 38.3838 63.6047 38.5376C63.7342 38.6671 63.8586 38.8009 63.9928 38.9258C64.1946 39.1173 64.2292 39.1154 64.4236 38.9237C64.5582 38.7891 64.6896 38.6512 64.8274 38.5199C64.9793 38.3773 65.0764 38.3772 65.2288 38.523C65.4264 38.7132 65.6165 38.9108 65.8104 39.1046L73.7792 47.0735C73.947 47.2506 73.951 47.35 73.7851 47.5243C73.6481 47.6678 73.5047 47.8047 73.3644 47.9449C73.2172 48.0978 73.2125 48.1463 73.3606 48.2964C73.7353 48.6776 74.1165 49.0523 74.4949 49.4307C74.5196 49.4554 74.5443 49.4801 74.5695 49.5052C74.7596 49.6954 74.7646 49.7938 74.58 49.9831C74.4356 50.1275 74.2879 50.2696 74.1462 50.4169C74.0224 50.5463 74.0223 50.5883 74.1453 50.7169C74.2865 50.8647 74.4338 51.0054 74.5782 51.1499C74.7609 51.3325 74.7613 51.4264 74.5804 51.6138C74.4359 51.7582 74.2868 51.8989 74.1466 52.0475C74.027 52.1746 74.0287 52.225 74.1494 52.3513C74.286 52.4944 74.429 52.6309 74.5688 52.7708C74.7599 52.9618 74.7635 53.0654 74.5803 53.2496C73.9134 53.9201 73.2449 54.5887 72.5747 55.2552C72.3971 55.4328 72.2925 55.4292 72.108 55.2559C71.9682 55.1161 71.8307 54.9739 71.6886 54.8365C71.5464 54.699 71.4993 54.7005 71.3539 54.8402C71.2343 54.9599 71.1141 55.08 70.9945 55.1996C70.7407 55.4534 70.6744 55.4535 70.4279 55.207L69.3384 54.1175C69.2987 54.0779 69.2587 54.0378 69.2191 53.9982C69.1053 53.9003 69.0582 53.8971 68.9465 53.9986C68.8348 54.1 68.7469 54.1982 68.6474 54.2977C68.6006 54.3445 68.5576 54.3875 68.5128 54.4323C68.3099 54.6268 68.2203 54.626 68.0171 54.4256C67.8773 54.2858 67.7403 54.1432 67.5977 54.0062C67.4789 53.8939 67.4308 53.8935 67.3121 54.001C67.1831 54.1207 67.063 54.2501 66.9382 54.3749C66.8897 54.4261 66.8372 54.4733 66.7812 54.5161C66.6658 54.5998 66.5888 54.5976 66.4741 54.5091C66.4254 54.4689 66.3793 54.4256 66.3361 54.3796L65.2913 53.3348C65.2517 53.2951 65.2116 53.2551 65.172 53.2154C65.0182 53.071 64.9804 53.0706 64.8239 53.2244C64.6892 53.359 64.5546 53.4936 64.42 53.6282C64.2382 53.81 64.136 53.8116 63.9533 53.6289C63.5852 53.2607 63.2175 52.8931 62.8493 52.5249C62.8092 52.4848 62.7696 52.4452 62.73 52.4056C62.5725 52.2565 62.5328 52.2542 62.38 52.4015C62.2426 52.5333 62.1103 52.6711 61.9757 52.8058C61.7808 53.0007 61.6912 52.9971 61.4983 52.8069C61.3692 52.6778 61.2368 52.5511 61.1105 52.4192C60.9689 52.2682 60.9658 52.1679 61.1069 52.0155C61.2481 51.8632 61.3907 51.7206 61.5407 51.5818C61.6907 51.4429 61.7915 51.4437 61.9444 51.5863C62.0972 51.7289 62.2328 51.8748 62.3773 52.0192C62.54 52.1763 62.5773 52.1753 62.7418 52.0145C62.8615 51.8948 62.9811 51.7752 63.1008 51.6555C63.3345 51.4218 63.4129 51.4226 63.6398 51.6496L64.7443 52.754C64.7839 52.7937 64.824 52.8337 64.8636 52.8733C64.9773 52.9712 65.0235 52.9744 65.1361 52.8711C65.2609 52.7565 65.3754 52.6318 65.4951 52.5121C65.7872 52.22 65.8423 52.2199 66.1261 52.5046C66.4891 52.8677 66.8521 53.2307 67.2156 53.5942C67.2501 53.6287 67.2851 53.6636 67.3224 53.6962C67.4286 53.7838 67.4744 53.7866 67.5776 53.6917C67.6973 53.5823 67.8071 53.4622 67.9221 53.3472C67.9768 53.2925 68.032 53.2373 68.0866 53.1827C68.2175 53.0723 68.3146 53.0684 68.4427 53.1835C68.5784 53.3061 68.7014 53.4422 68.8328 53.5689C69.0765 53.8126 69.0849 53.8108 69.3336 53.5593C69.443 53.4499 69.55 53.3373 69.6608 53.2321C69.8449 53.0554 69.9457 53.0544 70.1275 53.2314C70.5054 53.6094 70.8838 53.9878 71.2617 54.3657C71.5274 54.6313 71.5269 54.6309 71.791 54.3668C72.4295 53.7283 73.0682 53.0896 73.7073 52.4505C73.7274 52.4304 73.7475 52.4103 73.7671 52.3906C73.9396 52.2182 73.9397 52.1808 73.7752 52.0098C73.6484 51.8784 73.5165 51.7512 73.3875 51.6221C73.1959 51.4259 73.1965 51.3377 73.3858 51.1437C73.5158 51.0138 73.6452 50.8843 73.7752 50.7544C73.942 50.5875 73.9421 50.5371 73.7781 50.3712C73.395 49.9881 73.0119 49.6051 72.6289 49.222C72.3675 48.9606 72.3657 48.898 72.6246 48.6391C72.7546 48.5092 72.8882 48.383 73.014 48.2498C73.1196 48.1376 73.1169 48.0947 73.0162 47.98C72.9608 47.9161 72.8969 47.8607 72.8373 47.801L68.6795 43.6433Z" fill="white"/>
<path d="M27.4544 51.4727L26.1527 52.7744C26.1228 52.8044 26.0929 52.8343 26.063 52.8642C25.8597 53.0572 25.7682 53.0564 25.5664 52.8565C25.4471 52.7372 25.3311 52.6147 25.2085 52.4986C25.0477 52.3444 24.9516 52.3436 24.7936 52.496C24.6637 52.6259 24.5342 52.7554 24.4043 52.8853C24.2262 53.0569 24.138 53.0584 23.9577 52.8827C23.8281 52.7532 23.7032 52.6199 23.5695 52.4945C23.4189 52.3505 23.3209 52.3497 23.1695 52.4928C23.0316 52.6241 22.9031 52.7657 22.7652 52.8971C22.5979 53.056 22.4976 53.0566 22.3307 52.8973C22.2035 52.7756 22.0879 52.6423 21.9626 52.5198C21.7897 52.3469 21.6893 52.3494 21.515 52.519C21.3902 52.6438 21.2696 52.7728 21.1411 52.893C20.964 53.0608 20.8627 53.0605 20.6907 52.8904C20.3272 52.5269 19.9642 52.1638 19.6012 51.8008C19.5714 51.771 19.5415 51.7412 19.5117 51.7114C19.3267 51.531 19.2394 51.5325 19.0511 51.7181C18.9216 51.8476 18.7949 51.9808 18.6622 52.107C18.5164 52.2416 18.4184 52.2427 18.2758 52.1094C18.1331 51.9762 17.9831 51.8252 17.8433 51.677C17.7035 51.5288 17.6971 51.427 17.8383 51.2747C17.9626 51.1401 18.0977 51.0153 18.2272 50.8858C18.4141 50.6988 18.4086 50.6111 18.226 50.4266C18.0964 50.297 17.9622 50.1721 17.8378 50.0384C17.7031 49.8934 17.7019 49.795 17.8346 49.6519C17.9791 49.4972 18.1291 49.3472 18.2838 49.2028C18.4287 49.0672 18.5262 49.0713 18.6702 49.205C18.8142 49.3387 18.9386 49.4734 19.0729 49.6076C19.2402 49.7749 19.3326 49.7739 19.5027 49.6084C19.6275 49.4836 19.7523 49.3588 19.8766 49.2345C20.0636 49.054 20.1513 49.053 20.3382 49.2389C20.9748 49.8755 21.6116 50.5124 22.2488 51.1496C22.5284 51.4292 22.5798 51.4282 22.8607 51.1435C22.9542 51.0501 23.0477 50.951 23.1453 50.8589C23.3276 50.685 23.4275 50.6867 23.6116 50.8661C23.7257 50.9803 23.8404 51.0949 23.9545 51.2091C24.1465 51.4011 24.2315 51.3982 24.4278 51.2019C25.3258 50.3039 26.2237 49.406 27.1214 48.5083C27.1792 48.4466 27.241 48.3888 27.3065 48.3353C27.4191 48.2507 27.504 48.2524 27.6145 48.3367C27.6583 48.3721 27.6996 48.4106 27.738 48.4518L28.8271 49.5409C28.8683 49.5793 28.9068 49.6206 28.9422 49.6644C29.0274 49.7758 29.0287 49.8575 28.9459 49.9719C28.8976 50.0325 28.845 50.0895 28.7884 50.1425C28.3431 50.5853 27.8985 51.0287 27.4544 51.4727Z" fill="white"/>
<path d="M30.2549 54.2729L28.9532 55.5746C28.9232 55.6045 28.8933 55.6345 28.8634 55.6644C28.6704 55.8677 28.6712 55.9591 28.8711 56.1609C28.9904 56.2802 29.113 56.3963 29.229 56.5188C29.3832 56.6796 29.384 56.7758 29.2316 56.9337C29.1017 57.0637 28.9722 57.1931 28.8423 57.3231C28.6707 57.5011 28.6692 57.5893 28.8449 57.7697C28.9744 57.8993 29.1077 58.0241 29.2331 58.1579C29.3771 58.3084 29.3779 58.4064 29.2348 58.5579C29.1035 58.6957 28.9619 58.8243 28.8305 58.9622C28.6716 59.1295 28.6705 59.2293 28.8303 59.3967C28.952 59.5239 29.0853 59.6394 29.2078 59.7648C29.3812 59.9381 29.3787 60.0385 29.209 60.2128C29.0842 60.3376 28.9552 60.4582 28.8351 60.5867C28.6673 60.7639 28.6676 60.8652 28.8377 61.0371C29.2007 61.4001 29.5642 61.7636 29.9273 62.1267C29.9571 62.1565 29.9869 62.1863 30.0167 62.2161C30.1971 62.4011 30.1955 62.4884 30.01 62.6768C29.8805 62.8062 29.7473 62.9329 29.6211 63.0656C29.4865 63.2115 29.4854 63.3095 29.6187 63.4521C29.7519 63.5947 29.9029 63.7448 30.0511 63.8845C30.1993 64.0243 30.3011 64.0307 30.4534 63.8895C30.588 63.7652 30.7128 63.6301 30.8423 63.5007C31.0292 63.3137 31.117 63.3192 31.3015 63.5019C31.4311 63.6314 31.556 63.7656 31.6897 63.89C31.8347 64.0247 31.9331 64.026 32.0757 63.8927C32.2308 63.7488 32.3809 63.5987 32.5248 63.4436C32.6604 63.2987 32.6563 63.2012 32.5226 63.0571C32.3889 62.9131 32.2542 62.7887 32.12 62.6545C31.9527 62.4872 31.9538 62.3948 32.1192 62.2247C32.244 62.0999 32.3688 61.9751 32.4931 61.8508C32.6736 61.6638 32.6746 61.5761 32.4887 61.3892C31.8521 60.7526 31.2152 60.1157 30.578 59.4785C30.2984 59.1989 30.299 59.1471 30.5841 58.8667C30.6776 58.7732 30.7766 58.6797 30.8687 58.582C31.0421 58.3993 31.0409 58.2999 30.8615 58.1158C30.7473 58.0016 30.6327 57.887 30.5185 57.7728C30.326 57.5804 30.3294 57.4959 30.5257 57.2996C31.4238 56.4015 32.3216 55.5037 33.2193 54.606C33.281 54.5482 33.3388 54.4863 33.3923 54.4209C33.4769 54.3083 33.4752 54.2233 33.3909 54.1129C33.3555 54.069 33.317 54.0278 33.2758 53.9894L32.1867 52.9003C32.1483 52.859 32.1071 52.8206 32.0632 52.7852C31.9518 52.6999 31.8701 52.6987 31.7557 52.7814C31.6951 52.8297 31.6381 52.8824 31.5851 52.939C31.142 53.3839 30.6986 53.8286 30.2549 54.2729Z" fill="white"/>
<path d="M56.809 51.4035C56.6053 51.1999 56.4017 50.9962 56.198 50.7926C56.0433 50.6379 56.0046 50.6393 55.8513 50.788C55.7082 50.9254 55.5708 51.0684 55.4306 51.2086C55.2539 51.3769 55.1527 51.3766 54.9807 51.2102C54.8441 51.0783 54.709 50.9451 54.5781 50.8076C54.4345 50.6557 54.4324 50.5562 54.5735 50.4058C54.7147 50.2553 54.8675 50.1015 55.0218 49.9575C55.1545 49.8351 55.2604 49.8344 55.3951 49.957C55.5499 50.0996 55.6934 50.2552 55.842 50.4039C56.0061 50.5623 56.0397 50.5613 56.2051 50.3996C56.3248 50.28 56.4444 50.1603 56.5641 50.0406C56.7931 49.8116 56.8795 49.8101 57.1041 50.0347C57.4867 50.4173 57.8693 50.7999 58.2519 51.1825C58.462 51.3927 58.4802 51.3912 58.6892 51.1823C58.8238 51.0477 58.9542 50.9089 59.093 50.7785C59.2318 50.6481 59.3322 50.6437 59.4776 50.7779C59.6309 50.9219 59.7805 51.0715 59.9245 51.2248C60.0536 51.3623 60.0576 51.457 59.9305 51.5916C59.7832 51.7529 59.628 51.908 59.4673 52.0548C59.3247 52.1853 59.2188 52.1803 59.0813 52.0428C58.9299 51.896 58.7882 51.7394 58.6344 51.5959C58.4913 51.4594 58.44 51.4585 58.2975 51.5945C58.1549 51.7306 58.0282 51.8638 57.8936 51.9984C57.6884 52.2036 57.604 52.2023 57.4017 52.0028C57.1995 51.8034 57.0042 51.6053 56.8057 51.4068L56.809 51.4035Z" fill="white"/>
<path d="M30.7586 23.677C30.9572 23.8755 31.1562 24.0745 31.3551 24.2735C31.5415 24.4599 31.5414 24.5532 31.3591 24.7355C31.217 24.8823 31.0665 25.0216 30.9254 25.1693C30.8062 25.295 30.8061 25.3482 30.9249 25.4736C31.0652 25.6213 31.2129 25.7616 31.3574 25.906C31.5377 26.0864 31.5367 26.1853 31.3567 26.3727C31.2254 26.5097 31.0921 26.6466 30.9529 26.7766C30.8005 26.9159 30.6997 26.9132 30.5501 26.7711C30.4005 26.629 30.257 26.4873 30.1177 26.3386C29.9783 26.1899 29.9855 26.098 30.1206 25.9527C30.2557 25.8073 30.3898 25.6834 30.5244 25.5488C30.723 25.3502 30.7245 25.3161 30.5316 25.1222C30.1587 24.7494 29.7859 24.3766 29.4131 24.0038C29.1396 23.7303 29.1401 23.6654 29.4196 23.3868C29.5243 23.2821 29.629 23.1774 29.7337 23.0727C29.9099 22.8965 29.909 22.8611 29.7301 22.6774C29.6057 22.553 29.4813 22.4286 29.3545 22.3074C29.1648 22.1178 29.1622 22.0216 29.3496 21.8295C29.4842 21.6949 29.6156 21.5561 29.7534 21.4257C29.8913 21.2953 29.9935 21.2919 30.138 21.4279C30.2913 21.5728 30.4414 21.722 30.5854 21.8753C30.7079 22.0072 30.7101 22.1122 30.5848 22.2487C30.4422 22.4052 30.2857 22.5478 30.1389 22.7002C29.9833 22.8614 29.9832 22.9025 30.1449 23.067C30.349 23.2711 30.5527 23.4747 30.7568 23.6789L30.7586 23.677Z" fill="white"/>
</g>
<defs>
<clipPath id="clip0_71_16577">
<rect width="65.7316" height="48.5842" fill="white" transform="translate(47 80.8335) rotate(-135)"/>
</clipPath>
</defs>
</svg>
