<svg width="262" height="89" viewBox="0 0 262 89" fill="none" xmlns="http://www.w3.org/2000/svg">
<g clip-path="url(#clip0_71_13021)">
<path d="M22.9271 20.2818C15.1929 15.9867 7.82278 11.8834 5.48087 5.29557H9.11673V0.754425H0C0 12.9314 10.4943 18.7616 20.6639 24.3949C24.536 26.5499 28.3145 28.6507 31.4239 31.0418H31.3797V35.5781H36.0487C37.0822 36.939 37.8606 38.4759 38.3464 40.1143H27.237V44.6751H38.8334C38.764 46.2364 38.4157 47.7727 37.8052 49.2113H31.5863V53.7476H34.804C32.3686 56.4044 29.0328 58.638 25.3724 60.7881C26.9025 61.6392 28.4769 62.5248 30.0463 63.4596C37.4263 58.825 43.5615 53.2359 43.5615 43.942C43.5615 31.7454 33.0721 25.9152 22.9271 20.2818Z" fill="#C1F827"/>
<path d="M22.7302 5.29066V0.75444H18.1891H13.6528V5.29066H18.1891H22.7302Z" fill="#C1F827"/>
<path d="M13.6529 5.29066H9.1167V9.82688H13.6529V5.29066Z" fill="#C1F827"/>
<path d="M18.1891 9.83182H13.6528V14.368H18.1891V9.83182Z" fill="#C1F827"/>
<path d="M22.6957 35.5781V40.1143H18.1792V44.6505H22.7203V40.1143H27.232V35.5781H22.6957Z" fill="#C1F827"/>
<path d="M22.6959 31.0369H18.1597V35.5732H22.6959V31.0369Z" fill="#C1F827"/>
<path d="M27.232 49.1917H22.6958V53.7279H27.232V49.1917Z" fill="#C1F827"/>
<path d="M13.6432 79.1888H9.10693V83.725H13.6432V79.1888Z" fill="#C1F827"/>
<path d="M9.10214 83.73H4.56592V88.2662H9.10214V83.73Z" fill="#C1F827"/>
<path d="M27.0499 79.1888H22.7203V74.6526H18.1792V79.1888H22.6957V83.73H27.232V79.1888H31.5862V74.6526H27.0499V79.1888Z" fill="#C1F827"/>
<path d="M22.927 63.4498C19.8619 61.7475 16.8558 60.0747 14.199 58.2691H18.194V53.7279H22.7204V49.1917H18.194V44.6751H13.6529V49.2114H18.1842V53.7476H13.6529V57.9148V53.7279H8.77225C7.51896 52.4003 6.5052 50.8655 5.77599 49.1917H9.10681V44.6751H4.7231C4.7231 44.4291 4.7231 44.1831 4.7231 43.9421C4.71851 42.6539 4.89742 41.3717 5.25445 40.134H9.10681V35.5978H7.55702C10.017 32.2817 13.889 29.6298 18.2039 27.096C16.6737 26.2498 15.0993 25.3642 13.5299 24.4245C6.1253 29.0591 0.00976562 34.6482 0.00976562 43.9421C0.00976562 56.119 10.5041 61.9492 20.6737 67.558C24.7819 69.8458 28.7917 72.0745 31.9897 74.6477H31.6108V79.1888H36.3635C37.3363 80.5598 38.05 82.0972 38.4693 83.7251H27.05V88.2613H43.527C43.527 87.8775 43.5615 87.4888 43.5615 87.0903C43.5615 74.9134 33.072 69.0881 22.927 63.4498Z" fill="#C7C7C7"/>
<path d="M18.1941 70.259C16.664 69.4128 15.0896 68.5272 13.5201 67.5875C6.11555 72.2221 0 77.8161 0 87.11C0 87.5085 3.60336e-06 87.8972 0.0344435 88.281H4.76254C4.73302 87.8972 4.71335 87.5085 4.71335 87.11C4.72319 79.302 10.7846 74.5936 18.1941 70.259Z" fill="#C7C7C7"/>
<path d="M22.7301 9.83181H27.0597V14.368H30.4102C28.8505 15.4898 27.1531 16.5574 25.3721 17.6005C26.9022 18.4516 28.4766 19.3323 30.0461 20.272C37.4261 15.6423 43.5613 10.0483 43.5613 0.75444H34.4691V5.31527H38.0853C37.4818 6.97261 36.5871 8.50882 35.4433 9.85149H27.2466V5.31527H31.5959V0.774124H27.0597V5.31527H22.7055V9.85149H18.1938V14.3877H22.7301V9.83181Z" fill="#C7C7C7"/>
<path d="M18.1891 35.5781H13.6528V40.1143H18.1891V35.5781Z" fill="#C7C7C7"/>
<path d="M13.6432 35.5781H9.10693V40.1143H13.6432V35.5781Z" fill="#C7C7C7"/>
<path d="M13.6431 83.73V88.2662H18.1793H22.7204V83.73H18.1793H13.6431Z" fill="#C7C7C7"/>
</g>
<g clip-path="url(#clip1_71_13021)">
<path d="M97.2016 0.0458298V7.75375H65V0.0458298H97.2016Z" fill="white"/>
<path d="M65.0288 34.2448H97.2018V41.9528H65.0288V34.2448Z" fill="white"/>
<path d="M65.0288 17.0651H88.0005V24.8189H65.0288V17.0651Z" fill="white"/>
<path d="M170.359 16.2978V8.56692H188.779V16.2978H170.359Z" fill="white"/>
<path d="M110.852 34.1818H129.248V41.9528H110.852V34.1818Z" fill="white"/>
<path d="M156.669 17.111H175.077V24.8704H156.669V17.111Z" fill="white"/>
<path d="M142.859 16.2863V8.57265H161.284V16.2863H142.859Z" fill="white"/>
<path d="M156.766 7.76522H142.944V0.0401001H156.766V7.76522Z" fill="white"/>
<path d="M188.785 7.83393C184.37 7.83393 180.053 7.83393 175.73 7.79957C175.553 7.75858 175.388 7.67287 175.253 7.55061C175.118 7.42835 175.016 7.27356 174.957 7.10092C174.9 4.81029 174.923 2.46816 174.923 0.0458298H188.785V7.83393Z" fill="white"/>
<path d="M152.163 42.01H142.939V34.2448H152.163V42.01Z" fill="white"/>
<path d="M129.174 0.0114365H138.416V7.74802H129.174V0.0114365Z" fill="white"/>
<path d="M179.515 25.655H188.762V33.3973H179.515V25.655Z" fill="white"/>
<path d="M170.497 25.7065V33.4145H161.198V25.7065H170.497Z" fill="white"/>
<path d="M101.725 7.62939e-06H110.966V7.75375H101.725V7.62939e-06Z" fill="white"/>
<path d="M129.157 17.0651H138.404V24.8189H129.157V17.0651Z" fill="white"/>
<path d="M152.174 24.8704H142.933V17.1453H152.174V24.8704Z" fill="white"/>
<path d="M179.498 17.0938H188.785V24.9277C185.922 24.9277 183.059 24.9277 180.156 24.8991C180 24.8448 179.86 24.7517 179.75 24.6284C179.64 24.5052 179.563 24.3559 179.526 24.1947C179.481 21.8812 179.498 19.5676 179.498 17.0938Z" fill="white"/>
<path d="M110.926 17.1224V24.8647H101.69V17.1224H110.926Z" fill="white"/>
<path d="M115.512 25.6836V33.3801H106.214V25.6836H115.512Z" fill="white"/>
<path d="M133.784 33.4488H124.594V25.6893H133.784V33.4488Z" fill="white"/>
<path d="M152.123 25.655V33.3916H142.887V25.655H152.123Z" fill="white"/>
<path d="M110.92 16.315H101.65V8.58984H110.92V16.315Z" fill="white"/>
<path d="M179.503 34.2448H188.808V42.0501C185.916 42.0501 183.082 42.0501 180.219 42.0215C180.059 41.9861 179.91 41.9101 179.788 41.8008C179.666 41.6915 179.574 41.5525 179.52 41.3973C179.486 39.0322 179.503 36.6729 179.503 34.2448Z" fill="white"/>
<path d="M138.398 8.59557V16.2863H129.18V8.59557H138.398Z" fill="white"/>
<path d="M74.2013 8.607V16.3035H65V8.607H74.2013Z" fill="white"/>
<path d="M65.0342 25.655H74.1954V33.4087H65.0342V25.655Z" fill="white"/>
<path d="M156.475 70.7803V63.0551H188.688V70.7803H156.475Z" fill="white"/>
<path d="M188.728 80.1603V87.8855H156.521V80.1603H188.728Z" fill="white"/>
<path d="M188.716 45.9442V53.6521H156.543V45.9442H188.716Z" fill="white"/>
<path d="M257.586 53.7151H230.016V45.9327H257.586V53.7151Z" fill="white"/>
<path d="M106.134 53.6521V45.9442H133.709V53.6521H106.134Z" fill="white"/>
<path d="M106.048 70.7459V63.0551H133.68V70.7459H106.048Z" fill="white"/>
<path d="M73.8348 45.927H101.519V53.7781H92.3576C86.6948 53.7781 81.0321 53.7208 75.3693 53.7781C74.0638 53.7781 73.7489 53.383 73.8062 52.1632C73.9035 50.1474 73.8348 48.1088 73.8348 45.927Z" fill="white"/>
<path d="M220.952 45.9384V53.6464H193.354V45.9384H220.952Z" fill="white"/>
<path d="M73.8348 80.1375H101.519V87.9885H92.3576C86.6948 87.9885 81.0321 87.9313 75.3693 87.9885C74.0638 87.9885 73.7489 87.5934 73.8062 86.3737C73.9035 84.3579 73.8348 82.3479 73.8348 80.1375Z" fill="white"/>
<path d="M257.562 63.0723V70.7803H229.941V63.0723H257.562Z" fill="white"/>
<path d="M193.114 63.0437H220.775V70.8948H216.274C209.089 70.8948 201.903 70.8432 194.717 70.8948C193.348 70.8948 193.034 70.4653 193.091 69.1768C193.182 67.184 193.114 65.1682 193.114 63.0437Z" fill="white"/>
<path d="M152.083 45.9728V53.6693H142.784V45.9728H152.083Z" fill="white"/>
<path d="M69.2886 71.5934H78.5643V79.3242H69.2886V71.5934Z" fill="white"/>
<path d="M239.028 62.2477H229.724V54.4996H239.006L239.028 62.2477Z" fill="white"/>
<path d="M252.627 62.2076V54.4939H261.874V62.2076H252.627Z" fill="white"/>
<path d="M69.3457 70.7745V63.0838H78.6329V70.7745H69.3457Z" fill="white"/>
<path d="M142.744 70.7745V63.0494H151.986V70.7745H142.744Z" fill="white"/>
<path d="M225.241 62.2477H216.04V54.5168H225.241V62.2477Z" fill="white"/>
<path d="M202.32 62.2591H193.159V54.5054H202.32V62.2591Z" fill="white"/>
<path d="M239.045 87.8912H229.821V80.189H239.045V87.8912Z" fill="white"/>
<path d="M156.435 62.219V54.5225H165.733V62.219H156.435Z" fill="white"/>
<path d="M202.401 87.9656C199.538 87.9656 196.732 87.9656 193.938 87.9256C193.746 87.8679 193.573 87.7609 193.435 87.6152C193.297 87.4695 193.2 87.2902 193.154 87.0952C193.091 84.8332 193.119 82.5598 193.119 80.1832H202.401V87.9656Z" fill="white"/>
<path d="M152.02 80.1603V87.8797H142.784V80.1603H152.02Z" fill="white"/>
<path d="M105.922 79.3415V71.6392H115.209V79.3415H105.922Z" fill="white"/>
<path d="M138.038 79.3586H128.876V71.6335H138.038V79.3586Z" fill="white"/>
<path d="M138.29 80.1718V87.8626H129.071V80.1718H138.29Z" fill="white"/>
<path d="M229.724 71.5877H238.96V79.2956H229.724V71.5877Z" fill="white"/>
<path d="M261.817 79.3643H252.627V71.6163H261.788L261.817 79.3643Z" fill="white"/>
<path d="M115.209 54.5054V62.3049C112.272 62.3049 109.386 62.3049 106.5 62.2706C106.288 62.2706 105.899 61.8067 105.893 61.549C105.847 59.2584 105.864 56.9277 105.864 54.5111L115.209 54.5054Z" fill="white"/>
<path d="M78.5645 62.3049C75.6558 62.3049 72.9017 62.3049 70.1477 62.2706C69.8442 62.2706 69.3003 61.7838 69.2945 61.5147C69.2258 59.2241 69.2544 56.8933 69.2544 54.4939H78.5645V62.3049Z" fill="white"/>
<path d="M202.24 71.6278V79.33H193.039V71.6278H202.24Z" fill="white"/>
<path d="M179.337 71.5877H188.499V79.33H179.337V71.5877Z" fill="white"/>
<path d="M106.082 87.8855V80.1832H115.243V87.8855H106.082Z" fill="white"/>
<path d="M151.854 71.6106V79.3415H142.693V71.6106H151.854Z" fill="white"/>
<path d="M138.147 62.2362H128.985V54.5054H138.147V62.2362Z" fill="white"/>
<path d="M151.963 54.4939C151.963 56.8933 151.963 59.2069 151.928 61.5147C151.883 61.6911 151.794 61.8532 151.668 61.9855C151.543 62.1177 151.386 62.2159 151.212 62.2706C148.418 62.3221 145.618 62.3049 142.721 62.3049V54.4939H151.963Z" fill="white"/>
<path d="M262.006 87.8969H252.845V80.1661H262.006V87.8969Z" fill="white"/>
</g>
<defs>
<clipPath id="clip0_71_13021">
<rect width="43.5615" height="87.5117" fill="white" transform="translate(0 0.754433)"/>
</clipPath>
<clipPath id="clip1_71_13021">
<rect width="197" height="88" fill="white" transform="translate(65)"/>
</clipPath>
</defs>
</svg>
